{
.appVersion = "3109";
.formatVersion = 3;
DisplayStrings = (
"ஂ"
);
axes = (
{
name = Weight;
tag = wght;
},
{
name = Width;
tag = wdth;
}
);
classes = (
{
code = "aavowelsigntamil ivowelsigntamil iivowelsigntamil uvowelsigntamil uuvowelsigntamil viramatamil aulengthmarktamil ivowelsign3tamil ivowelsign2tamil ivowelsign1tamil uvowelsignalttamil uuvowelsignalttamil";
name = markAttachmentSet1;
},
{
code = "aatamil aitamil atamil autamil catamil cauuvowelsigntamil cauvowelsigntamil eetamil etamil haiivowelsigntamil iitamil katamil kauuvowelsigntamil kauvowelsigntamil laiivowelsigntamil laivowelsigntamil lauuvowelsigntamil lauvowelsigntamil llaiivowelsigntamil llauuvowelsigntamil llauvowelsigntamil lllatamil lllauuvowelsigntamil lllauvowelsigntamil matamil mauuvowelsigntamil mauvowelsigntamil natamil nauuvowelsigntamil nauvowelsigntamil ngaiivowelsigntamil ngauuvowelsigntamil ngauvowelsigntamil nnaiivowelsigntamil nnauuvowelsigntamil nnauvowelsigntamil nnnaiivowelsigntamil nnnauuvowelsigntamil nnnauvowelsigntamil nyaiivowelsigntamil nyauuvowelsigntamil nyauvowelsigntamil ootamil otamil patamil pauuvowelsigntamil pauvowelsigntamil ratamil rauuvowelsigntamil rauvowelsigntamil rratamil rrauuvowelsigntamil rrauvowelsigntamil saiivowelsigntamil saivowelsigntamil shritamil ssaiivowelsigntamil tatamil tauuvowelsigntamil tauvowelsigntamil tchaiivowelsigntamil ttaiivowelsigntamil ttaivowelsigntamil ttatamil utamil uutamil vaiivowelsigntamil vauuvowelsigntamil vauvowelsigntamil yatamil yauuvowelsigntamil yauvowelsigntamil";
name = class1;
},
{
code = "hatamil jatamil latamil llatamil ngatamil nnatamil nnnatamil nyatamil satamil shatamil ssatamil tchatamil vatamil";
name = class2;
},
{
code = "aavowelsigntamil aulengthmarktamil uuvowelsignalttamil uuvowelsigntamil uvowelsignalttamil uvowelsigntamil";
name = class4;
}
);
customParameters = (
{
name = openTypeOS2VendorID;
value = GOOG;
},
{
name = glyphOrder;
value = (
.notdef,
NULL,
CR,
space,
anusvaratamil,
visargatamil,

glyphs = (
{
glyphname = .notdef;
lastChange = "2020-03-17 13:07:53 +0000";
layers = (
{
layerId = UUID0;
shapes = (
{
closed = 1;
nodes = (
(505,0,l),
(505,714,l),
(94,714,l),
(94,0,l)
);
},
{
closed = 1;
nodes = (
(145,663,l),
(454,663,l),
(454,51,l),
(145,51,l)
);
}
);
width = 600;
},
{
layerId = "4900EB3E-CEE9-4F53-85D9-05D95ABCFDBA";
shapes = (
{
closed = 1;
nodes = (
(505,0,l),
(505,714,l),
(94,714,l),
(94,0,l)
);
},
{
closed = 1;
nodes = (
(145,663,l),
(454,663,l),
(454,51,l),
(145,51,l)
);
}
);
width = 600;
},
{
layerId = "4BF31C0D-0A66-4B39-96F9-ACB961E601E6";
shapes = (
{
closed = 1;
nodes = (
(505,0,l),
(505,714,l),
(94,714,l),
(94,0,l)
);
},
{
closed = 1;
nodes = (
(145,663,l),
(454,663,l),
(454,51,l),
(145,51,l)
);
}
);
width = 600;
},
{
layerId = "6732FEC1-CFA6-4586-B452-175C4A015291";
shapes = (
{
closed = 1;
nodes = (
(505,0,l),
(505,714,l),
(94,714,l),
(94,0,l)
);
},
{
closed = 1;
nodes = (
(145,663,l),
(454,663,l),
(454,51,l),
(145,51,l)
);
}
);
width = 600;
},
{
layerId = "960C9600-7588-48B9-A77D-42B729BBBC0C";
shapes = (
{
closed = 1;
nodes = (
(505,0,l),
(505,714,l),
(94,714,l),
(94,0,l)
);
},
{
closed = 1;
nodes = (
(145,663,l),
(454,663,l),
(454,51,l),
(145,51,l)
);
}
);
width = 600;
},
{
layerId = "AA356D29-EBA3-4BA7-B11E-09F9C5534C37";
shapes = (
{
closed = 1;
nodes = (
(505,0,l),
(505,714,l),
(94,714,l),
(94,0,l)
);
},
{
closed = 1;
nodes = (
(145,663,l),
(454,663,l),
(454,51,l),
(145,51,l)
);
}
);
width = 600;
},
{
layerId = "DB7E4487-AAA8-4905-9B27-B72FA6056893";
shapes = (
{
closed = 1;
nodes = (
(505,0,l),
(505,714,l),
(94,714,l),
(94,0,l)
);
},
{
closed = 1;
nodes = (
(145,663,l),
(454,663,l),
(454,51,l),
(145,51,l)
);
}
);
width = 600;
}
);
},
{
category = Mark;
glyphname = anusvaratamil;
lastChange = "2022-02-22 17:34:07 +0000";
layers = (
{
anchors = (
{
name = _Anchor8;
pos = (162,-29);
}
);
layerId = UUID0;
shapes = (
{
closed = 1;
nodes = (
(65,673,o),
(106,638,o),
(163,638,cs),
(219,638,o),
(260,673,o),
(260,736,cs),
(260,797,o),
(219,835,o),
(163,835,cs),
(106,835,o),
(65,797,o),
(65,736,cs)
);
},
{
closed = 1;
nodes = (
(92,786,o),
(122,810,o),
(163,810,cs),
(200,810,o),
(233,786,o),
(233,736,cs),
(233,686,o),
(200,662,o),
(163,662,cs),
(122,662,o),
(92,686,o),
(92,736,cs)
);
}
);
width = 324;
},
{
anchors = (
{
name = _Anchor8;
pos = (176,-29);
}
);
layerId = "4900EB3E-CEE9-4F53-85D9-05D95ABCFDBA";
shapes = (
{
closed = 1;
nodes = (
(56,651,o),
(105,602,o),
(176,602,cs),
(247,602,o),
(296,651,o),
(296,722,cs),
(296,793,o),
(247,843,o),
(176,843,cs),
(105,843,o),
(56,793,o),
(56,722,cs)
);
},
{
closed = 1;
nodes = (
(116,759,o),
(140,785,o),
(176,785,cs),
(211,785,o),
(236,759,o),
(236,722,cs),
(236,686,o),
(211,660,o),
(176,660,cs),
(140,660,o),
(116,686,o),
(116,722,cs)
);
}
);
width = 352;
},
{
anchors = (
{
name = _Anchor8;
pos = (190,-29);
}
);
layerId = "4BF31C0D-0A66-4B39-96F9-ACB961E601E6";
shapes = (
{
closed = 1;
nodes = (
(46,638,o),
(103,580,o),
(189,580,cs),
(276,580,o),
(334,638,o),
(334,714,cs),
(334,792,o),
(276,851,o),
(189,851,cs),
(103,851,o),
(46,792,o),
(46,714,cs)
);
},
{
closed = 1;
nodes = (
(138,746,o),
(158,770,o),
(189,770,cs),
(222,770,o),
(242,746,o),
(242,714,cs),
(242,684,o),
(222,661,o),
(189,661,cs),
(158,661,o),
(138,684,o),
(138,714,cs)
);
}
);
width = 380;
},
{
anchors = (
{
name = _Anchor8;
pos = (200,-29);
}
);
layerId = "6732FEC1-CFA6-4586-B452-175C4A015291";
shapes = (
{
closed = 1;
nodes = (
(41,639,o),
(95,584,o),
(201,584,cs),
(302,584,o),
(358,639,o),
(358,719,c),
(358,792,o),
(306,851,o),
(201,851,cs),
(95,851,o),
(41,792,o),
(41,719,cs)
);
},
{
closed = 1;
nodes = (
(154,745,o),
(170,763,o),
(201,763,cs),
(229,763,o),
(245,745,o),
(245,719,c),
(245,691,o),
(229,672,o),
(201,672,cs),
(170,672,o),
(154,691,o),
(154,719,cs)
);
}
);
width = 399;
},
{
anchors = (
{
name = _Anchor8;
pos = (123,-29);
}
);
layerId = "960C9600-7588-48B9-A77D-42B729BBBC0C";
shapes = (
{
closed = 1;
nodes = (
(47,674,o),
(74,638,o),
(123,638,cs),
(172,638,o),
(199,674,o),
(199,736,cs),
(199,798,o),
(172,835,o),
(123,835,cs),
(74,835,o),
(47,798,o),
(47,736,cs)
);
},
{
closed = 1;
nodes = (
(74,786,o),
(92,810,o),
(123,810,cs),
(154,810,o),
(172,786,o),
(172,736,cs),
(172,686,o),
(154,662,o),
(123,662,cs),
(92,662,o),
(74,686,o),
(74,736,cs)
);
}
);
width = 246;
},
{
anchors = (
{
name = _Anchor8;
pos = (130,-29);
}
);
layerId = "AA356D29-EBA3-4BA7-B11E-09F9C5534C37";
shapes = (
{
closed = 1;
nodes = (
(37,643,o),
(75,602,o),
(130,602,cs),
(185,602,o),
(223,643,o),
(223,722,cs),
(223,801,o),
(185,843,o),
(130,843,cs),
(75,843,o),
(37,801,o),
(37,722,cs)
);
},
{
closed = 1;
nodes = (
(89,766,o),
(106,785,o),
(130,785,cs),
(154,785,o),
(171,766,o),
(171,722,cs),
(171,678,o),
(154,660,o),
(130,660,cs),
(106,660,o),
(89,678,o),
(89,722,cs)
);
}
);
width = 260;
},
{
anchors = (
{
name = _Anchor8;
pos = (160,-29);
}
);
layerId = "DB7E4487-AAA8-4905-9B27-B72FA6056893";
shapes = (
{
closed = 1;
nodes = (
(36,633,o),
(79,584,o),
(158,584,cs),
(238,584,o),
(283,632,o),
(283,716,cs),
(283,801,o),
(238,851,o),
(158,851,cs),
(79,851,o),
(36,801,o),
(36,716,cs)
);
},
{
closed = 1;
nodes = (
(129,753,o),
(140,772,o),
(158,772,cs),
(180,772,o),
(189,753,o),
(189,716,cs),
(189,681,o),
(180,663,o),
(158,663,cs),
(140,663,o),
(129,682,o),
(129,716,cs)
);
}
);
width = 319;
}
);
subCategory = "Spacing Combining";
unicode = 2946;
},
{
glyphname = visargatamil;
lastChange = "2020-03-17 13:07:53 +0000";
layers = (
{
layerId = UUID0;
shapes = (
{
closed = 1;
nodes = (
(283,-12,o),
(353,44,o),
(353,162,cs),
(353,280,o),
(282,336,o),
(201,336,cs),
(120,336,o),
(51,280,o),
(51,162,cs),
(51,44,o),
(121,-12,o),
(202,-12,cs)
);
},
{
closed = 1;
nodes = (
(134,13,o),
(79,60,o),
(79,162,cs),
(79,264,o),
(134,311,o),
(202,311,cs),
(270,311,o),
(325,264,o),
(325,162,cs),
(325,60,o),
(270,13,o),
(202,13,cs)
);
},
{
closed = 1;
nodes = (
(709,-12,o),
(779,44,o),
(779,162,cs),
(779,280,o),
(708,336,o),
(627,336,cs),
(546,336,o),
(477,280,o),
(477,162,cs),
(477,44,o),
(547,-12,o),
(628,-12,cs)
);
},
{
closed = 1;
nodes = (
(560,13,o),
(505,60,o),
(505,162,cs),
(505,264,o),
(560,311,o),
(628,311,cs),
(696,311,o),
(751,264,o),
(751,162,cs),
(751,60,o),
(696,13,o),
(628,13,cs)
);
},
{
closed = 1;
nodes = (
(496,476,o),
(566,532,o),
(566,650,cs),
(566,768,o),
(495,824,o),
(414,824,cs),
(333,824,o),
(264,768,o),
(264,650,cs),
(264,532,o),
(334,476,o),
(415,476,cs)
);
},
{
closed = 1;
nodes = (
(347,501,o),
(292,548,o),
(292,650,cs),
(292,752,o),
(347,799,o),
(415,799,cs),
(483,799,o),
(538,752,o),
(538,650,cs),
(538,548,o),
(483,501,o),
(415,501,cs)
);
}
);
width = 830;
},
{
layerId = "4900EB3E-CEE9-4F53-85D9-05D95ABCFDBA";
shapes = (
{
closed = 1;
nodes = (
(322,-11,o),
(394,61,o),
(394,173,cs),
(394,283,o),
(324,355,o),
(220,355,cs),
(117,355,o),
(45,284,o),
(45,173,cs),
(45,62,o),
(113,-11,o),
(222,-11,cs)
);
},
{
closed = 1;
nodes = (
(168,60,o),
(127,96,o),
(127,172,cs),
(127,246,o),
(167,284,o),
(220,284,cs),
(270,284,o),
(312,248,o),
(312,174,cs),
(312,98,o),
(272,60,o),
(221,60,cs)
);
},
{
closed = 1;
nodes = (
(779,-11,o),
(851,61,o),
(851,173,cs),
(851,283,o),
(781,355,o),
(677,355,cs),
(574,355,o),
(502,284,o),
(502,173,cs),
(502,61,o),
(571,-11,o),
(679,-11,cs)
);
},
{
closed = 1;
nodes = (
(625,60,o),
(584,96,o),
(584,172,cs),
(584,246,o),
(624,284,o),
(677,284,cs),
(726,284,o),
(769,248,o),
(769,174,cs),
(769,98,o),
(729,60,o),
(678,60,cs)
);
},
{
closed = 1;
nodes = (
(550,477,o),
(622,549,o),
(622,661,cs),
(622,771,o),
(552,843,o),
(448,843,cs),
(345,843,o),
(273,772,o),
(273,661,cs),
(273,549,o),
(342,477,o),
(450,477,cs)
);
},
{
closed = 1;
nodes = (
(396,548,o),
(355,584,o),
(355,660,cs),
(355,734,o),
(395,772,o),
(448,772,cs),
(498,772,o),
(540,736,o),
(540,662,cs),
(540,586,o),
(500,548,o),
(449,548,cs)
);
}
);
width = 896;
},
{
layerId = "4BF31C0D-0A66-4B39-96F9-ACB961E601E6";
shapes = (
{
closed = 1;
nodes = (
(379,-12,o),
(459,60,o),
(459,179,cs),
(459,296,o),
(379,370,o),
(251,370,cs),
(124,370,o),
(42,298,o),
(42,179,cs),
(42,61,o),
(121,-12,o),
(253,-12,cs)
);
},
{
closed = 1;
nodes = (
(207,92,o),
(177,121,o),
(177,178,cs),
(177,237,o),
(207,266,o),
(251,266,cs),
(292,266,o),
(324,238,o),
(324,179,cs),
(324,120,o),
(295,92,o),
(251,92,cs)
);
},
{
closed = 1;
nodes = (
(867,-12,o),
(947,60,o),
(947,179,cs),
(947,296,o),
(867,370,o),
(740,370,cs),
(613,370,o),
(530,298,o),
(530,179,cs),
(530,61,o),
(609,-12,o),
(742,-12,cs)
);
},
{
closed = 1;
nodes = (
(695,92,o),
(665,121,o),
(665,178,cs),
(665,237,o),
(695,266,o),
(739,266,cs),
(781,266,o),
(812,238,o),
(812,179,cs),
(812,120,o),
(783,92,o),
(740,92,cs)
);
},
{
closed = 1;
nodes = (
(623,469,o),
(703,542,o),
(703,660,cs),
(703,777,o),
(623,851,o),
(496,851,cs),
(369,851,o),
(286,779,o),
(286,660,cs),
(286,542,o),
(365,469,o),
(498,469,cs)
);
},
{
closed = 1;
nodes = (
(451,573,o),
(421,602,o),
(421,659,cs),
(421,718,o),
(451,747,o),
(495,747,cs),
(537,747,o),
(568,719,o),
(568,660,cs),
(568,601,o),
(539,573,o),
(496,573,cs)
);
}
);
width = 989;
},
{
layerId = "6732FEC1-CFA6-4586-B452-175C4A015291";
shapes = (
{
closed = 1;
nodes = (
(404,-12,o),
(493,61,o),
(493,186,cs),
(493,311,o),
(404,384,o),
(263,384,cs),
(122,384,o),
(33,311,o),
(33,186,cs),
(33,61,o),
(122,-12,o),
(263,-12,cs)
);
},
{
closed = 1;
nodes = (
(227,113,o),
(202,137,o),
(202,186,cs),
(202,235,o),
(226,259,o),
(263,259,cs),
(299,259,o),
(324,235,o),
(324,186,cs),
(324,137,o),
(299,113,o),
(263,113,cs)
);
},
{
closed = 1;
nodes = (
(912,-12,o),
(1001,61,o),
(1001,186,cs),
(1001,311,o),
(912,384,o),
(771,384,cs),
(630,384,o),
(541,311,o),
(541,186,cs),
(541,61,o),
(630,-12,o),
(771,-12,cs)
);
},
{
closed = 1;
nodes = (
(735,113,o),
(710,137,o),
(710,186,cs),
(710,235,o),
(734,259,o),
(771,259,cs),
(807,259,o),
(832,235,o),
(832,186,cs),
(832,137,o),
(807,113,o),
(771,113,cs)
);
},
{
closed = 1;
nodes = (
(658,455,o),
(747,528,o),
(747,653,cs),
(747,778,o),
(658,851,o),
(517,851,cs),
(376,851,o),
(287,778,o),
(287,653,cs),
(287,528,o),
(376,455,o),
(517,455,cs)
);
},
{
closed = 1;
nodes = (
(481,580,o),
(456,604,o),
(456,653,cs),
(456,702,o),
(480,726,o),
(517,726,cs),
(553,726,o),
(578,702,o),
(578,653,cs),
(578,604,o),
(553,580,o),
(517,580,cs)
);
}
);
width = 1034;
},
{
layerId = "960C9600-7588-48B9-A77D-42B729BBBC0C";
shapes = (
{
closed = 1;
nodes = (
(214,-12,o),
(266,33,o),
(266,162,cs),
(266,291,o),
(214,336,o),
(154,336,cs),
(94,336,o),
(42,291,o),
(42,162,cs),
(42,33,o),
(94,-12,o),
(154,-12,cs)
);
},
{
closed = 1;
nodes = (
(107,13,o),
(69,50,o),
(69,162,cs),
(69,274,o),
(107,311,o),
(154,311,cs),
(201,311,o),
(239,274,o),
(239,162,cs),
(239,50,o),
(201,13,o),
(154,13,cs)
);
},
{
closed = 1;
nodes = (
(514,-12,o),
(566,33,o),
(566,162,cs),
(566,291,o),
(514,336,o),
(454,336,cs),
(394,336,o),
(342,291,o),
(342,162,cs),
(342,33,o),
(394,-12,o),
(454,-12,cs)
);
},
{
closed = 1;
nodes = (
(407,13,o),
(369,50,o),
(369,162,cs),
(369,274,o),
(407,311,o),
(454,311,cs),
(501,311,o),
(539,274,o),
(539,162,cs),
(539,50,o),
(502,13,o),
(454,13,cs)
);
},
{
closed = 1;
nodes = (
(365,476,o),
(417,521,o),
(417,650,cs),
(417,779,o),
(365,824,o),
(305,824,cs),
(245,824,o),
(193,779,o),
(193,650,cs),
(193,521,o),
(245,476,o),
(305,476,cs)
);
},
{
closed = 1;
nodes = (
(258,501,o),
(220,538,o),
(220,650,cs),
(220,762,o),
(258,799,o),
(305,799,cs),
(352,799,o),
(390,762,o),
(390,650,cs),
(390,538,o),
(352,501,o),
(305,501,cs)
);
}
);
width = 608;
},
{
layerId = "AA356D29-EBA3-4BA7-B11E-09F9C5534C37";
shapes = (
{
closed = 1;
nodes = (
(258,-12,o),
(311,51,o),
(311,172,cs),
(311,292,o),
(261,355,o),
(174,355,cs),
(89,355,o),
(36,291,o),
(36,172,cs),
(36,52,o),
(84,-12,o),
(174,-12,cs)
);
},
{
closed = 1;
nodes = (
(137,55,o),
(111,89,o),
(111,171,cs),
(111,252,o),
(137,288,o),
(173,288,cs),
(209,288,o),
(236,256,o),
(236,173,cs),
(236,89,o),
(210,55,o),
(174,55,cs)
);
},
{
closed = 1;
nodes = (
(595,-12,o),
(646,51,o),
(646,172,cs),
(646,292,o),
(596,355,o),
(509,355,cs),
(424,355,o),
(371,291,o),
(371,172,cs),
(371,52,o),
(419,-12,o),
(509,-12,cs)
);
},
{
closed = 1;
nodes = (
(472,55,o),
(446,89,o),
(446,171,cs),
(446,252,o),
(472,288,o),
(508,288,cs),
(544,288,o),
(571,256,o),
(571,173,cs),
(571,89,o),
(545,55,o),
(509,55,cs)
);
},
{
closed = 1;
nodes = (
(427,476,o),
(478,540,o),
(478,659,cs),
(478,779,o),
(430,843,o),
(340,843,cs),
(256,843,o),
(203,780,o),
(203,659,cs),
(203,541,o),
(253,476,o),
(340,476,cs)
);
},
{
closed = 1;
nodes = (
(305,543,o),
(278,575,o),
(278,658,cs),
(278,742,o),
(304,776,o),
(340,776,cs),
(377,776,o),
(403,741,o),
(403,660,cs),
(403,579,o),
(377,543,o),
(341,543,cs)
);
}
);
width = 683;
},
{
layerId = "DB7E4487-AAA8-4905-9B27-B72FA6056893";
shapes = (
{
closed = 1;
nodes = (
(318,-12,o),
(387,56,o),
(387,186,cs),
(387,316,o),
(318,384,o),
(208,384,cs),
(97,384,o),
(29,316,o),
(29,186,cs),
(29,55,o),
(99,-12,o),
(207,-12,cs)
);
},
{
closed = 1;
nodes = (
(186,105,o),
(170,126,o),
(170,186,cs),
(170,246,o),
(184,267,o),
(208,267,cs),
(231,267,o),
(246,246,o),
(246,186,cs),
(246,126,o),
(230,105,o),
(208,105,cs)
);
},
{
closed = 1;
nodes = (
(707,-12,o),
(776,56,o),
(776,186,cs),
(776,316,o),
(707,384,o),
(596,384,cs),
(486,384,o),
(418,316,o),
(418,186,cs),
(418,55,o),
(488,-12,o),
(595,-12,cs)
);
},
{
closed = 1;
nodes = (
(575,105,o),
(559,126,o),
(559,186,cs),
(559,248,o),
(574,267,o),
(597,267,cs),
(620,267,o),
(635,246,o),
(635,186,cs),
(635,126,o),
(619,105,o),
(596,105,cs)
);
},
{
closed = 1;
nodes = (
(512,455,o),
(581,523,o),
(581,653,cs),
(581,783,o),
(512,851,o),
(401,851,cs),
(291,851,o),
(223,783,o),
(223,653,cs),
(223,522,o),
(293,455,o),
(401,455,cs)
);
},
{
closed = 1;
nodes = (
(380,572,o),
(364,593,o),
(364,653,cs),
(364,713,o),
(379,734,o),
(402,734,cs),
(425,734,o),
(440,713,o),
(440,653,cs),
(440,593,o),
(424,572,o),
(401,572,cs)
);
}
);
width = 805;
}
);
unicode = 2947;
},
{
glyphname = atamil;
lastChange = "2020-03-17 13:07:53 +0000";
layers = (
{
anchors = (
{
name = Anchor10;
pos = (529,-29);
},
{
name = Anchor8;
pos = (529,-29);
}
);
layerId = UUID0;
shapes = (
{
closed = 1;
nodes = (
(317,-96,ls),
(546,-96,o),
(703,-2,o),
(753,151,c),
(756,163,l),
(764,193,o),
(769,225,o),
(769,259,cs),
(769,441,o),
(664,558,o),
(488,558,cs),
(394,558,o),
(316,508,o),
(316,406,cs),
(316,315,o),
(367,265,o),
(452,265,cs),
(534,265,o),
(587,311,o),
(587,410,cs),
(587,463,o),
(565,515,o),
(528,544,c),
(494,542,l),
(540,512,o),
(560,461,o),
(560,407,cs),
(560,338,o),
(529,290,o),
(451,290,cs),
(370,290,o),
(343,344,o),
(343,406,cs),
(343,499,o),
(414,533,o),
(486,533,cs),
(500,533,o),
(514,532,o),
(527,531,cs),
(670,515,o),
(742,406,o),
(742,258,cs),
(742,224,o),
(737,192,o),
(728,163,c),
(725,150,l),
(673,6,o),
(518,-71,o),
(314,-71,cs),
(295,-71,ls),
(144,-71,o),
(53,-14,o),
(53,66,cs),
(53,91,o),
(62,111,o),
(79,124,cs),
(98,139,o),
(126,144,o),
(179,144,cs),
(958,144,l),
(951,169,l),
(183,169,ls),
(118,169,o),
(85,161,o),
(63,144,cs),
(40,126,o),
(27,100,o),
(27,68,cs),
(27,-30,o),
(126,-96,o),
(296,-96,cs)
);
},
{
closed = 1;
nodes = (
(964,-154,l),
(964,546,l),
(938,546,l),
(938,-154,l)
);
}
);
width = 1058;
},
{
anchors = (
{
name = Anchor10;
pos = (560,-29);
},
{
name = Anchor8;
pos = (560,-29);
}
);
layerId = "4900EB3E-CEE9-4F53-85D9-05D95ABCFDBA";
shapes = (
{
closed = 1;
nodes = (
(342,-124,l),
(565,-124,o),
(741,-36,o),
(798,128,c),
(804,150,l),
(812,182,o),
(816,216,o),
(816,252,cs),
(816,412,o),
(708,566,o),
(503,566,cs),
(399,566,o),
(300,517,o),
(300,393,cs),
(300,292,o),
(372,241,o),
(463,241,cs),
(568,241,o),
(626,302,o),
(626,396,cs),
(626,450,o),
(593,497,o),
(558,527,c),
(501,510,l),
(536,478,o),
(548,444,o),
(548,400,cs),
(548,341,o),
(515,309,o),
(465,309,cs),
(410,309,o),
(379,347,o),
(379,397,cs),
(379,464,o),
(430,497,o),
(493,497,cs),
(510,497,o),
(525,496,o),
(542,494,c),
(672,474,o),
(730,367,o),
(730,251,cs),
(730,216,o),
(725,182,o),
(713,149,c),
(709,130,l),
(661,26,o),
(545,-51,o),
(344,-51,cs),
(327,-51,ls),
(184,-51,o),
(114,-9,o),
(114,56,cs),
(114,71,o),
(120,83,o),
(129,90,cs),
(144,101,o),
(154,104,o),
(217,104,cs),
(956,104,l),
(953,176,l),
(206,176,ls),
(125,176,o),
(99,166,o),
(74,149,cs),
(43,128,o),
(29,93,o),
(29,60,cs),
(29,-48,o),
(127,-124,o),
(321,-124,cs)
);
},
{
closed = 1;
nodes = (
(1033,-154,l),
(1033,554,l),
(947,554,l),
(947,-154,l)
);
}
);
width = 1121;
},
{
anchors = (
{
name = Anchor10;
pos = (610,-29);
},
{
name = Anchor8;
pos = (610,-29);
}
);
layerId = "4BF31C0D-0A66-4B39-96F9-ACB961E601E6";
shapes = (
{
closed = 1;
nodes = (
(370,-141,l),
(628,-141,o),
(815,-40,o),
(875,128,c),
(875,164,l),
(880,190,o),
(884,218,o),
(884,247,cs),
(884,414,o),
(772,574,o),
(536,574,cs),
(398,574,o),
(292,519,o),
(292,392,cs),
(292,281,o),
(381,228,o),
(483,228,cs),
(621,228,o),
(673,301,o),
(673,394,cs),
(673,473,o),
(637,521,o),
(604,552,c),
(499,536,l),
(528,500,o),
(556,459,o),
(556,408,cs),
(556,349,o),
(526,331,o),
(492,331,cs),
(451,331,o),
(427,357,o),
(427,398,cs),
(427,458,o),
(477,473,o),
(533,473,cs),
(548,473,o),
(565,472,o),
(580,470,c),
(696,449,o),
(741,356,o),
(741,244,cs),
(741,221,o),
(740,194,o),
(733,169,c),
(730,141,l),
(688,42,o),
(583,-34,o),
(381,-34,cs),
(369,-34,ls),
(230,-34,o),
(169,-1,o),
(169,49,cs),
(169,61,o),
(173,68,o),
(180,75,cs),
(189,83,o),
(205,86,o),
(238,86,cs),
(999,86,l),
(1000,192,l),
(227,192,ls),
(145,192,o),
(103,183,o),
(75,163,cs),
(39,138,o),
(25,101,o),
(25,63,cs),
(25,-57,o),
(141,-141,o),
(352,-141,cs)
);
},
{
closed = 1;
nodes = (
(1140,-154,l),
(1140,562,l),
(991,562,l),
(991,-154,l)
);
}
);
width = 1220;
},
{
anchors = (
{
name = Anchor10;
pos = (638,-29);
},
{
name = Anchor8;
pos = (638,-29);
}
);
layerId = "6732FEC1-CFA6-4586-B452-175C4A015291";
shapes = (
{
closed = 1;
nodes = (
(397,-152,ls),
(674,-152,o),
(853,-56,o),
(927,125,c),
(927,168,l),
(930,190,o),
(933,214,o),
(933,239,cs),
(933,421,o),
(812,581,o),
(550,581,cs),
(399,581,o),
(287,522,o),
(287,395,cs),
(287,275,o),
(386,222,o),
(494,222,cs),
(667,222,o),
(697,311,o),
(697,382,cs),
(697,465,o),
(659,524,o),
(613,568,c),
(498,529,l),
(535,491,o),
(564,454,o),
(564,407,cs),
(564,360,o),
(539,346,o),
(509,346,cs),
(475,346,o),
(456,366,o),
(456,399,cs),
(456,448,o),
(501,461,o),
(556,461,cs),
(574,461,o),
(592,460,o),
(606,458,c),
(715,440,o),
(753,344,o),
(753,234,cs),
(753,219,o),
(751,197,o),
(748,177,c),
(749,143,l),
(711,48,o),
(611,-22,o),
(397,-22,cs),
(389,-22,ls),
(261,-22,o),
(206,4,o),
(206,44,cs),
(206,54,o),
(209,62,o),
(218,67,cs),
(227,72,o),
(234,72,o),
(252,72,cs),
(1037,72,l),
(1041,200,l),
(249,200,ls),
(168,200,o),
(119,197,o),
(76,171,cs),
(44,151,o),
(22,119,o),
(22,65,cs),
(22,-63,o),
(146,-152,o),
(377,-152,cs)
);
},
{
closed = 1;
nodes = (
(1209,-154,l),
(1209,569,l),
(1019,569,l),
(1019,-154,l)
);
}
);
width = 1277;
},
{
anchors = (
{
name = Anchor10;
pos = (387,-29);
},
{
name = Anchor8;
pos = (387,-29);
}
);
layerId = "960C9600-7588-48B9-A77D-42B729BBBC0C";
shapes = (
{
closed = 1;
nodes = (
(235,-96,ls),
(392,-96,o),
(506,-8,o),
(540,151,c),
(543,163,l),
(549,193,o),
(553,225,o),
(553,259,cs),
(553,455,o),
(477,558,o),
(356,558,cs),
(277,558,o),
(212,511,o),
(212,405,cs),
(212,314,o),
(249,265,o),
(315,265,cs),
(373,265,o),
(415,304,o),
(415,403,cs),
(415,459,o),
(397,510,o),
(365,544,c),
(336,542,l),
(367,512,o),
(389,458,o),
(389,402,cs),
(389,329,o),
(367,290,o),
(314,290,cs),
(259,290,o),
(239,338,o),
(239,405,cs),
(239,500,o),
(295,533,o),
(346,533,cs),
(356,533,o),
(363,533,o),
(370,533,c),
(482,522,o),
(526,406,o),
(526,260,cs),
(526,224,o),
(522,192,o),
(516,163,c),
(513,150,l),
(478,0,o),
(371,-71,o),
(234,-71,cs),
(228,-71,ls),
(114,-71,o),
(52,-14,o),
(52,66,cs),
(52,93,o),
(60,114,o),
(77,127,cs),
(92,139,o),
(113,144,o),
(163,144,cs),
(691,144,l),
(686,169,l),
(160,169,ls),
(103,169,o),
(75,160,o),
(54,141,cs),
(33,122,o),
(25,95,o),
(25,68,cs),
(25,-30,o),
(102,-96,o),
(228,-96,cs)
);
},
{
closed = 1;
nodes = (
(702,-154,l),
(702,546,l),
(676,546,l),
(676,-154,l)
);
}
);
width = 775;
},
{
anchors = (
{
name = Anchor10;
pos = (421,-29);
},
{
name = Anchor8;
pos = (421,-29);
}
);
layerId = "AA356D29-EBA3-4BA7-B11E-09F9C5534C37";
shapes = (
{
closed = 1;
nodes = (
(269,-120,ls),
(439,-120,o),
(560,-24,o),
(595,130,c),
(599,152,l),
(604,184,o),
(607,218,o),
(607,253,cs),
(607,421,o),
(531,566,o),
(382,566,cs),
(285,566,o),
(212,511,o),
(212,395,cs),
(212,292,o),
(270,245,o),
(340,245,cs),
(423,245,o),
(466,300,o),
(466,388,cs),
(466,451,o),
(442,487,o),
(409,527,c),
(358,511,l),
(380,487,o),
(398,447,o),
(398,396,cs),
(398,328,o),
(374,309,o),
(344,309,cs),
(306,309,o),
(284,339,o),
(284,398,cs),
(284,469,o),
(322,502,o),
(367,502,cs),
(379,502,o),
(395,501,o),
(406,499,c),
(495,478,o),
(531,378,o),
(531,253,cs),
(531,217,o),
(528,183,o),
(521,150,c),
(520,131,l),
(491,29,o),
(413,-52,o),
(265,-52,cs),
(258,-52,ls),
(157,-52,o),
(101,-8,o),
(101,56,cs),
(101,74,o),
(106,87,o),
(117,96,cs),
(127,104,o),
(137,108,o),
(184,108,cs),
(700,108,l),
(700,175,l),
(187,175,ls),
(120,175,o),
(92,168,o),
(66,151,cs),
(39,133,o),
(23,104,o),
(23,60,cs),
(23,-46,o),
(104,-120,o),
(258,-120,cs)
);
},
{
closed = 1;
nodes = (
(775,-154,l),
(775,554,l),
(696,554,l),
(696,-154,l)
);
}
);
width = 843;
},
{
anchors = (
{
name = Anchor10;
pos = (493,-29);
},
{
name = Anchor8;
pos = (493,-29);
}
);
layerId = "DB7E4487-AAA8-4905-9B27-B72FA6056893";
shapes = (
{
closed = 1;
nodes = (
(323,-146,ls),
(538,-146,o),
(661,-49,o),
(706,109,c),
(715,164,l),
(718,188,o),
(720,215,o),
(720,242,cs),
(720,433,o),
(629,581,o),
(426,581,cs),
(299,581,o),
(204,520,o),
(204,395,cs),
(204,282,o),
(273,229,o),
(374,229,cs),
(497,229,o),
(530,295,o),
(530,377,cs),
(530,445,o),
(487,525,o),
(446,568,c),
(356,529,l),
(397,494,o),
(417,446,o),
(417,400,cs),
(417,360,o),
(404,346,o),
(380,346,cs),
(357,346,o),
(344,363,o),
(344,398,cs),
(344,449,o),
(380,468,o),
(420,468,cs),
(439,468,o),
(452,467,o),
(462,465,c),
(545,446,o),
(570,349,o),
(570,237,cs),
(570,213,o),
(569,190,o),
(566,168,c),
(557,119,l),
(526,35,o),
(456,-22,o),
(315,-22,cs),
(311,-22,ls),
(222,-22,o),
(179,6,o),
(179,48,cs),
(179,58,o),
(183,66,o),
(190,71,cs),
(198,77,o),
(207,78,o),
(235,78,cs),
(793,78,l),
(798,200,l),
(229,200,ls),
(157,200,o),
(116,195,o),
(81,175,cs),
(44,154,o),
(23,119,o),
(23,67,cs),
(23,-56,o),
(120,-146,o),
(314,-146,cs)
);
},
{
closed = 1;
nodes = (
(934,-154,l),
(934,569,l),
(773,569,l),
(773,-154,l)
);
}
);
width = 987;
}
);
unicode = 2949;
},
{
glyphname = aatamil;
lastChange = "2020-03-17 13:07:53 +0000";
layers = (
{
anchors = (
{
name = Anchor10;
pos = (614,-29);
},
{
name = Anchor8;
pos = (614,-29);
}
);
layerId = UUID0;
shapes = (
{
closed = 1;
nodes = (
(317,-96,ls),
(546,-96,o),
(703,-2,o),
(753,151,c),
(756,163,ls),
(764,193,o),
(769,225,o),
(769,259,cs),
(769,441,o),
(664,558,o),
(488,558,cs),
(394,558,o),
(316,508,o),
(316,406,cs),
(316,315,o),
(367,265,o),
(452,265,cs),
(534,265,o),
(587,311,o),
(587,410,cs),
(587,463,o),
(565,515,o),
(528,544,c),
(494,542,l),
(540,512,o),
(560,461,o),
(560,407,cs),
(560,338,o),
(529,290,o),
(451,290,cs),
(370,290,o),
(343,344,o),
(343,406,cs),
(343,499,o),
(414,533,o),
(486,533,cs),
(500,533,o),
(514,532,o),
(527,531,cs),
(670,515,o),
(742,406,o),
(742,258,cs),
(742,224,o),
(737,192,o),
(728,163,c),
(725,150,l),
(673,6,o),
(518,-71,o),
(314,-71,cs),
(295,-71,ls),
(144,-71,o),
(53,-14,o),
(53,66,cs),
(53,91,o),
(62,111,o),
(79,124,cs),
(98,139,o),
(126,144,o),
(179,144,cs),
(958,144,l),
(951,169,l),
(183,169,ls),
(118,169,o),
(85,161,o),
(63,144,cs),
(40,126,o),
(27,100,o),
(27,68,cs),
(27,-30,o),
(126,-96,o),
(296,-96,cs)
);
},
{
closed = 1;
nodes = (
(876,-321,ls),
(1081,-321,o),
(1225,-228,o),
(1225,-74,cs),
(1225,26,o),
(1164,82,o),
(1078,82,cs),
(1026,82,o),
(985,56,o),
(951,28,c),
(959,5,l),
(995,35,o),
(1030,57,o),
(1077,57,cs),
(1150,57,o),
(1198,12,o),
(1198,-72,cs),
(1198,-214,o),
(1068,-296,o),
(876,-296,cs),
(873,-296,ls),
(706,-296,o),
(643,-235,o),
(643,-168,cs),
(643,-115,o),
(675,-83,o),
(736,-83,cs),
(773,-83,o),
(798,-89,o),
(829,-101,c),
(835,-76,l),
(802,-64,o),
(770,-58,o),
(735,-58,cs),
(659,-58,o),
(616,-104,o),
(616,-167,cs),
(616,-256,o),
(701,-321,o),
(872,-321,cs)
);
},
{
closed = 1;
nodes = (
(964,-124,l),
(964,546,l),
(938,546,l),
(938,-124,l)
);
}
);
width = 1229;
},
{
anchors = (
{
name = Anchor10;
pos = (657,-29);
},
{
name = Anchor8;
pos = (657,-29);
}
);
layerId = "4900EB3E-CEE9-4F53-85D9-05D95ABCFDBA";
shapes = (
{
closed = 1;
nodes = (
(342,-124,ls),
(565,-124,o),
(741,-36,o),
(798,128,c),
(804,150,l),
(812,182,o),
(816,216,o),
(816,252,cs),
(816,412,o),
(708,566,o),
(503,566,cs),
(399,566,o),
(300,517,o),
(300,393,cs),
(300,292,o),
(372,241,o),
(463,241,cs),
(568,241,o),
(626,302,o),
(626,396,cs),
(626,450,o),
(593,497,o),
(558,527,c),
(501,510,l),
(536,478,o),
(548,444,o),
(548,400,cs),
(548,341,o),
(515,309,o),
(465,309,cs),
(410,309,o),
(379,347,o),
(379,397,cs),
(379,464,o),
(430,497,o),
(493,497,cs),
(510,497,o),
(525,496,o),
(542,494,cs),
(672,474,o),
(730,367,o),
(730,251,cs),
(730,216,o),
(725,182,o),
(713,149,c),
(709,130,l),
(661,26,o),
(545,-51,o),
(344,-51,cs),
(327,-51,ls),
(184,-51,o),
(114,-9,o),
(114,56,cs),
(114,71,o),
(120,83,o),
(129,90,cs),
(144,101,o),
(154,104,o),
(217,104,cs),
(956,104,l),
(953,176,l),
(206,176,ls),
(125,176,o),
(99,166,o),
(74,149,cs),
(43,128,o),
(29,93,o),
(29,60,cs),
(29,-48,o),
(127,-124,o),
(321,-124,cs)
);
},
{
closed = 1;
nodes = (
(928,-321,ls),
(1164,-321,o),
(1309,-218,o),
(1309,-65,cs),
(1309,47,o),
(1227,100,o),
(1145,100,cs),
(1094,100,o),
(1059,86,o),
(1033,70,c),
(1033,1,l),
(1056,18,o),
(1088,31,o),
(1131,31,cs),
(1190,31,o),
(1225,-5,o),
(1225,-63,cs),
(1225,-182,o),
(1104,-249,o),
(933,-249,cs),
(926,-249,ls),
(774,-249,o),
(725,-205,o),
(725,-157,cs),
(725,-126,o),
(749,-110,o),
(790,-110,cs),
(817,-110,o),
(848,-118,o),
(877,-127,c),
(891,-62,l),
(857,-49,o),
(819,-41,o),
(784,-41,cs),
(691,-41,o),
(648,-97,o),
(648,-154,cs),
(648,-261,o),
(749,-321,o),
(922,-321,cs)
);
},
{
closed = 1;
nodes = (
(1033,-124,l),
(1033,554,l),
(947,554,l),
(947,-124,l)
);
}
);
width = 1313;
},
{
anchors = (
{
name = Anchor10;
pos = (723,-29);
},
{
name = Anchor8;
pos = (723,-29);
}
);
layerId = "4BF31C0D-0A66-4B39-96F9-ACB961E601E6";
shapes = (
{
closed = 1;
nodes = (
(370,-141,ls),
(628,-141,o),
(815,-40,o),
(875,128,c),
(875,164,l),
(880,190,o),
(884,218,o),
(884,247,cs),
(884,414,o),
(772,574,o),
(536,574,cs),
(398,574,o),
(292,519,o),
(292,392,cs),
(292,281,o),
(381,228,o),
(483,228,cs),
(621,228,o),
(673,301,o),
(673,394,cs),
(673,473,o),
(637,521,o),
(604,552,c),
(499,536,l),
(528,500,o),
(556,459,o),
(556,408,cs),
(556,349,o),
(526,331,o),
(492,331,cs),
(451,331,o),
(427,357,o),
(427,398,cs),
(427,458,o),
(477,473,o),
(533,473,cs),
(548,473,o),
(565,472,o),
(580,470,c),
(696,449,o),
(741,356,o),
(741,244,cs),
(741,221,o),
(740,194,o),
(733,169,c),
(730,141,l),
(688,42,o),
(583,-34,o),
(381,-34,cs),
(369,-34,ls),
(230,-34,o),
(169,-1,o),
(169,49,cs),
(169,61,o),
(173,68,o),
(180,75,cs),
(189,83,o),
(205,86,o),
(238,86,cs),
(999,86,l),
(1000,192,l),
(227,192,ls),
(145,192,o),
(103,183,o),
(75,163,cs),
(39,138,o),
(25,101,o),
(25,63,cs),
(25,-57,o),
(141,-141,o),
(352,-141,cs)
);
},
{
closed = 1;
nodes = (
(1018,-321,ls),
(1293,-321,o),
(1443,-214,o),
(1443,-55,cs),
(1443,62,o),
(1350,118,o),
(1257,118,cs),
(1187,118,o),
(1146,101,o),
(1113,82,c),
(1113,-21,l),
(1136,-4,o),
(1174,14,o),
(1216,14,cs),
(1272,14,o),
(1301,-15,o),
(1301,-63,cs),
(1301,-161,o),
(1190,-215,o),
(1024,-215,cs),
(1018,-215,ls),
(871,-215,o),
(831,-188,o),
(831,-157,cs),
(831,-137,o),
(847,-127,o),
(880,-127,cs),
(903,-127,o),
(922,-131,o),
(943,-137,c),
(960,-42,l),
(923,-30,o),
(888,-24,o),
(853,-24,cs),
(754,-24,o),
(697,-88,o),
(697,-149,cs),
(697,-258,o),
(803,-321,o),
(1000,-321,cs)
);
},
{
closed = 1;
nodes = (
(1140,-124,l),
(1140,562,l),
(991,562,l),
(991,-124,l)
);
}
);
width = 1446;
},
{
anchors = (
{
name = Anchor10;
pos = (766,-29);
},
{
name = Anchor8;
pos = (766,-29);
}
);
layerId = "6732FEC1-CFA6-4586-B452-175C4A015291";
shapes = (
{
closed = 1;
nodes = (
(397,-152,ls),
(674,-152,o),
(851,-46,o),
(927,129,c),
(927,168,l),
(930,190,o),
(933,214,o),
(933,239,cs),
(933,421,o),
(812,581,o),
(550,581,cs),
(399,581,o),
(287,522,o),
(287,395,cs),
(287,275,o),
(386,222,o),
(494,222,cs),
(667,222,o),
(697,311,o),
(697,382,cs),
(697,465,o),
(659,524,o),
(613,568,c),
(498,529,l),
(535,491,o),
(564,454,o),
(564,407,cs),
(564,360,o),
(539,346,o),
(509,346,cs),
(475,346,o),
(456,366,o),
(456,399,cs),
(456,448,o),
(501,461,o),
(556,461,cs),
(574,461,o),
(592,460,o),
(606,458,cs),
(715,440,o),
(753,344,o),
(753,234,cs),
(753,219,o),
(751,197,o),
(748,177,c),
(749,143,l),
(711,48,o),
(611,-22,o),
(397,-22,cs),
(389,-22,ls),
(261,-22,o),
(206,4,o),
(206,44,cs),
(206,54,o),
(209,62,o),
(218,67,cs),
(227,72,o),
(234,72,o),
(252,72,cs),
(1037,72,l),
(1041,200,l),
(249,200,ls),
(168,200,o),
(119,197,o),
(76,171,cs),
(44,151,o),
(22,119,o),
(22,65,cs),
(22,-63,o),
(146,-152,o),
(377,-152,cs)
);
},
{
closed = 1;
nodes = (
(1086,-321,ls),
(1377,-321,o),
(1531,-206,o),
(1531,-48,cs),
(1531,72,o),
(1437,130,o),
(1319,130,cs),
(1248,130,o),
(1203,109,o),
(1166,88,c),
(1175,-35,l),
(1206,-12,o),
(1236,4,o),
(1279,4,cs),
(1325,4,o),
(1350,-18,o),
(1350,-58,cs),
(1350,-147,o),
(1234,-194,o),
(1085,-194,cs),
(1080,-194,ls),
(936,-194,o),
(901,-177,o),
(901,-155,cs),
(901,-144,o),
(913,-137,o),
(930,-137,cs),
(952,-137,o),
(972,-142,o),
(987,-146,c),
(1007,-33,l),
(978,-24,o),
(947,-19,o),
(902,-19,cs),
(802,-19,o),
(741,-76,o),
(741,-149,cs),
(741,-256,o),
(831,-321,o),
(1045,-321,cs)
);
},
{
closed = 1;
nodes = (
(1209,-124,l),
(1209,569,l),
(1019,569,l),
(1019,-124,l)
);
}
);
width = 1532;
},
{
anchors = (
{
name = Anchor10;
pos = (451,-29);
},
{
name = Anchor8;
pos = (451,-29);
}
);
layerId = "960C9600-7588-48B9-A77D-42B729BBBC0C";
shapes = (
{
closed = 1;
nodes = (
(235,-96,ls),
(392,-96,o),
(506,-8,o),
(540,151,cs),
(543,163,ls),
(549,193,o),
(553,225,o),
(553,259,cs),
(553,455,o),
(477,558,o),
(356,558,cs),
(277,558,o),
(212,511,o),
(212,405,cs),
(212,314,o),
(249,265,o),
(315,265,cs),
(373,265,o),
(415,304,o),
(415,403,cs),
(415,459,o),
(397,510,o),
(365,544,c),
(336,542,l),
(367,512,o),
(389,458,o),
(389,402,cs),
(389,329,o),
(367,290,o),
(314,290,cs),
(259,290,o),
(239,338,o),
(239,405,cs),
(239,500,o),
(295,533,o),
(346,533,cs),
(356,533,o),
(363,533,o),
(370,533,c),
(482,522,o),
(526,406,o),
(526,260,cs),
(526,224,o),
(522,192,o),
(516,163,cs),
(513,150,ls),
(478,0,o),
(371,-71,o),
(234,-71,cs),
(228,-71,ls),
(114,-71,o),
(52,-14,o),
(52,66,cs),
(52,93,o),
(60,114,o),
(77,127,cs),
(92,139,o),
(113,144,o),
(163,144,cs),
(691,144,l),
(686,169,l),
(160,169,ls),
(103,169,o),
(75,160,o),
(54,141,cs),
(33,122,o),
(25,95,o),
(25,68,cs),
(25,-30,o),
(102,-96,o),
(228,-96,cs)
);
},
{
closed = 1;
nodes = (
(620,-321,ls),
(771,-321,o),
(899,-228,o),
(899,-73,cs),
(899,26,o),
(850,82,o),
(777,82,cs),
(739,82,o),
(708,66,o),
(684,47,c),
(690,25,l),
(717,47,o),
(750,57,o),
(778,57,cs),
(834,57,o),
(872,12,o),
(872,-73,cs),
(872,-214,o),
(756,-296,o),
(621,-296,cs),
(618,-296,ls),
(501,-296,o),
(460,-241,o),
(460,-173,cs),
(460,-119,o),
(497,-83,o),
(548,-83,cs),
(568,-83,o),
(587,-85,o),
(602,-91,c),
(609,-66,l),
(589,-60,o),
(572,-58,o),
(547,-58,cs),
(490,-58,o),
(433,-98,o),
(433,-173,cs),
(433,-262,o),
(496,-321,o),
(616,-321,cs)
);
},
{
closed = 1;
nodes = (
(702,-124,l),
(702,546,l),
(676,546,l),
(676,-124,l)
);
}
);
width = 902;
},
{
anchors = (
{
name = Anchor10;
pos = (493,-29);
},
{
name = Anchor8;
pos = (493,-29);
}
);
layerId = "AA356D29-EBA3-4BA7-B11E-09F9C5534C37";
shapes = (
{
closed = 1;
nodes = (
(269,-120,ls),
(439,-120,o),
(560,-24,o),
(595,130,c),
(599,152,l),
(604,184,o),
(607,218,o),
(607,253,cs),
(607,421,o),
(531,566,o),
(382,566,cs),
(285,566,o),
(212,511,o),
(212,395,cs),
(212,292,o),
(270,245,o),
(340,245,cs),
(423,245,o),
(466,300,o),
(466,388,cs),
(466,451,o),
(442,487,o),
(409,527,c),
(358,511,l),
(380,487,o),
(398,447,o),
(398,396,cs),
(398,328,o),
(374,309,o),
(344,309,cs),
(306,309,o),
(284,339,o),
(284,398,cs),
(284,469,o),
(322,502,o),
(367,502,cs),
(379,502,o),
(395,501,o),
(406,499,c),
(495,478,o),
(531,378,o),
(531,253,cs),
(531,217,o),
(528,183,o),
(521,150,c),
(520,131,l),
(491,29,o),
(413,-52,o),
(265,-52,cs),
(258,-52,ls),
(157,-52,o),
(101,-8,o),
(101,56,cs),
(101,74,o),
(106,87,o),
(117,96,cs),
(127,104,o),
(137,108,o),
(184,108,cs),
(700,108,l),
(700,175,l),
(187,175,ls),
(120,175,o),
(92,168,o),
(66,151,cs),
(39,133,o),
(23,104,o),
(23,60,cs),
(23,-46,o),
(104,-120,o),
(258,-120,cs)
);
},
{
closed = 1;
nodes = (
(692,-321,ls),
(867,-321,o),
(984,-226,o),
(984,-59,cs),
(984,53,o),
(919,99,o),
(843,99,cs),
(804,99,o),
(777,84,o),
(756,69,c),
(761,4,l),
(780,20,o),
(803,32,o),
(831,32,cs),
(880,32,o),
(906,-2,o),
(906,-67,cs),
(906,-188,o),
(826,-254,o),
(680,-254,cs),
(673,-254,ls),
(577,-254,o),
(544,-210,o),
(544,-167,cs),
(544,-131,o),
(570,-110,o),
(599,-110,cs),
(618,-110,o),
(638,-113,o),
(653,-118,c),
(669,-53,l),
(649,-46,o),
(618,-43,o),
(599,-43,cs),
(509,-43,o),
(470,-102,o),
(470,-168,cs),
(470,-263,o),
(546,-321,o),
(672,-321,cs)
);
},
{
closed = 1;
nodes = (
(775,-121,l),
(775,554,l),
(696,554,l),
(696,-121,l)
);
}
);
width = 987;
},
{
anchors = (
{
name = Anchor10;
pos = (588,-29);
},
{
name = Anchor8;
pos = (588,-29);
}
);
layerId = "DB7E4487-AAA8-4905-9B27-B72FA6056893";
shapes = (
{
closed = 1;
nodes = (
(323,-146,ls),
(533,-146,o),
(658,-35,o),
(706,109,c),
(715,164,l),
(718,188,o),
(720,215,o),
(720,242,cs),
(720,433,o),
(629,581,o),
(426,581,cs),
(299,581,o),
(204,520,o),
(204,395,cs),
(204,282,o),
(273,229,o),
(374,229,cs),
(497,229,o),
(530,295,o),
(530,377,cs),
(530,445,o),
(487,525,o),
(446,568,c),
(356,529,l),
(397,494,o),
(417,446,o),
(417,400,cs),
(417,360,o),
(404,346,o),
(380,346,cs),
(357,346,o),
(344,363,o),
(344,398,cs),
(344,449,o),
(380,468,o),
(420,468,cs),
(439,468,o),
(452,467,o),
(462,465,cs),
(545,446,o),
(570,349,o),
(570,237,cs),
(570,213,o),
(569,190,o),
(566,168,c),
(557,119,l),
(526,35,o),
(456,-22,o),
(315,-22,cs),
(311,-22,ls),
(222,-22,o),
(179,6,o),
(179,48,cs),
(179,58,o),
(183,66,o),
(190,71,cs),
(198,77,o),
(207,78,o),
(235,78,cs),
(790,78,l),
(795,200,l),
(229,200,ls),
(157,200,o),
(116,195,o),
(81,175,cs),
(44,154,o),
(23,119,o),
(23,67,cs),
(23,-56,o),
(120,-146,o),
(314,-146,cs)
);
},
{
closed = 1;
nodes = (
(808,-321,ls),
(1047,-321,o),
(1175,-216,o),
(1175,-51,cs),
(1175,72,o),
(1106,130,o),
(998,130,cs),
(950,130,o),
(910,114,o),
(877,93,c),
(897,-19,l),
(921,0,o),
(949,10,o),
(965,10,cs),
(1004,10,o),
(1023,-12,o),
(1023,-57,cs),
(1023,-147,o),
(936,-201,o),
(813,-201,cs),
(806,-201,ls),
(701,-201,o),
(693,-178,o),
(693,-159,cs),
(693,-145,o),
(703,-137,o),
(722,-137,cs),
(730,-137,o),
(741,-138,o),
(747,-139,c),
(761,-33,l),
(745,-29,o),
(726,-27,o),
(708,-27,cs),
(619,-27,o),
(560,-78,o),
(560,-154,cs),
(560,-256,o),
(629,-321,o),
(799,-321,cs)
);
},
{
closed = 1;
nodes = (
(934,-124,l),
(934,569,l),
(773,569,l),
(773,-124,l)
);
}
);
width = 1176;
}
);
unicode = 2950;
},
{
glyphname = itamil;
lastChange = "2020-03-17 13:07:53 +0000";
layers = (
{
anchors = (
{
name = Anchor10;
pos = (534,-29);
}
);
layerId = UUID0;
shapes = (
{
closed = 1;
nodes = (
(317,-321,o),
(391,-299,o),
(460,-259,c),
(575,-192,o),
(667,-79,o),
(711,58,c),
(731,118,o),
(744,183,o),
(744,249,cs),
(744,421,o),
(650,558,o),
(477,558,cs),
(369,558,o),
(288,506,o),
(288,404,cs),
(288,312,o),
(339,263,o),
(424,263,cs),
(506,263,o),
(559,309,o),
(559,408,cs),
(559,461,o),
(537,515,o),
(500,544,c),
(466,542,l),
(512,512,o),
(532,459,o),
(532,405,cs),
(532,336,o),
(501,288,o),
(423,288,cs),
(342,288,o),
(315,342,o),
(315,404,cs),
(315,497,o),
(390,533,o),
(481,533,cs),
(486,533,o),
(490,533,o),
(495,533,c),
(505,532,l),
(624,520,o),
(717,421,o),
(717,248,cs),
(717,189,o),
(707,128,o),
(688,70,c),
(645,-60,o),
(556,-178,o),
(438,-243,c),
(378,-276,o),
(313,-296,o),
(238,-296,cs),
(135,-296,o),
(77,-245,o),
(77,-140,cs),
(77,-62,o),
(117,-5,o),
(177,35,c),
(252,85,o),
(357,106,o),
(448,106,cs),
(531,106,o),
(623,89,o),
(695,51,c),
(770,11,o),
(823,-52,o),
(823,-140,cs),
(823,-243,o),
(765,-296,o),
(662,-296,cs),
(589,-296,o),
(521,-276,o),
(457,-242,c),
(341,-180,o),
(243,-71,o),
(181,56,c),
(130,157,o),
(104,260,o),
(104,375,cs),
(104,636,o),
(285,814,o),
(533,814,cs),
(654,814,o),
(744,779,o),
(808,720,cs),
(909,627,o),
(948,481,o),
(948,294,cs),
(948,0,l),
(974,0,l),
(974,312,ls),
(974,494,o),
(931,642,o),
(828,737,cs),
(759,801,o),
(663,839,o),
(534,839,cs),
(246,839,o),
(77,625,o),
(77,375,cs),
(77,251,o),
(106,145,o),
(160,42,c),
(223,-87,o),
(315,-191,o),
(438,-259,c),
(509,-298,o),
(585,-321,o),
(663,-321,cs),
(785,-321,o),
(850,-253,o),
(850,-140,cs),
(850,-39,o),
(788,31,o),
(704,74,c),
(628,114,o),
(533,131,o),
(449,131,cs),
(354,131,o),
(247,110,o),
(166,57,c),
(97,13,o),
(50,-51,o),
(50,-140,cs),
(50,-260,o),
(119,-321,o),
(239,-321,cs)
);
}
);
width = 1066;
},
{
anchors = (
{
name = Anchor10;
pos = (563,-29);
}
);
layerId = "4900EB3E-CEE9-4F53-85D9-05D95ABCFDBA";
shapes = (
{
closed = 1;
nodes = (
(347,-321,o),
(435,-295,o),
(520,-249,c),
(628,-187,o),
(714,-87,o),
(759,35,c),
(792,111,o),
(802,195,o),
(802,254,cs),
(802,441,o),
(705,566,o),
(513,566,cs),
(386,566,o),
(289,512,o),
(289,398,cs),
(289,305,o),
(362,244,o),
(452,244,cs),
(557,244,o),
(615,305,o),
(615,392,cs),
(615,440,o),
(594,481,o),
(567,510,c),
(487,515,l),
(521,479,o),
(537,444,o),
(537,402,cs),
(537,344,o),
(503,312,o),
(454,312,cs),
(399,312,o),
(368,349,o),
(368,399,cs),
(368,465,o),
(423,497,o),
(495,497,cs),
(507,497,o),
(520,496,o),
(530,495,c),
(580,490,l),
(648,468,o),
(715,394,o),
(715,250,cs),
(715,193,o),
(706,137,o),
(688,83,c),
(655,-32,o),
(554,-158,o),
(431,-214,c),
(379,-243,o),
(327,-249,o),
(268,-249,cs),
(173,-249,o),
(134,-201,o),
(134,-128,cs),
(134,-75,o),
(161,-23,o),
(220,16,c),
(276,53,o),
(363,79,o),
(481,79,cs),
(565,79,o),
(649,64,o),
(713,31,cs),
(778,-3,o),
(824,-61,o),
(824,-129,cs),
(824,-200,o),
(787,-249,o),
(689,-249,cs),
(621,-249,o),
(563,-238,o),
(506,-206,c),
(386,-143,o),
(286,-31,o),
(241,67,c),
(190,165,o),
(162,251,o),
(162,375,cs),
(162,630,o),
(342,768,o),
(567,768,cs),
(694,768,o),
(780,736,o),
(843,671,cs),
(920,591,o),
(952,463,o),
(952,272,cs),
(952,0,l),
(1038,0,l),
(1038,322,ls),
(1038,503,o),
(1001,617,o),
(925,707,cs),
(848,798,o),
(731,843,o),
(567,843,cs),
(232,843,o),
(76,611,o),
(76,379,cs),
(76,249,o),
(110,140,o),
(171,30,c),
(229,-80,o),
(329,-194,o),
(433,-243,c),
(516,-295,o),
(605,-321,o),
(698,-321,cs),
(835,-321,o),
(910,-250,o),
(910,-134,cs),
(910,-44,o),
(854,46,o),
(740,100,cs),
(673,132,o),
(586,151,o),
(479,151,cs),
(368,151,o),
(262,127,o),
(183,81,cs),
(102,33,o),
(49,-39,o),
(49,-134,cs),
(49,-250,o),
(126,-321,o),
(256,-321,cs)
);
}
);
width = 1126;
},
{
anchors = (
{
name = Anchor10;
pos = (615,-29);
}
);
layerId = "4BF31C0D-0A66-4B39-96F9-ACB961E601E6";
shapes = (
{
closed = 1;
nodes = (
(396,-321,o),
(502,-290,o),
(593,-242,c),
(708,-186,o),
(797,-78,o),
(839,36,c),
(866,103,o),
(879,168,o),
(879,253,cs),
(879,440,o),
(770,573,o),
(552,573,cs),
(419,573,o),
(311,518,o),
(311,395,cs),
(311,284,o),
(397,228,o),
(498,228,cs),
(630,228,o),
(688,310,o),
(688,395,cs),
(688,442,o),
(657,486,o),
(632,508,c),
(513,535,l),
(543,499,o),
(570,456,o),
(570,407,cs),
(570,348,o),
(542,331,o),
(508,331,cs),
(467,331,o),
(444,358,o),
(444,399,cs),
(444,459,o),
(492,472,o),
(545,472,cs),
(567,472,o),
(573,471,o),
(591,469,c),
(609,472,l),
(702,448,o),
(738,351,o),
(738,250,cs),
(738,193,o),
(729,139,o),
(714,91,cs),
(669,-48,o),
(567,-147,o),
(441,-191,cs),
(394,-207,o),
(344,-214,o),
(293,-214,cs),
(200,-214,o),
(163,-175,o),
(163,-113,cs),
(163,-63,o),
(192,-22,o),
(245,8,cs),
(307,42,o),
(401,61,o),
(517,61,cs),
(598,61,o),
(692,49,o),
(762,17,cs),
(824,-11,o),
(867,-54,o),
(867,-114,cs),
(867,-174,o),
(831,-214,o),
(736,-214,cs),
(679,-214,o),
(624,-205,o),
(573,-186,cs),
(450,-140,o),
(351,-43,o),
(287,78,c),
(232,177,o),
(215,252,o),
(215,361,cs),
(215,610,o),
(395,742,o),
(622,742,cs),
(749,742,o),
(836,712,o),
(899,650,cs),
(976,573,o),
(1005,469,o),
(1005,252,cs),
(1005,0,l),
(1154,0,l),
(1154,313,ls),
(1154,507,o),
(1125,617,o),
(1029,714,cs),
(940,803,o),
(814,851,o),
(624,851,cs),
(242,851,o),
(73,620,o),
(73,374,cs),
(73,237,o),
(100,133,o),
(170,21,cs),
(241,-95,o),
(316,-173,o),
(437,-239,cs),
(531,-291,o),
(631,-321,o),
(739,-321,cs),
(917,-321,o),
(1002,-247,o),
(1002,-128,cs),
(1002,-3,o),
(910,75,o),
(793,120,cs),
(707,153,o),
(605,167,o),
(514,167,cs),
(388,167,o),
(279,145,o),
(196,104,cs),
(92,52,o),
(28,-28,o),
(28,-128,cs),
(28,-247,o),
(116,-321,o),
(283,-321,cs)
);
}
);
width = 1230;
},
{
anchors = (
{
name = Anchor10;
pos = (631,-29);
}
);
layerId = "6732FEC1-CFA6-4586-B452-175C4A015291";
shapes = (
{
closed = 1;
nodes = (
(417,-321,o),
(519,-290,o),
(613,-240,c),
(726,-185,o),
(820,-92,o),
(869,26,cs),
(897,93,o),
(914,167,o),
(914,249,cs),
(914,439,o),
(800,581,o),
(563,581,cs),
(418,581,o),
(306,519,o),
(306,395,cs),
(306,275,o),
(405,222,o),
(513,222,cs),
(652,222,o),
(710,288,o),
(710,396,cs),
(710,442,o),
(679,519,o),
(643,548,c),
(512,529,l),
(549,491,o),
(578,454,o),
(578,407,cs),
(578,360,o),
(558,346,o),
(528,346,cs),
(494,346,o),
(475,366,o),
(475,399,cs),
(475,448,o),
(520,461,o),
(557,461,cs),
(570,461,o),
(587,461,o),
(606,456,c),
(614,462,l),
(729,432,o),
(739,339,o),
(739,254,cs),
(739,192,o),
(727,137,o),
(709,86,cs),
(666,-36,o),
(574,-118,o),
(462,-161,cs),
(414,-179,o),
(361,-192,o),
(306,-192,cs),
(217,-192,o),
(189,-158,o),
(189,-109,cs),
(189,-61,o),
(216,-24,o),
(269,-1,c),
(334,35,o),
(429,49,o),
(524,49,cs),
(606,49,o),
(694,39,o),
(760,10,c),
(827,-13,o),
(866,-54,o),
(866,-109,cs),
(866,-157,o),
(837,-192,o),
(749,-192,cs),
(692,-192,o),
(638,-175,o),
(588,-155,cs),
(470,-107,o),
(373,-16,o),
(313,100,c),
(268,182,o),
(243,261,o),
(243,361,cs),
(243,600,o),
(403,718,o),
(633,718,cs),
(759,718,o),
(846,685,o),
(904,626,cs),
(981,547,o),
(1008,429,o),
(1008,241,cs),
(1008,0,l),
(1198,0,l),
(1198,292,ls),
(1198,532,o),
(1144,651,o),
(1024,743,cs),
(931,815,o),
(796,851,o),
(639,851,cs),
(233,851,o),
(61,625,o),
(61,384,cs),
(61,244,o),
(97,134,o),
(165,30,c),
(233,-84,o),
(328,-176,o),
(454,-238,c),
(549,-289,o),
(649,-321,o),
(763,-321,cs),
(960,-321,o),
(1036,-245,o),
(1036,-113,cs),
(1036,18,o),
(937,97,o),
(812,136,c),
(718,168,o),
(612,178,o),
(531,178,cs),
(422,178,o),
(297,162,o),
(198,118,c),
(91,74,o),
(19,-3,o),
(19,-114,cs),
(19,-245,o),
(100,-321,o),
(297,-321,cs)
);
}
);
width = 1262;
},
{
anchors = (
{
name = Anchor10;
pos = (392,-29);
}
);
layerId = "960C9600-7588-48B9-A77D-42B729BBBC0C";
shapes = (
{
closed = 1;
nodes = (
(257,-321,o),
(303,-305,o),
(343,-280,c),
(442,-217,o),
(502,-89,o),
(530,54,c),
(544,116,o),
(548,180,o),
(548,243,cs),
(548,460,o),
(469,558,o),
(354,558,cs),
(272,558,o),
(207,511,o),
(207,405,cs),
(207,311,o),
(243,263,o),
(310,263,cs),
(368,263,o),
(410,302,o),
(410,403,cs),
(410,459,o),
(392,510,o),
(360,544,c),
(331,542,l),
(362,512,o),
(384,458,o),
(384,402,cs),
(384,327,o),
(362,288,o),
(309,288,cs),
(254,288,o),
(234,336,o),
(234,405,cs),
(234,500,o),
(290,533,o),
(343,533,cs),
(351,533,o),
(355,533,o),
(359,533,c),
(370,533,l),
(452,521,o),
(521,451,o),
(521,240,cs),
(521,184,o),
(517,125,o),
(506,67,c),
(480,-74,o),
(419,-208,o),
(321,-266,c),
(287,-286,o),
(249,-296,o),
(208,-296,cs),
(113,-296,o),
(57,-245,o),
(57,-129,cs),
(57,-61,o),
(82,-6,o),
(123,35,c),
(172,82,o),
(245,106,o),
(325,106,cs),
(400,106,o),
(466,85,o),
(515,46,c),
(567,5,o),
(598,-58,o),
(598,-138,cs),
(598,-243,o),
(544,-296,o),
(458,-296,cs),
(415,-296,o),
(375,-285,o),
(340,-265,c),
(243,-208,o),
(173,-84,o),
(133,58,c),
(101,162,o),
(86,269,o),
(86,379,cs),
(86,650,o),
(207,814,o),
(396,814,cs),
(461,814,o),
(511,798,o),
(551,770,cs),
(668,687,o),
(687,504,o),
(687,312,cs),
(687,0,l),
(713,0,l),
(713,326,ls),
(713,549,o),
(680,714,o),
(563,793,cs),
(520,822,o),
(465,839,o),
(397,839,cs),
(188,839,o),
(59,662,o),
(59,376,cs),
(59,262,o),
(77,144,o),
(112,40,c),
(152,-98,o),
(221,-221,o),
(320,-281,c),
(362,-307,o),
(406,-321,o),
(458,-321,cs),
(562,-321,o),
(625,-253,o),
(625,-138,cs),
(625,-42,o),
(584,30,o),
(520,74,c),
(465,114,o),
(397,131,o),
(325,131,cs),
(244,131,o),
(168,107,o),
(115,60,c),
(63,15,o),
(30,-50,o),
(30,-129,cs),
(30,-257,o),
(96,-321,o),
(210,-321,cs)
);
}
);
width = 785;
},
{
anchors = (
{
name = Anchor10;
pos = (422,-29);
}
);
layerId = "AA356D29-EBA3-4BA7-B11E-09F9C5534C37";
shapes = (
{
closed = 1;
nodes = (
(282,-321,o),
(335,-298,o),
(384,-267,c),
(488,-207,o),
(549,-85,o),
(568,36,c),
(590,105,o),
(597,176,o),
(597,244,cs),
(597,444,o),
(523,566,o),
(380,566,cs),
(288,566,o),
(211,511,o),
(211,397,cs),
(211,291,o),
(268,248,o),
(341,248,cs),
(424,248,o),
(465,300,o),
(465,387,cs),
(465,458,o),
(441,491,o),
(414,527,c),
(357,512,l),
(385,476,o),
(397,441,o),
(397,399,cs),
(397,328,o),
(374,312,o),
(342,312,cs),
(305,312,o),
(283,339,o),
(283,400,cs),
(283,466,o),
(319,502,o),
(368,502,cs),
(381,502,o),
(388,501,o),
(397,500,c),
(423,498,l),
(479,476,o),
(518,401,o),
(518,240,cs),
(518,193,o),
(515,142,o),
(506,90,cs),
(483,-45,o),
(424,-179,o),
(319,-231,c),
(289,-247,o),
(266,-254,o),
(223,-254,cs),
(149,-254,o),
(102,-209,o),
(102,-128,cs),
(102,-67,o),
(120,-16,o),
(159,17,c),
(202,61,o),
(270,84,o),
(354,84,cs),
(427,84,o),
(488,66,o),
(531,31,c),
(580,-2,o),
(604,-58,o),
(604,-128,cs),
(604,-209,o),
(556,-254,o),
(482,-254,cs),
(436,-254,o),
(410,-243,o),
(379,-226,c),
(292,-171,o),
(218,-53,o),
(180,83,c),
(150,181,o),
(132,269,o),
(132,387,cs),
(132,634,o),
(249,773,o),
(425,773,cs),
(514,773,o),
(576,739,o),
(617,687,cs),
(687,599,o),
(697,459,o),
(697,317,cs),
(697,0,l),
(776,0,l),
(776,355,ls),
(776,517,o),
(757,643,o),
(677,737,cs),
(623,801,o),
(536,843,o),
(432,843,cs),
(178,843,o),
(53,639,o),
(53,396,cs),
(53,269,o),
(76,128,o),
(124,26,c),
(159,-85,o),
(232,-212,o),
(321,-266,c),
(370,-300,o),
(423,-321,o),
(489,-321,cs),
(614,-321,o),
(680,-250,o),
(680,-125,cs),
(680,-24,o),
(633,57,o),
(547,104,c),
(495,134,o),
(429,151,o),
(353,151,cs),
(262,151,o),
(184,126,o),
(128,83,c),
(60,33,o),
(26,-40,o),
(26,-124,cs),
(26,-250,o),
(92,-321,o),
(213,-321,cs)
);
}
);
width = 844;
},
{
anchors = (
{
name = Anchor10;
pos = (489,-29);
}
);
layerId = "DB7E4487-AAA8-4905-9B27-B72FA6056893";
shapes = (
{
closed = 1;
nodes = (
(334,-321,o),
(394,-294,o),
(461,-250,c),
(561,-188,o),
(621,-102,o),
(667,14,c),
(703,91,o),
(717,173,o),
(717,250,cs),
(717,439,o),
(627,581,o),
(439,581,cs),
(319,581,o),
(224,519,o),
(224,395,cs),
(224,282,o),
(294,229,o),
(399,229,cs),
(491,229,o),
(542,276,o),
(542,377,cs),
(542,431,o),
(506,518,o),
(474,547,c),
(376,529,l),
(417,494,o),
(436,447,o),
(436,400,cs),
(436,360,o),
(423,346,o),
(399,346,cs),
(377,346,o),
(363,363,o),
(363,398,cs),
(363,449,o),
(399,468,o),
(431,468,cs),
(436,468,o),
(445,467,o),
(451,466,c),
(462,467,l),
(553,445,o),
(570,347,o),
(570,254,cs),
(570,204,o),
(565,148,o),
(548,92,c),
(514,-22,o),
(441,-132,o),
(340,-177,c),
(310,-190,o),
(277,-200,o),
(242,-200,cs),
(180,-200,o),
(149,-158,o),
(149,-112,cs),
(149,-71,o),
(169,-38,o),
(197,-12,c),
(248,38,o),
(313,55,o),
(400,55,cs),
(466,55,o),
(524,42,o),
(573,7,c),
(617,-21,o),
(649,-60,o),
(649,-111,cs),
(649,-162,o),
(616,-200,o),
(548,-200,cs),
(508,-200,o),
(471,-183,o),
(438,-165,c),
(350,-117,o),
(285,-12,o),
(251,96,c),
(215,193,o),
(194,287,o),
(194,384,cs),
(194,600,o),
(310,724,o),
(486,724,cs),
(564,724,o),
(624,701,o),
(667,661,cs),
(747,586,o),
(766,454,o),
(766,276,cs),
(766,0,l),
(927,0,l),
(927,347,ls),
(927,568,o),
(870,690,o),
(766,769,cs),
(694,824,o),
(599,851,o),
(489,851,cs),
(175,851,o),
(40,632,o),
(40,393,cs),
(40,249,o),
(67,137,o),
(133,14,c),
(180,-99,o),
(242,-188,o),
(338,-248,c),
(406,-294,o),
(475,-321,o),
(571,-321,cs),
(705,-321,o),
(787,-245,o),
(787,-110,cs),
(787,7,o),
(718,82,o),
(626,126,c),
(549,166,o),
(474,178,o),
(400,178,cs),
(310,178,o),
(217,157,o),
(144,110,c),
(65,63,o),
(12,-6,o),
(12,-110,cs),
(12,-227,o),
(69,-321,o),
(228,-321,cs)
);
}
);
width = 978;
}
);
unicode = 2951;
},
{
glyphname = iitamil;
lastChange = "2020-03-17 13:07:53 +0000";
layers = (
{
anchors = (
{
name = Anchor10;
pos = (305,-29);
},
{
name = Anchor8;
pos = (305,-29);
}
);
layerId = UUID0;
shapes = (
{
closed = 1;
nodes = (
(120,0,l),
(120,521,l),
(367,521,l),
(367,0,l),
(393,0,l),
(393,521,l),
(588,521,l),
(588,546,l),
(94,546,l),
(94,0,l)
);
},
{
closed = 1;
nodes = (
(265,243,o),
(279,256,o),
(279,281,cs),
(279,306,o),
(265,319,o),
(243,319,cs),
(221,319,o),
(207,306,o),
(207,281,cs),
(207,256,o),
(221,243,o),
(243,243,cs)
);
},
{
closed = 1;
nodes = (
(538,243,o),
(552,256,o),
(552,281,cs),
(552,306,o),
(538,319,o),
(516,319,cs),
(494,319,o),
(480,306,o),
(480,281,cs),
(480,256,o),
(494,243,o),
(516,243,cs)
);
}
);
width = 611;
},
{
anchors = (
{
name = Anchor10;
pos = (353,-29);
},
{
name = Anchor8;
pos = (353,-29);
}
);
layerId = "4900EB3E-CEE9-4F53-85D9-05D95ABCFDBA";
shapes = (
{
closed = 1;
nodes = (
(174,0,l),
(174,482,l),
(397,482,l),
(397,0,l),
(483,0,l),
(483,482,l),
(682,482,l),
(682,554,l),
(88,554,l),
(88,0,l)
);
},
{
closed = 1;
nodes = (
(322,214,o),
(349,241,o),
(349,278,cs),
(349,314,o),
(322,341,o),
(286,341,cs),
(249,341,o),
(222,314,o),
(222,278,cs),
(222,241,o),
(250,214,o),
(286,214,cs)
);
},
{
closed = 1;
nodes = (
(630,214,o),
(657,241,o),
(657,278,cs),
(657,314,o),
(630,341,o),
(594,341,cs),
(557,341,o),
(530,314,o),
(530,278,cs),
(530,241,o),
(558,214,o),
(594,214,cs)
);
}
);
width = 707;
},
{
anchors = (
{
name = Anchor10;
pos = (421,-29);
},
{
name = Anchor8;
pos = (421,-29);
}
);
layerId = "4BF31C0D-0A66-4B39-96F9-ACB961E601E6";
shapes = (
{
closed = 1;
nodes = (
(228,0,l),
(228,455,l),
(457,455,l),
(457,0,l),
(606,0,l),
(606,455,l),
(826,455,l),
(826,562,l),
(79,562,l),
(79,0,l)
);
},
{
closed = 1;
nodes = (
(387,197,o),
(420,228,o),
(420,274,cs),
(420,318,o),
(388,351,o),
(343,351,cs),
(298,351,o),
(266,318,o),
(266,274,cs),
(266,228,o),
(298,197,o),
(343,197,cs)
);
},
{
closed = 1;
nodes = (
(765,197,o),
(798,228,o),
(798,274,cs),
(798,318,o),
(766,351,o),
(721,351,cs),
(676,351,o),
(644,318,o),
(644,274,cs),
(644,228,o),
(676,197,o),
(721,197,cs)
);
}
);
width = 843;
},
{
anchors = (
{
name = Anchor10;
pos = (449,-29);
},
{
name = Anchor8;
pos = (449,-29);
}
);
layerId = "6732FEC1-CFA6-4586-B452-175C4A015291";
shapes = (
{
closed = 1;
nodes = (
(258,0,l),
(258,439,l),
(472,439,l),
(472,0,l),
(662,0,l),
(662,439,l),
(882,439,l),
(882,569,l),
(68,569,l),
(68,0,l)
);
},
{
closed = 1;
nodes = (
(413,187,o),
(450,221,o),
(450,271,cs),
(450,319,o),
(415,356,o),
(365,356,cs),
(317,356,o),
(281,319,o),
(281,271,cs),
(281,221,o),
(316,187,o),
(365,187,cs)
);
},
{
closed = 1;
nodes = (
(816,187,o),
(853,221,o),
(853,271,cs),
(853,319,o),
(818,356,o),
(768,356,cs),
(720,356,o),
(684,319,o),
(684,271,cs),
(684,221,o),
(719,187,o),
(768,187,cs)
);
}
);
width = 899;
},
{
anchors = (
{
name = Anchor10;
pos = (230,-29);
},
{
name = Anchor8;
pos = (230,-29);
}
);
layerId = "960C9600-7588-48B9-A77D-42B729BBBC0C";
shapes = (
{
closed = 1;
nodes = (
(99,0,l),
(99,521,l),
(270,521,l),
(270,0,l),
(296,0,l),
(296,521,l),
(438,521,l),
(438,546,l),
(73,546,l),
(73,0,l)
);
},
{
closed = 1;
nodes = (
(203,243,o),
(217,256,o),
(217,281,cs),
(217,306,o),
(203,319,o),
(184,319,cs),
(165,319,o),
(151,306,o),
(151,281,cs),
(151,256,o),
(165,243,o),
(184,243,cs)
);
},
{
closed = 1;
nodes = (
(400,243,o),
(414,256,o),
(414,281,cs),
(414,306,o),
(400,319,o),
(381,319,cs),
(362,319,o),
(348,306,o),
(348,281,cs),
(348,256,o),
(363,243,o),
(381,243,cs)
);
}
);
width = 460;
},
{
anchors = (
{
name = Anchor10;
pos = (281,-29);
},
{
name = Anchor8;
pos = (281,-29);
}
);
layerId = "AA356D29-EBA3-4BA7-B11E-09F9C5534C37";
shapes = (
{
closed = 1;
nodes = (
(146,0,l),
(146,487,l),
(309,487,l),
(309,0,l),
(388,0,l),
(388,487,l),
(541,487,l),
(541,554,l),
(67,554,l),
(67,0,l)
);
},
{
closed = 1;
nodes = (
(259,219,o),
(280,242,o),
(280,278,cs),
(280,314,o),
(259,337,o),
(227,337,cs),
(195,337,o),
(174,314,o),
(174,278,cs),
(174,242,o),
(195,219,o),
(227,219,cs)
);
},
{
closed = 1;
nodes = (
(501,219,o),
(522,241,o),
(522,278,cs),
(522,314,o),
(501,337,o),
(469,337,cs),
(437,337,o),
(416,314,o),
(416,278,cs),
(416,241,o),
(437,219,o),
(469,219,cs)
);
}
);
width = 563;
},
{
anchors = (
{
name = Anchor10;
pos = (363,-29);
},
{
name = Anchor8;
pos = (363,-29);
}
);
layerId = "DB7E4487-AAA8-4905-9B27-B72FA6056893";
shapes = (
{
closed = 1;
nodes = (
(213,0,l),
(213,445,l),
(377,445,l),
(377,0,l),
(538,0,l),
(538,445,l),
(707,445,l),
(707,569,l),
(52,569,l),
(52,0,l)
);
},
{
closed = 1;
nodes = (
(335,198,o),
(361,223,o),
(361,272,cs),
(361,320,o),
(335,345,o),
(295,345,cs),
(255,345,o),
(229,320,o),
(229,272,cs),
(229,223,o),
(255,198,o),
(295,198,cs)
);
},
{
closed = 1;
nodes = (
(660,198,o),
(686,223,o),
(686,272,cs),
(686,320,o),
(660,345,o),
(620,345,cs),
(580,345,o),
(554,320,o),
(554,272,cs),
(554,223,o),
(580,198,o),
(620,198,cs)
);
}
);
width = 726;
}
);
unicode = 2952;
},
{
glyphname = utamil;
lastChange = "2020-03-17 13:07:53 +0000";
layers = (
{
anchors = (
{
name = Anchor10;
pos = (505,-29);
},
{
name = Anchor8;
pos = (505,-29);
}
);
layerId = UUID0;
shapes = (
{
closed = 1;
nodes = (
(137,558,o),
(57,506,o),
(57,404,cs),
(57,313,o),
(108,263,o),
(193,263,cs),
(275,263,o),
(328,309,o),
(328,408,cs),
(328,461,o),
(306,515,o),
(269,544,c),
(235,542,l),
(281,512,o),
(301,459,o),
(301,405,cs),
(301,336,o),
(270,288,o),
(192,288,cs),
(111,288,o),
(84,342,o),
(84,404,cs),
(84,497,o),
(159,533,o),
(267,533,cs),
(270,533,o),
(272,533,o),
(275,533,c),
(279,533,l),
(397,530,o),
(510,479,o),
(510,352,cs),
(510,264,o),
(467,194,o),
(292,175,cs),
(191,164,ls),
(103,154,o),
(62,128,o),
(62,74,cs),
(62,29,o),
(95,0,o),
(168,0,cs),
(993,0,l),
(993,25,l),
(165,25,ls),
(104,25,o),
(88,49,o),
(88,74,cs),
(88,107,o),
(111,130,o),
(196,139,cs),
(284,148,ls),
(422,162,o),
(537,208,o),
(537,352,cs),
(537,468,o),
(447,558,o),
(265,558,cs)
);
}
);
width = 1010;
},
{
anchors = (
{
name = Anchor10;
pos = (533,-29);
},
{
name = Anchor8;
pos = (533,-29);
}
);
layerId = "4900EB3E-CEE9-4F53-85D9-05D95ABCFDBA";
shapes = (
{
closed = 1;
nodes = (
(157,566,o),
(57,512,o),
(57,398,cs),
(57,305,o),
(124,244,o),
(220,244,cs),
(327,244,o),
(383,305,o),
(383,392,cs),
(383,451,o),
(353,498,o),
(318,527,c),
(258,510,l),
(292,478,o),
(305,440,o),
(305,402,cs),
(305,344,o),
(273,312,o),
(222,312,cs),
(163,312,o),
(136,349,o),
(136,399,cs),
(136,465,o),
(191,497,o),
(263,497,cs),
(270,497,o),
(287,497,o),
(302,497,c),
(330,496,l),
(449,492,o),
(516,432,o),
(516,349,cs),
(516,284,o),
(485,223,o),
(303,205,cs),
(226,198,ls),
(105,186,o),
(62,154,o),
(62,94,cs),
(62,41,o),
(97,0,o),
(191,0,cs),
(1050,0,l),
(1050,72,l),
(182,72,ls),
(156,72,o),
(146,79,o),
(146,95,cs),
(146,112,o),
(156,120,o),
(229,127,cs),
(309,135,ls),
(483,153,o),
(602,193,o),
(602,349,cs),
(602,467,o),
(512,566,o),
(298,566,cs)
);
}
);
width = 1067;
},
{
anchors = (
{
name = Anchor10;
pos = (544,-29);
},
{
name = Anchor8;
pos = (544,-29);
}
);
layerId = "4BF31C0D-0A66-4B39-96F9-ACB961E601E6";
shapes = (
{
closed = 1;
nodes = (
(149,574,o),
(45,522,o),
(45,402,cs),
(45,297,o),
(138,254,o),
(235,254,cs),
(362,254,o),
(428,310,o),
(428,404,cs),
(428,488,o),
(395,522,o),
(359,551,c),
(248,549,l),
(280,519,o),
(305,471,o),
(305,426,cs),
(305,375,o),
(277,357,o),
(243,357,cs),
(209,357,o),
(178,368,o),
(178,410,cs),
(178,455,o),
(220,471,o),
(270,471,cs),
(277,471,o),
(301,471,o),
(317,470,c),
(336,471,l),
(431,471,o),
(521,441,o),
(521,360,cs),
(521,299,o),
(488,257,o),
(296,240,cs),
(212,233,ls),
(92,222,o),
(49,169,o),
(49,107,cs),
(49,55,o),
(84,0,o),
(218,0,cs),
(1071,0,l),
(1071,107,l),
(224,107,ls),
(198,107,o),
(189,109,o),
(189,120,cs),
(189,128,o),
(197,134,o),
(226,137,cs),
(345,147,ls),
(518,162,o),
(666,208,o),
(666,364,cs),
(666,482,o),
(557,574,o),
(321,574,cs)
);
}
);
width = 1088;
},
{
anchors = (
{
name = Anchor10;
pos = (549,-29);
},
{
name = Anchor8;
pos = (549,-29);
}
);
layerId = "6732FEC1-CFA6-4586-B452-175C4A015291";
shapes = (
{
closed = 1;
nodes = (
(134,581,o),
(35,522,o),
(35,411,cs),
(35,298,o),
(141,267,o),
(241,267,cs),
(381,267,o),
(451,313,o),
(451,412,cs),
(451,474,o),
(429,513,o),
(394,544,c),
(254,523,l),
(293,490,o),
(311,457,o),
(311,424,cs),
(311,389,o),
(287,375,o),
(254,375,cs),
(226,375,o),
(203,383,o),
(203,413,cs),
(203,444,o),
(226,457,o),
(265,457,cs),
(280,457,o),
(304,456,o),
(324,454,c),
(358,456,l),
(436,456,o),
(521,435,o),
(521,368,cs),
(521,309,o),
(464,281,o),
(295,267,cs),
(200,259,ls),
(68,248,o),
(37,179,o),
(37,130,cs),
(37,64,o),
(72,0,o),
(237,0,cs),
(1082,0,l),
(1082,130,l),
(230,130,ls),
(217,130,o),
(211,134,o),
(211,140,cs),
(211,147,o),
(219,150,o),
(237,151,cs),
(359,161,l),
(529,175,o),
(706,218,o),
(706,374,cs),
(706,496,o),
(582,581,o),
(321,581,cs)
);
}
);
width = 1099;
},
{
anchors = (
{
name = Anchor10;
pos = (367,-29);
},
{
name = Anchor8;
pos = (367,-29);
}
);
layerId = "960C9600-7588-48B9-A77D-42B729BBBC0C";
shapes = (
{
closed = 1;
nodes = (
(99,558,o),
(38,507,o),
(38,403,cs),
(38,312,o),
(75,263,o),
(141,263,cs),
(199,263,o),
(241,302,o),
(241,401,cs),
(241,459,o),
(223,510,o),
(191,544,c),
(162,542,l),
(193,512,o),
(215,458,o),
(215,400,cs),
(215,327,o),
(193,288,o),
(140,288,cs),
(85,288,o),
(65,335,o),
(65,403,cs),
(65,498,o),
(116,533,o),
(189,533,cs),
(191,533,o),
(193,533,o),
(195,533,c),
(200,533,l),
(285,533,o),
(369,478,o),
(369,349,cs),
(369,245,o),
(331,192,o),
(212,173,cs),
(149,163,ls),
(89,154,o),
(42,128,o),
(42,74,cs),
(42,31,o),
(67,0,o),
(139,0,cs),
(718,0,l),
(718,25,l),
(142,25,ls),
(82,25,o),
(69,44,o),
(69,74,cs),
(69,107,o),
(93,129,o),
(150,138,cs),
(213,148,ls),
(316,164,o),
(396,204,o),
(396,349,cs),
(396,468,o),
(325,558,o),
(196,558,cs)
);
}
);
width = 734;
},
{
anchors = (
{
name = Anchor10;
pos = (385,-29);
},
{
name = Anchor8;
pos = (385,-29);
}
);
layerId = "AA356D29-EBA3-4BA7-B11E-09F9C5534C37";
shapes = (
{
closed = 1;
nodes = (
(110,566,o),
(33,512,o),
(33,397,cs),
(33,292,o),
(90,248,o),
(163,248,cs),
(246,248,o),
(287,300,o),
(287,388,cs),
(287,456,o),
(263,495,o),
(235,527,c),
(179,512,l),
(206,479,o),
(219,437,o),
(219,391,cs),
(219,328,o),
(196,312,o),
(164,312,cs),
(127,312,o),
(105,339,o),
(105,400,cs),
(105,464,o),
(142,502,o),
(192,502,cs),
(198,502,o),
(205,502,o),
(216,501,c),
(239,502,l),
(316,496,o),
(369,440,o),
(369,349,cs),
(369,281,o),
(348,224,o),
(221,203,cs),
(163,194,ls),
(81,181,o),
(38,152,o),
(38,96,cs),
(38,38,o),
(73,0,o),
(169,0,cs),
(754,0,l),
(754,67,l),
(158,67,ls),
(126,67,o),
(115,76,o),
(115,92,cs),
(115,111,o),
(130,119,o),
(171,126,cs),
(235,136,ls),
(351,154,o),
(448,208,o),
(448,349,cs),
(448,455,o),
(376,566,o),
(218,566,cs)
);
}
);
width = 770;
},
{
anchors = (
{
name = Anchor10;
pos = (410,-29);
},
{
name = Anchor8;
pos = (410,-29);
}
);
layerId = "DB7E4487-AAA8-4905-9B27-B72FA6056893";
shapes = (
{
closed = 1;
nodes = (
(120,581,o),
(29,519,o),
(29,414,cs),
(29,303,o),
(105,265,o),
(193,265,cs),
(297,265,o),
(355,311,o),
(355,408,cs),
(355,460,o),
(326,511,o),
(301,542,c),
(200,523,l),
(232,487,o),
(242,457,o),
(242,417,cs),
(242,380,o),
(225,369,o),
(205,369,cs),
(183,369,o),
(169,383,o),
(169,413,cs),
(169,444,o),
(185,463,o),
(221,463,cs),
(229,463,o),
(245,463,o),
(257,461,c),
(280,464,l),
(337,464,o),
(389,435,o),
(389,371,cs),
(389,309,o),
(349,279,o),
(247,267,cs),
(172,258,ls),
(63,245,o),
(27,189,o),
(27,130,cs),
(27,64,o),
(58,0,o),
(209,0,cs),
(805,0,l),
(805,124,l),
(203,124,ls),
(183,124,o),
(180,130,o),
(180,138,cs),
(180,146,o),
(186,150,o),
(209,153,cs),
(278,161,ls),
(401,175,o),
(547,216,o),
(547,374,cs),
(547,496,o),
(454,581,o),
(256,581,cs)
);
}
);
width = 821;
}
);
unicode = 2953;
},
{
glyphname = uutamil;
lastChange = "2020-03-17 13:07:53 +0000";
layers = (
{
anchors = (
{
name = Anchor10;
pos = (709,-29);
},
{
name = Anchor8;
pos = (709,-29);
}
);
layerId = UUID0;
shapes = (
{
closed = 1;
nodes = (
(137,558,o),
(57,506,o),
(57,404,cs),
(57,313,o),
(108,263,o),
(193,263,cs),
(275,263,o),
(328,309,o),
(328,408,cs),
(328,461,o),
(306,515,o),
(269,544,c),
(235,542,l),
(281,512,o),
(301,459,o),
(301,405,cs),
(301,336,o),
(270,288,o),
(192,288,cs),
(111,288,o),
(84,342,o),
(84,404,cs),
(84,497,o),
(159,533,o),
(267,533,cs),
(270,533,o),
(272,533,o),
(275,533,cs),
(279,533,ls),
(397,530,o),
(510,479,o),
(510,352,cs),
(510,264,o),
(467,194,o),
(292,175,cs),
(191,164,ls),
(103,154,o),
(62,128,o),
(62,74,cs),
(62,29,o),
(95,0,o),
(168,0,cs),
(1372,0,l),
(1372,25,l),
(165,25,ls),
(104,25,o),
(88,49,o),
(88,74,cs),
(88,107,o),
(111,130,o),
(196,139,cs),
(284,148,ls),
(422,162,o),
(537,208,o),
(537,352,cs),
(537,468,o),
(447,558,o),
(265,558,cs)
);
},
{
closed = 1;
nodes = (
(850,124,o),
(905,168,o),
(905,251,cs),
(905,326,o),
(856,372,o),
(785,372,cs),
(730,372,o),
(680,337,o),
(655,302,c),
(663,278,l),
(705,326,o),
(740,347,o),
(784,347,cs),
(836,347,o),
(878,319,o),
(878,248,cs),
(878,177,o),
(830,149,o),
(786,149,cs),
(730,149,o),
(677,180,o),
(677,315,c),
(677,320,l),
(676,428,o),
(745,533,o),
(875,533,cs),
(944,533,o),
(991,502,o),
(1030,461,c),
(1032,494,l),
(990,534,o),
(941,558,o),
(873,558,cs),
(747,558,o),
(651,463,o),
(651,319,cs),
(651,165,o),
(716,124,o),
(786,124,cs)
);
},
{
closed = 1;
nodes = (
(1037,134,l),
(1037,521,l),
(1210,521,l),
(1210,134,l),
(1236,134,l),
(1236,521,l),
(1372,521,l),
(1372,546,l),
(1012,546,l),
(1012,497,l),
(1011,479,l),
(1011,134,l)
);
}
);
width = 1418;
},
{
anchors = (
{
name = Anchor10;
pos = (770,-29);
},
{
name = Anchor8;
pos = (770,-29);
}
);
layerId = "4900EB3E-CEE9-4F53-85D9-05D95ABCFDBA";
shapes = (
{
closed = 1;
nodes = (
(157,566,o),
(57,512,o),
(57,398,cs),
(57,305,o),
(130,244,o),
(220,244,cs),
(325,244,o),
(383,305,o),
(383,392,cs),
(383,451,o),
(353,498,o),
(318,527,c),
(258,510,l),
(292,478,o),
(305,440,o),
(305,402,cs),
(305,344,o),
(271,312,o),
(222,312,cs),
(167,312,o),
(136,349,o),
(136,399,cs),
(136,465,o),
(191,497,o),
(263,497,cs),
(270,497,o),
(287,497,o),
(302,497,cs),
(330,496,ls),
(449,492,o),
(516,432,o),
(516,349,cs),
(516,284,o),
(485,224,o),
(298,205,cs),
(226,198,ls),
(105,186,o),
(62,154,o),
(62,94,cs),
(62,41,o),
(97,0,o),
(191,0,cs),
(1494,0,l),
(1494,72,l),
(182,72,ls),
(156,72,o),
(147,79,o),
(147,95,cs),
(147,112,o),
(156,120,o),
(229,127,cs),
(309,135,ls),
(483,153,o),
(602,193,o),
(602,349,cs),
(602,467,o),
(512,566,o),
(298,566,cs)
);
},
{
closed = 1;
nodes = (
(944,132,o),
(997,184,o),
(997,270,cs),
(997,347,o),
(945,398,o),
(867,398,cs),
(814,398,o),
(763,365,o),
(731,317,c),
(746,259,l),
(776,306,o),
(811,333,o),
(850,333,cs),
(892,333,o),
(922,307,o),
(922,263,cs),
(922,220,o),
(895,196,o),
(858,196,cs),
(806,196,o),
(769,229,o),
(769,321,c),
(770,346,l),
(778,436,o),
(841,496,o),
(937,496,cs),
(1009,496,o),
(1047,465,o),
(1082,423,c),
(1096,512,l),
(1054,544,o),
(1006,566,o),
(931,566,cs),
(811,566,o),
(695,492,o),
(695,325,cs),
(695,190,o),
(771,132,o),
(858,132,cs)
);
},
{
closed = 1;
nodes = (
(1159,144,l),
(1159,486,l),
(1294,486,l),
(1294,144,l),
(1376,144,l),
(1376,486,l),
(1494,486,l),
(1494,554,l),
(1090,554,l),
(1090,497,l),
(1077,467,l),
(1077,144,l)
);
}
);
width = 1540;
},
{
anchors = (
{
name = Anchor10;
pos = (841,-29);
},
{
name = Anchor8;
pos = (841,-29);
}
);
layerId = "4BF31C0D-0A66-4B39-96F9-ACB961E601E6";
shapes = (
{
closed = 1;
nodes = (
(149,574,o),
(45,522,o),
(45,402,cs),
(45,297,o),
(138,254,o),
(235,254,cs),
(362,254,o),
(428,310,o),
(428,404,cs),
(428,488,o),
(395,522,o),
(359,551,c),
(248,549,l),
(280,519,o),
(305,471,o),
(305,426,cs),
(305,375,o),
(277,357,o),
(243,357,cs),
(209,357,o),
(178,368,o),
(178,410,cs),
(178,455,o),
(220,471,o),
(270,471,cs),
(277,471,o),
(301,471,o),
(317,470,c),
(336,471,l),
(431,471,o),
(521,441,o),
(521,360,cs),
(521,299,o),
(488,257,o),
(296,240,cs),
(212,233,ls),
(92,222,o),
(49,169,o),
(49,107,cs),
(49,55,o),
(84,0,o),
(218,0,cs),
(1636,0,l),
(1636,107,l),
(224,107,ls),
(198,107,o),
(189,109,o),
(189,120,cs),
(189,128,o),
(197,134,o),
(226,137,cs),
(345,147,ls),
(518,162,o),
(666,208,o),
(666,364,cs),
(666,482,o),
(557,574,o),
(321,574,cs)
);
},
{
closed = 1;
nodes = (
(1042,146,o),
(1100,198,o),
(1100,285,cs),
(1100,368,o),
(1038,415,o),
(952,415,cs),
(886,415,o),
(843,386,o),
(800,354,c),
(816,272,l),
(845,300,o),
(879,328,o),
(925,328,cs),
(960,328,o),
(981,311,o),
(981,281,cs),
(981,251,o),
(965,235,o),
(927,235,cs),
(883,235,o),
(858,262,o),
(858,328,c),
(862,368,l),
(879,438,o),
(941,476,o),
(1021,476,cs),
(1096,476,o),
(1144,450,o),
(1181,416,c),
(1201,531,l),
(1150,559,o),
(1100,574,o),
(1023,574,cs),
(875,574,o),
(746,485,o),
(746,334,cs),
(746,204,o),
(824,146,o),
(934,146,cs)
);
},
{
closed = 1;
nodes = (
(1294,154,l),
(1294,463,l),
(1400,463,l),
(1400,154,l),
(1528,154,l),
(1528,463,l),
(1636,463,l),
(1636,562,l),
(1183,562,l),
(1183,505,l),
(1166,483,l),
(1166,154,l)
);
}
);
width = 1682;
},
{
anchors = (
{
name = Anchor10;
pos = (869,-29);
},
{
name = Anchor8;
pos = (869,-29);
}
);
layerId = "6732FEC1-CFA6-4586-B452-175C4A015291";
shapes = (
{
closed = 1;
nodes = (
(134,581,o),
(35,522,o),
(35,411,cs),
(35,298,o),
(141,267,o),
(241,267,cs),
(381,267,o),
(451,313,o),
(451,412,cs),
(451,474,o),
(429,513,o),
(394,544,c),
(254,523,l),
(293,490,o),
(311,457,o),
(311,424,cs),
(311,389,o),
(287,375,o),
(254,375,cs),
(226,375,o),
(203,383,o),
(203,413,cs),
(203,444,o),
(226,457,o),
(265,457,cs),
(280,457,o),
(304,456,o),
(324,454,c),
(358,456,l),
(436,456,o),
(521,435,o),
(521,368,cs),
(521,309,o),
(464,281,o),
(295,267,cs),
(200,259,ls),
(68,248,o),
(37,179,o),
(37,130,cs),
(37,64,o),
(72,0,o),
(237,0,cs),
(1700,0,l),
(1700,130,l),
(230,130,ls),
(217,130,o),
(211,134,o),
(211,140,cs),
(211,147,o),
(219,150,o),
(237,151,cs),
(359,161,ls),
(529,175,o),
(706,218,o),
(706,374,cs),
(706,496,o),
(582,581,o),
(321,581,cs)
);
},
{
closed = 1;
nodes = (
(1089,155,o),
(1149,207,o),
(1149,295,cs),
(1149,382,o),
(1085,424,o),
(995,424,cs),
(922,424,o),
(875,395,o),
(829,355,c),
(852,275,l),
(877,301,o),
(915,325,o),
(953,325,cs),
(985,325,o),
(1001,314,o),
(1001,291,cs),
(1001,270,o),
(988,256,o),
(958,256,cs),
(913,256,o),
(895,286,o),
(895,330,c),
(898,372,l),
(915,439,o),
(986,464,o),
(1049,464,cs),
(1124,464,o),
(1175,427,o),
(1217,392,c),
(1256,515,l),
(1191,556,o),
(1137,581,o),
(1046,581,cs),
(868,581,o),
(761,480,o),
(761,344,cs),
(761,213,o),
(842,155,o),
(962,155,cs)
);
},
{
closed = 1;
nodes = (
(1354,162,l),
(1354,452,l),
(1436,452,l),
(1436,162,l),
(1594,162,l),
(1594,452,l),
(1690,452,l),
(1690,569,l),
(1216,569,l),
(1216,510,l),
(1196,494,l),
(1196,162,l)
);
}
);
width = 1738;
},
{
anchors = (
{
name = Anchor10;
pos = (517,-29);
},
{
name = Anchor8;
pos = (517,-29);
}
);
layerId = "960C9600-7588-48B9-A77D-42B729BBBC0C";
shapes = (
{
closed = 1;
nodes = (
(99,558,o),
(38,507,o),
(38,403,cs),
(38,312,o),
(75,263,o),
(141,263,cs),
(199,263,o),
(241,302,o),
(241,401,cs),
(241,459,o),
(223,510,o),
(191,544,c),
(162,542,l),
(193,512,o),
(215,458,o),
(215,400,cs),
(215,327,o),
(193,288,o),
(140,288,cs),
(85,288,o),
(65,335,o),
(65,403,cs),
(65,498,o),
(116,533,o),
(189,533,cs),
(191,533,o),
(193,533,o),
(195,533,cs),
(200,533,ls),
(285,533,o),
(369,478,o),
(369,349,cs),
(369,245,o),
(331,192,o),
(212,173,cs),
(149,163,ls),
(89,154,o),
(42,128,o),
(42,74,cs),
(42,31,o),
(67,0,o),
(139,0,cs),
(1001,0,l),
(1001,25,l),
(142,25,ls),
(82,25,o),
(69,44,o),
(69,74,cs),
(69,107,o),
(93,129,o),
(150,138,cs),
(213,148,ls),
(316,164,o),
(396,204,o),
(396,349,cs),
(396,468,o),
(325,558,o),
(196,558,cs)
);
},
{
closed = 1;
nodes = (
(625,124,o),
(665,157,o),
(665,251,cs),
(665,330,o),
(630,372,o),
(577,372,cs),
(539,372,o),
(508,346,o),
(482,313,c),
(490,292,l),
(516,328,o),
(548,347,o),
(575,347,cs),
(612,347,o),
(638,322,o),
(638,248,cs),
(638,168,o),
(608,149,o),
(577,149,cs),
(538,149,o),
(503,172,o),
(503,312,cs),
(503,320,l),
(503,430,o),
(551,533,o),
(645,533,cs),
(694,533,o),
(727,506,o),
(746,483,c),
(751,513,l),
(721,541,o),
(687,558,o),
(645,558,cs),
(546,558,o),
(477,465,o),
(477,315,cs),
(477,156,o),
(523,124,o),
(577,124,cs)
);
},
{
closed = 1;
nodes = (
(763,134,l),
(763,521,l),
(881,521,l),
(881,134,l),
(907,134,l),
(907,521,l),
(1001,521,l),
(1001,546,l),
(739,546,l),
(739,516,l),
(737,506,l),
(737,134,l)
);
}
);
width = 1035;
},
{
anchors = (
{
name = Anchor10;
pos = (571,-29);
},
{
name = Anchor8;
pos = (571,-29);
}
);
layerId = "AA356D29-EBA3-4BA7-B11E-09F9C5534C37";
shapes = (
{
closed = 1;
nodes = (
(110,566,o),
(33,512,o),
(33,397,cs),
(33,292,o),
(90,248,o),
(163,248,cs),
(246,248,o),
(287,300,o),
(287,388,cs),
(287,457,o),
(263,495,o),
(235,527,c),
(179,512,l),
(206,479,o),
(219,438,o),
(219,391,cs),
(219,328,o),
(196,312,o),
(164,312,cs),
(127,312,o),
(105,339,o),
(105,400,cs),
(105,464,o),
(142,502,o),
(192,502,cs),
(198,502,o),
(205,502,o),
(216,501,c),
(239,502,l),
(316,496,o),
(369,440,o),
(369,349,cs),
(369,281,o),
(348,224,o),
(221,203,cs),
(163,194,ls),
(81,181,o),
(38,152,o),
(38,96,cs),
(38,38,o),
(73,0,o),
(169,0,cs),
(1110,0,l),
(1110,67,l),
(158,67,ls),
(126,67,o),
(115,76,o),
(115,92,cs),
(115,111,o),
(130,119,o),
(171,126,cs),
(235,136,ls),
(351,154,o),
(448,208,o),
(448,349,cs),
(448,455,o),
(377,566,o),
(218,566,cs)
);
},
{
closed = 1;
nodes = (
(704,135,o),
(744,185,o),
(744,267,cs),
(744,346,o),
(704,395,o),
(642,395,cs),
(606,395,o),
(576,376,o),
(547,339,c),
(554,284,l),
(578,316,o),
(605,336,o),
(630,336,cs),
(658,336,o),
(677,313,o),
(677,262,cs),
(677,213,o),
(660,192,o),
(635,192,cs),
(599,192,o),
(576,220,o),
(576,321,c),
(578,346,ls),
(586,436,o),
(625,500,o),
(698,500,cs),
(737,500,o),
(774,477,o),
(805,439,c),
(817,514,l),
(781,547,o),
(745,564,o),
(697,564,cs),
(599,564,o),
(512,492,o),
(512,325,cs),
(512,187,o),
(567,135,o),
(635,135,cs)
);
},
{
closed = 1;
nodes = (
(869,144,l),
(869,491,l),
(957,491,l),
(957,144,l),
(1029,144,l),
(1029,491,l),
(1110,491,l),
(1110,554,l),
(807,554,l),
(807,495,l),
(796,465,l),
(796,144,l)
);
}
);
width = 1143;
},
{
anchors = (
{
name = Anchor10;
pos = (661,-29);
},
{
name = Anchor8;
pos = (661,-29);
}
);
layerId = "DB7E4487-AAA8-4905-9B27-B72FA6056893";
shapes = (
{
closed = 1;
nodes = (
(120,581,o),
(29,519,o),
(29,414,cs),
(29,303,o),
(105,265,o),
(193,265,cs),
(297,265,o),
(355,311,o),
(355,408,cs),
(355,460,o),
(326,511,o),
(301,542,c),
(200,523,l),
(232,487,o),
(242,457,o),
(242,417,cs),
(242,380,o),
(225,369,o),
(205,369,cs),
(183,369,o),
(169,383,o),
(169,413,cs),
(169,444,o),
(185,463,o),
(221,463,cs),
(229,463,o),
(245,463,o),
(257,461,c),
(280,464,l),
(337,464,o),
(389,435,o),
(389,371,cs),
(389,309,o),
(349,279,o),
(247,267,cs),
(172,258,ls),
(63,245,o),
(27,189,o),
(27,130,cs),
(27,64,o),
(58,0,o),
(209,0,cs),
(1303,0,l),
(1303,124,l),
(203,124,ls),
(183,124,o),
(180,130,o),
(180,138,cs),
(180,146,o),
(186,150,o),
(209,153,cs),
(278,161,ls),
(401,175,o),
(547,216,o),
(547,374,cs),
(547,496,o),
(454,581,o),
(256,581,cs)
);
},
{
closed = 1;
nodes = (
(833,155,o),
(881,207,o),
(881,295,cs),
(881,382,o),
(831,424,o),
(766,424,cs),
(708,424,o),
(675,395,o),
(636,361,c),
(658,285,l),
(688,317,o),
(704,331,o),
(727,331,cs),
(749,331,o),
(758,314,o),
(758,291,cs),
(758,264,o),
(750,250,o),
(729,250,cs),
(701,250,o),
(689,285,o),
(691,330,cs),
(693,372,l),
(701,440,o),
(749,469,o),
(796,469,cs),
(856,469,o),
(893,440,o),
(926,405,c),
(962,516,l),
(908,557,o),
(864,581,o),
(799,581,cs),
(661,581,o),
(576,480,o),
(576,344,cs),
(576,209,o),
(641,155,o),
(734,155,cs)
);
},
{
closed = 1;
nodes = (
(1042,162,l),
(1042,457,l),
(1091,457,l),
(1091,162,l),
(1227,162,l),
(1227,457,l),
(1290,457,l),
(1290,569,l),
(922,569,l),
(922,510,l),
(906,494,l),
(906,162,l)
);
}
);
width = 1332;
}
);
unicode = 2954;
},
{
glyphname = etamil;
lastChange = "2020-03-17 13:07:53 +0000";
layers = (
{
anchors = (
{
name = Anchor10;
pos = (372,-29);
},
{
name = Anchor12;
pos = (372,-78);
},
{
name = Anchor8;
pos = (372,-29);
}
);
layerId = UUID0;
shapes = (
{
closed = 1;
nodes = (
(303,-12,o),
(374,22,o),
(374,152,cs),
(374,259,o),
(309,312,o),
(229,312,cs),
(159,312,o),
(102,273,o),
(70,235,c),
(83,214,l),
(123,260,o),
(169,287,o),
(229,287,cs),
(304,287,o),
(347,236,o),
(347,153,cs),
(347,42,o),
(295,13,o),
(229,13,cs),
(147,13,o),
(87,70,o),
(87,235,cs),
(87,326,o),
(117,400,o),
(177,450,cs),
(232,496,o),
(312,521,o),
(433,521,cs),
(510,521,l),
(503,546,l),
(438,546,ls),
(297,546,o),
(211,516,o),
(150,461,cs),
(92,408,o),
(61,332,o),
(61,238,cs),
(61,50,o),
(135,-12,o),
(227,-12,cs)
);
},
{
closed = 1;
nodes = (
(533,0,l),
(533,521,l),
(728,521,l),
(728,546,l),
(487,546,l),
(489,521,l),
(507,521,l),
(507,0,l)
);
}
);
width = 745;
},
{
anchors = (
{
name = Anchor10;
pos = (400,-29);
},
{
name = Anchor12;
pos = (400,-78);
},
{
name = Anchor8;
pos = (400,-29);
}
);
layerId = "4900EB3E-CEE9-4F53-85D9-05D95ABCFDBA";
shapes = (
{
closed = 1;
nodes = (
(356,-12,o),
(422,54,o),
(422,165,cs),
(422,265,o),
(357,328,o),
(261,328,cs),
(195,328,o),
(133,295,o),
(93,248,c),
(108,184,l),
(147,227,o),
(194,258,o),
(247,258,cs),
(302,258,o),
(340,221,o),
(340,155,cs),
(340,91,o),
(307,56,o),
(253,56,cs),
(187,56,o),
(136,103,o),
(136,232,cs),
(136,313,o),
(163,378,o),
(214,423,cs),
(254,458,o),
(310,482,o),
(439,482,cs),
(508,482,l),
(508,554,l),
(451,554,ls),
(301,554,o),
(213,525,o),
(150,468,cs),
(93,417,o),
(57,341,o),
(57,239,cs),
(57,63,o),
(142,-12,o),
(249,-12,cs)
);
},
{
closed = 1;
nodes = (
(614,0,l),
(614,482,l),
(784,482,l),
(784,554,l),
(494,554,l),
(492,482,l),
(528,482,l),
(528,0,l)
);
}
);
width = 801;
},
{
anchors = (
{
name = Anchor10;
pos = (439,-29);
},
{
name = Anchor12;
pos = (439,-78);
},
{
name = Anchor8;
pos = (439,-29);
}
);
layerId = "4BF31C0D-0A66-4B39-96F9-ACB961E601E6";
shapes = (
{
closed = 1;
nodes = (
(411,-12,o),
(480,59,o),
(480,174,cs),
(480,285,o),
(408,347,o),
(300,347,cs),
(216,347,o),
(155,311,o),
(106,264,c),
(128,168,l),
(164,207,o),
(207,246,o),
(263,246,cs),
(311,246,o),
(340,216,o),
(340,167,cs),
(340,118,o),
(314,91,o),
(269,91,cs),
(211,91,o),
(177,129,o),
(177,224,cs),
(177,317,o),
(209,377,o),
(264,414,cs),
(305,441,o),
(352,455,o),
(448,455,cs),
(542,455,l),
(538,562,l),
(509,562,ls),
(340,562,o),
(253,546,o),
(179,500,cs),
(92,446,o),
(45,358,o),
(45,235,cs),
(45,72,o),
(137,-12,o),
(275,-12,cs)
);
},
{
closed = 1;
nodes = (
(718,0,l),
(718,455,l),
(861,455,l),
(861,562,l),
(525,562,l),
(524,455,l),
(569,455,l),
(569,0,l)
);
}
);
width = 878;
},
{
anchors = (
{
name = Anchor10;
pos = (465,-29);
},
{
name = Anchor12;
pos = (465,-78);
},
{
name = Anchor8;
pos = (465,-29);
}
);
layerId = "6732FEC1-CFA6-4586-B452-175C4A015291";
shapes = (
{
closed = 1;
nodes = (
(449,-12,o),
(521,61,o),
(521,177,cs),
(521,294,o),
(447,355,o),
(335,355,cs),
(248,355,o),
(184,311,o),
(124,261,c),
(156,162,l),
(193,204,o),
(230,234,o),
(278,234,cs),
(315,234,o),
(340,217,o),
(340,174,cs),
(340,135,o),
(321,114,o),
(283,114,cs),
(231,114,o),
(209,158,o),
(209,226,cs),
(209,314,o),
(240,366,o),
(287,398,cs),
(329,427,o),
(394,439,o),
(485,439,cs),
(574,439,l),
(574,569,l),
(530,569,ls),
(340,569,o),
(234,550,o),
(146,482,cs),
(80,431,o),
(37,355,o),
(37,239,cs),
(37,79,o),
(127,-12,o),
(285,-12,cs)
);
},
{
closed = 1;
nodes = (
(781,0,l),
(781,439,l),
(913,439,l),
(913,569,l),
(551,569,l),
(535,439,l),
(591,439,l),
(591,0,l)
);
}
);
width = 930;
},
{
anchors = (
{
name = Anchor10;
pos = (275,-29);
},
{
name = Anchor12;
pos = (275,-78);
},
{
name = Anchor8;
pos = (275,-29);
}
);
layerId = "960C9600-7588-48B9-A77D-42B729BBBC0C";
shapes = (
{
closed = 1;
nodes = (
(232,-12,o),
(282,22,o),
(282,154,cs),
(282,259,o),
(235,312,o),
(170,312,cs),
(126,312,o),
(88,285,o),
(58,247,c),
(62,220,l),
(91,259,o),
(128,287,o),
(168,287,cs),
(226,287,o),
(255,236,o),
(255,153,cs),
(255,42,o),
(221,13,o),
(175,13,cs),
(118,13,o),
(77,61,o),
(77,233,cs),
(77,335,o),
(100,414,o),
(155,463,cs),
(197,501,o),
(256,521,o),
(343,521,cs),
(371,521,l),
(372,546,l),
(357,546,ls),
(246,546,o),
(179,522,o),
(133,477,cs),
(77,423,o),
(51,339,o),
(51,234,cs),
(51,40,o),
(106,-12,o),
(173,-12,cs)
);
},
{
closed = 1;
nodes = (
(398,0,l),
(398,521,l),
(535,521,l),
(535,546,l),
(368,546,l),
(367,521,l),
(372,521,l),
(372,0,l)
);
}
);
width = 551;
},
{
anchors = (
{
name = Anchor10;
pos = (304,-29);
},
{
name = Anchor12;
pos = (304,-78);
},
{
name = Anchor8;
pos = (304,-29);
}
);
layerId = "AA356D29-EBA3-4BA7-B11E-09F9C5534C37";
shapes = (
{
closed = 1;
nodes = (
(282,-12,o),
(330,46,o),
(330,160,cs),
(330,265,o),
(281,328,o),
(203,328,cs),
(149,328,o),
(106,295,o),
(75,257,c),
(90,202,l),
(110,231,o),
(147,262,o),
(187,262,cs),
(228,262,o),
(253,226,o),
(253,154,cs),
(253,84,o),
(231,52,o),
(196,52,cs),
(151,52,o),
(118,94,o),
(118,228,cs),
(118,319,o),
(140,383,o),
(188,430,cs),
(224,466,o),
(281,487,o),
(363,487,cs),
(386,487,l),
(401,554,l),
(383,554,ls),
(255,554,o),
(183,524,o),
(130,472,cs),
(74,416,o),
(46,335,o),
(46,235,cs),
(46,54,o),
(110,-12,o),
(196,-12,cs)
);
},
{
closed = 1;
nodes = (
(479,0,l),
(479,487,l),
(593,487,l),
(593,554,l),
(393,554,l),
(380,487,l),
(400,487,l),
(400,0,l)
);
}
);
width = 609;
},
{
anchors = (
{
name = Anchor10;
pos = (359,-29);
},
{
name = Anchor12;
pos = (359,-78);
},
{
name = Anchor8;
pos = (359,-29);
}
);
layerId = "DB7E4487-AAA8-4905-9B27-B72FA6056893";
shapes = (
{
closed = 1;
nodes = (
(352,-12,o),
(407,60,o),
(407,175,cs),
(407,290,o),
(351,352,o),
(253,352,cs),
(192,352,o),
(151,319,o),
(106,272,c),
(132,179,l),
(163,218,o),
(189,237,o),
(212,237,cs),
(239,237,o),
(258,221,o),
(258,172,cs),
(258,124,o),
(246,107,o),
(219,107,cs),
(187,107,o),
(172,142,o),
(172,216,cs),
(172,320,o),
(200,373,o),
(249,408,cs),
(284,433,o),
(330,445,o),
(412,445,cs),
(441,445,l),
(462,569,l),
(446,569,ls),
(278,569,o),
(197,540,o),
(134,488,cs),
(69,434,o),
(30,355,o),
(30,245,cs),
(30,77,o),
(99,-12,o),
(223,-12,cs)
);
},
{
closed = 1;
nodes = (
(612,0,l),
(612,445,l),
(703,445,l),
(703,569,l),
(453,569,l),
(425,445,l),
(451,445,l),
(451,0,l)
);
}
);
width = 719;
}
);
unicode = 2958;
},
{
glyphname = eetamil;
lastChange = "2020-03-17 13:07:53 +0000";
layers = (
{
anchors = (
{
name = Anchor10;
pos = (372,-29);
},
{
name = Anchor8;
pos = (372,-29);
}
);
layerId = UUID0;
shapes = (
{
closed = 1;
nodes = (
(533,0,l),
(533,521,l),
(728,521,l),
(728,546,l),
(487,546,l),
(489,521,l),
(507,521,l),
(507,12,l),
(294,-192,l),
(312,-211,l)
);
},
{
closed = 1;
nodes = (
(303,-12,o),
(374,22,o),
(374,152,cs),
(374,259,o),
(309,312,o),
(229,312,cs),
(159,312,o),
(102,273,o),
(70,235,c),
(83,214,l),
(123,260,o),
(169,287,o),
(229,287,cs),
(304,287,o),
(347,236,o),
(347,153,cs),
(347,42,o),
(295,13,o),
(229,13,cs),
(147,13,o),
(87,70,o),
(87,235,cs),
(87,326,o),
(117,400,o),
(177,450,cs),
(232,496,o),
(312,521,o),
(433,521,cs),
(510,521,l),
(503,546,l),
(438,546,ls),
(297,546,o),
(211,516,o),
(150,461,cs),
(92,408,o),
(61,332,o),
(61,238,cs),
(61,50,o),
(135,-12,o),
(227,-12,cs)
);
}
);
width = 745;
},
{
anchors = (
{
name = Anchor10;
pos = (400,-29);
},
{
name = Anchor8;
pos = (400,-29);
}
);
layerId = "4900EB3E-CEE9-4F53-85D9-05D95ABCFDBA";
shapes = (
{
closed = 1;
nodes = (
(614,0,l),
(614,482,l),
(784,482,l),
(784,554,l),
(494,554,l),
(492,482,l),
(528,482,l),
(528,24,l),
(335,-159,l),
(392,-212,l)
);
},
{
closed = 1;
nodes = (
(356,-12,o),
(422,54,o),
(422,165,cs),
(422,265,o),
(357,328,o),
(261,328,cs),
(195,328,o),
(133,295,o),
(93,248,c),
(108,184,l),
(147,227,o),
(194,258,o),
(247,258,cs),
(302,258,o),
(340,221,o),
(340,155,cs),
(340,91,o),
(305,56,o),
(254,56,cs),
(186,56,o),
(136,107,o),
(136,232,cs),
(136,313,o),
(163,378,o),
(214,423,cs),
(254,458,o),
(310,482,o),
(439,482,cs),
(508,482,l),
(508,554,l),
(451,554,ls),
(301,554,o),
(213,525,o),
(150,468,cs),
(93,417,o),
(57,341,o),
(57,239,cs),
(57,63,o),
(142,-12,o),
(249,-12,cs)
);
}
);
width = 801;
},
{
anchors = (
{
name = Anchor10;
pos = (439,-29);
},
{
name = Anchor8;
pos = (439,-29);
}
);
layerId = "4BF31C0D-0A66-4B39-96F9-ACB961E601E6";
shapes = (
{
closed = 1;
nodes = (
(718,0,l),
(718,455,l),
(861,455,l),
(861,562,l),
(522,562,l),
(510,455,l),
(569,455,l),
(569,33,l),
(400,-126,l),
(494,-213,l)
);
},
{
closed = 1;
nodes = (
(411,-12,o),
(480,59,o),
(480,174,cs),
(480,285,o),
(408,347,o),
(300,347,cs),
(216,347,o),
(155,311,o),
(106,264,c),
(128,168,l),
(164,207,o),
(207,246,o),
(263,246,cs),
(311,246,o),
(340,216,o),
(340,167,cs),
(340,118,o),
(314,91,o),
(269,91,cs),
(211,91,o),
(177,129,o),
(177,224,cs),
(177,317,o),
(209,377,o),
(264,414,cs),
(305,441,o),
(352,455,o),
(448,455,cs),
(542,455,l),
(538,562,l),
(509,562,ls),
(340,562,o),
(253,546,o),
(179,500,cs),
(92,446,o),
(45,358,o),
(45,235,cs),
(45,72,o),
(137,-12,o),
(275,-12,cs)
);
}
);
width = 878;
},
{
anchors = (
{
name = Anchor10;
pos = (465,-29);
},
{
name = Anchor8;
pos = (465,-29);
}
);
layerId = "6732FEC1-CFA6-4586-B452-175C4A015291";
shapes = (
{
closed = 1;
nodes = (
(781,0,l),
(781,439,l),
(913,439,l),
(913,569,l),
(551,569,l),
(535,439,l),
(591,439,l),
(591,39,l),
(438,-104,l),
(557,-214,l)
);
},
{
closed = 1;
nodes = (
(449,-12,o),
(521,61,o),
(521,177,cs),
(521,294,o),
(447,355,o),
(335,355,cs),
(248,355,o),
(184,311,o),
(124,261,c),
(156,162,l),
(193,204,o),
(230,234,o),
(278,234,cs),
(315,234,o),
(340,217,o),
(340,174,cs),
(340,135,o),
(321,114,o),
(283,114,cs),
(231,114,o),
(209,158,o),
(209,226,cs),
(209,314,o),
(240,366,o),
(287,398,cs),
(329,427,o),
(394,439,o),
(485,439,cs),
(574,439,l),
(579,569,l),
(530,569,ls),
(340,569,o),
(234,550,o),
(146,482,cs),
(80,431,o),
(37,355,o),
(37,239,cs),
(37,79,o),
(127,-12,o),
(285,-12,cs)
);
}
);
width = 930;
},
{
anchors = (
{
name = Anchor10;
pos = (275,-29);
},
{
name = Anchor8;
pos = (275,-29);
}
);
layerId = "960C9600-7588-48B9-A77D-42B729BBBC0C";
shapes = (
{
closed = 1;
nodes = (
(398,0,l),
(398,521,l),
(535,521,l),
(535,546,l),
(368,546,l),
(367,521,l),
(372,521,l),
(372,8,l),
(206,-194,l),
(226,-211,l)
);
},
{
closed = 1;
nodes = (
(232,-12,o),
(282,22,o),
(282,154,cs),
(282,259,o),
(235,312,o),
(170,312,cs),
(126,312,o),
(88,285,o),
(58,247,c),
(62,220,l),
(91,259,o),
(128,287,o),
(168,287,cs),
(226,287,o),
(255,236,o),
(255,153,cs),
(255,42,o),
(221,13,o),
(175,13,cs),
(118,13,o),
(77,61,o),
(77,233,cs),
(77,335,o),
(100,414,o),
(155,463,cs),
(197,501,o),
(256,521,o),
(343,521,cs),
(371,521,l),
(372,546,l),
(357,546,ls),
(246,546,o),
(179,522,o),
(133,477,cs),
(77,423,o),
(51,339,o),
(51,234,cs),
(51,40,o),
(106,-12,o),
(173,-12,cs)
);
}
);
width = 551;
},
{
anchors = (
{
name = Anchor10;
pos = (304,-29);
},
{
name = Anchor8;
pos = (304,-29);
}
);
layerId = "AA356D29-EBA3-4BA7-B11E-09F9C5534C37";
shapes = (
{
closed = 1;
nodes = (
(479,0,l),
(479,487,l),
(593,487,l),
(593,554,l),
(393,554,l),
(380,487,l),
(400,487,l),
(400,20,l),
(249,-165,l),
(308,-212,l)
);
},
{
closed = 1;
nodes = (
(282,-12,o),
(330,46,o),
(330,160,cs),
(330,265,o),
(281,328,o),
(203,328,cs),
(149,328,o),
(106,295,o),
(75,257,c),
(90,202,l),
(110,231,o),
(147,262,o),
(187,262,cs),
(228,262,o),
(253,226,o),
(253,154,cs),
(253,84,o),
(231,52,o),
(196,52,cs),
(151,52,o),
(118,94,o),
(118,228,cs),
(118,319,o),
(140,383,o),
(188,430,cs),
(224,466,o),
(281,487,o),
(363,487,cs),
(386,487,l),
(401,554,l),
(383,554,ls),
(255,554,o),
(183,524,o),
(130,472,cs),
(74,416,o),
(46,335,o),
(46,235,cs),
(46,54,o),
(110,-12,o),
(196,-12,cs)
);
}
);
width = 609;
},
{
anchors = (
{
name = Anchor10;
pos = (359,-29);
},
{
name = Anchor8;
pos = (359,-29);
}
);
layerId = "DB7E4487-AAA8-4905-9B27-B72FA6056893";
shapes = (
{
closed = 1;
nodes = (
(612,0,l),
(612,445,l),
(703,445,l),
(703,569,l),
(453,569,l),
(425,445,l),
(451,445,l),
(451,40,l),
(317,-118,l),
(437,-214,l)
);
},
{
closed = 1;
nodes = (
(352,-12,o),
(407,60,o),
(407,175,cs),
(407,290,o),
(351,352,o),
(253,352,cs),
(192,352,o),
(151,319,o),
(106,272,c),
(132,179,l),
(163,218,o),
(189,237,o),
(212,237,cs),
(239,237,o),
(258,221,o),
(258,172,cs),
(258,124,o),
(246,107,o),
(219,107,cs),
(187,107,o),
(172,142,o),
(172,216,cs),
(172,320,o),
(200,373,o),
(249,408,cs),
(284,433,o),
(330,445,o),
(412,445,cs),
(441,445,l),
(462,569,l),
(446,569,ls),
(278,569,o),
(197,540,o),
(134,488,cs),
(69,434,o),
(30,355,o),
(30,245,cs),
(30,77,o),
(99,-12,o),
(223,-12,cs)
);
}
);
width = 719;
}
);
unicode = 2959;
},
{
glyphname = aitamil;
lastChange = "2020-03-17 13:07:53 +0000";
layers = (
{
anchors = (
{
name = Anchor10;
pos = (479,-29);
},
{
name = Anchor8;
pos = (479,-29);
}
);
layerId = UUID0;
shapes = (
{
closed = 1;
nodes = (
(425,-321,o),
(502,-265,o),
(522,-156,c),
(518,-154,l),
(529,-238,o),
(579,-321,o),
(711,-321,cs),
(817,-321,o),
(890,-263,o),
(890,-126,cs),
(890,-59,o),
(872,-11,o),
(850,38,c),
(826,27,l),
(849,-20,o),
(863,-70,o),
(863,-127,cs),
(863,-256,o),
(797,-296,o),
(711,-296,cs),
(638,-296,o),
(593,-268,o),
(567,-223,cs),
(543,-182,o),
(535,-142,o),
(535,-66,cs),
(535,-7,l),
(509,-7,l),
(509,-74,ls),
(509,-150,o),
(492,-193,o),
(463,-231,cs),
(427,-277,o),
(373,-296,o),
(305,-296,cs),
(184,-296,o),
(95,-241,o),
(95,-109,cs),
(95,-43,o),
(119,2,o),
(156,31,cs),
(214,76,o),
(291,85,o),
(394,85,cs),
(507,85,ls),
(629,85,o),
(734,91,o),
(808,146,cs),
(859,184,o),
(890,244,o),
(890,342,cs),
(890,478,o),
(811,558,o),
(694,558,cs),
(587,558,o),
(525,494,o),
(513,376,c),
(524,369,l),
(515,468,o),
(459,558,o),
(309,558,cs),
(176,558,o),
(68,485,o),
(68,344,cs),
(68,248,o),
(118,196,o),
(207,196,cs),
(294,196,o),
(353,249,o),
(353,339,cs),
(353,430,o),
(286,491,o),
(167,496,c),
(137,473,l),
(265,473,o),
(326,421,o),
(326,338,cs),
(326,258,o),
(276,221,o),
(207,221,cs),
(136,221,o),
(95,261,o),
(95,344,cs),
(95,404,o),
(114,450,o),
(153,484,cs),
(160,490,ls),
(196,519,o),
(244,533,o),
(309,533,cs),
(404,533,o),
(509,491,o),
(509,299,cs),
(509,202,l),
(535,202,l),
(535,328,ls),
(535,413,o),
(555,461,o),
(587,493,cs),
(613,519,o),
(647,533,o),
(693,533,cs),
(788,533,o),
(863,474,o),
(863,342,cs),
(863,253,o),
(837,197,o),
(788,163,cs),
(725,119,o),
(640,110,o),
(492,110,cs),
(385,110,ls),
(279,110,o),
(200,97,o),
(139,50,cs),
(96,17,o),
(68,-33,o),
(68,-108,cs),
(68,-238,o),
(152,-321,o),
(301,-321,cs)
);
}
);
width = 958;
},
{
anchors = (
{
name = Anchor10;
pos = (511,-29);
},
{
name = Anchor8;
pos = (511,-29);
}
);
layerId = "4900EB3E-CEE9-4F53-85D9-05D95ABCFDBA";
shapes = (
{
closed = 1;
nodes = (
(452,-321,o),
(533,-273,o),
(566,-187,c),
(548,-191,l),
(570,-252,o),
(620,-321,o),
(750,-321,cs),
(868,-321,o),
(959,-246,o),
(959,-108,cs),
(959,-43,o),
(949,0,o),
(932,45,c),
(847,16,l),
(862,-15,o),
(872,-68,o),
(872,-105,cs),
(872,-213,o),
(813,-248,o),
(749,-248,cs),
(683,-248,o),
(644,-223,o),
(622,-178,cs),
(606,-145,o),
(600,-101,o),
(600,-47,cs),
(600,-11,l),
(513,-11,l),
(513,-73,ls),
(513,-145,o),
(501,-182,o),
(467,-212,cs),
(437,-238,o),
(396,-248,o),
(340,-248,cs),
(235,-248,o),
(151,-201,o),
(151,-93,cs),
(151,-51,o),
(161,-18,o),
(187,8,cs),
(233,54,o),
(315,63,o),
(448,63,cs),
(542,63,ls),
(680,63,o),
(807,77,o),
(883,143,cs),
(931,184,o),
(959,245,o),
(959,335,cs),
(959,470,o),
(878,566,o),
(729,566,cs),
(633,566,o),
(570,516,o),
(541,430,c),
(559,439,l),
(532,500,o),
(477,566,o),
(331,566,cs),
(188,566,o),
(63,485,o),
(63,345,cs),
(63,254,o),
(122,184,o),
(235,184,cs),
(336,184,o),
(404,246,o),
(404,342,cs),
(404,430,o),
(334,486,o),
(242,494,c),
(178,448,l),
(261,448,o),
(322,405,o),
(322,335,cs),
(322,283,o),
(286,252,o),
(234,252,cs),
(168,252,o),
(142,291,o),
(142,348,cs),
(142,396,o),
(162,441,o),
(217,470,c),
(252,484,l),
(279,493,o),
(296,496,o),
(337,496,cs),
(469,496,o),
(513,417,o),
(513,297,cs),
(513,205,l),
(600,205,l),
(600,319,ls),
(600,391,o),
(609,426,o),
(635,457,cs),
(657,482,o),
(687,493,o),
(726,493,cs),
(808,493,o),
(871,439,o),
(871,334,cs),
(871,271,o),
(856,227,o),
(823,196,cs),
(770,148,o),
(672,135,o),
(521,135,cs),
(432,135,ls),
(312,135,o),
(200,123,o),
(131,65,cs),
(89,30,o),
(63,-22,o),
(63,-95,cs),
(63,-218,o),
(154,-321,o),
(338,-321,cs)
);
}
);
width = 1022;
},
{
anchors = (
{
name = Anchor10;
pos = (561,-29);
},
{
name = Anchor8;
pos = (561,-29);
}
);
layerId = "4BF31C0D-0A66-4B39-96F9-ACB961E601E6";
shapes = (
{
closed = 1;
nodes = (
(496,-321,o),
(574,-259,o),
(624,-197,c),
(582,-190,l),
(617,-263,o),
(684,-321,o),
(815,-321,cs),
(990,-321,o),
(1071,-231,o),
(1071,-90,cs),
(1071,-43,o),
(1065,6,o),
(1047,48,c),
(904,5,l),
(914,-22,o),
(922,-59,o),
(922,-95,cs),
(922,-168,o),
(882,-214,o),
(808,-214,cs),
(775,-214,o),
(730,-205,o),
(704,-162,cs),
(689,-139,o),
(681,-112,o),
(681,-48,cs),
(681,-17,l),
(532,-17,l),
(532,-44,ls),
(532,-108,o),
(520,-137,o),
(502,-160,cs),
(472,-198,o),
(422,-214,o),
(357,-214,cs),
(265,-214,o),
(195,-174,o),
(195,-88,cs),
(195,-44,o),
(210,-12,o),
(242,10,cs),
(277,34,o),
(321,45,o),
(413,45,cs),
(646,45,ls),
(780,45,o),
(881,59,o),
(958,105,cs),
(1027,147,o),
(1071,217,o),
(1071,329,cs),
(1071,463,o),
(983,574,o),
(804,574,cs),
(697,574,o),
(619,526,o),
(579,437,c),
(621,451,l),
(582,511,o),
(511,574,o),
(350,574,cs),
(178,574,o),
(46,492,o),
(46,352,cs),
(46,243,o),
(114,171,o),
(242,171,cs),
(371,171,o),
(442,236,o),
(442,335,cs),
(442,423,o),
(377,476,o),
(305,486,c),
(184,437,l),
(282,436,o),
(315,390,o),
(315,337,cs),
(315,298,o),
(292,272,o),
(246,272,cs),
(194,272,o),
(175,306,o),
(175,349,cs),
(175,394,o),
(199,448,o),
(285,466,c),
(317,472,l),
(322,473,o),
(339,474,o),
(344,474,c),
(490,474,o),
(532,398,o),
(532,278,cs),
(532,211,l),
(681,211,l),
(681,294,ls),
(681,376,o),
(691,409,o),
(713,434,cs),
(732,455,o),
(758,466,o),
(794,466,cs),
(864,466,o),
(922,421,o),
(922,322,cs),
(922,262,o),
(901,224,o),
(865,198,cs),
(806,156,o),
(716,152,o),
(610,152,cs),
(408,152,ls),
(283,152,o),
(188,135,o),
(120,77,cs),
(75,40,o),
(46,-15,o),
(46,-91,cs),
(46,-232,o),
(143,-321,o),
(342,-321,cs)
);
}
);
width = 1123;
},
{
anchors = (
{
name = Anchor10;
pos = (577,-29);
},
{
name = Anchor8;
pos = (577,-29);
}
);
layerId = "6732FEC1-CFA6-4586-B452-175C4A015291";
shapes = (
{
closed = 1;
nodes = (
(511,-321,o),
(596,-262,o),
(651,-200,c),
(582,-180,l),
(635,-276,o),
(715,-321,o),
(847,-321,cs),
(1047,-321,o),
(1112,-221,o),
(1112,-89,cs),
(1112,-38,o),
(1098,18,o),
(1081,59,c),
(901,8,l),
(914,-24,o),
(922,-57,o),
(922,-88,cs),
(922,-138,o),
(903,-190,o),
(826,-190,cs),
(783,-190,o),
(754,-176,o),
(738,-153,cs),
(721,-129,o),
(715,-99,o),
(715,-30,cs),
(715,-12,l),
(527,-12,l),
(527,-32,ls),
(527,-88,o),
(519,-116,o),
(502,-140,cs),
(479,-173,o),
(440,-190,o),
(369,-190,cs),
(275,-190,o),
(225,-151,o),
(225,-82,cs),
(225,-42,o),
(244,-11,o),
(273,7,cs),
(310,30,o),
(351,35,o),
(423,35,cs),
(666,35,ls),
(814,35,o),
(923,48,o),
(1008,106,cs),
(1073,150,o),
(1112,220,o),
(1112,329,cs),
(1112,458,o),
(1024,581,o),
(829,581,cs),
(708,581,o),
(633,529,o),
(585,439,c),
(645,453,l),
(583,527,o),
(519,581,o),
(343,581,cs),
(174,581,o),
(35,496,o),
(35,350,cs),
(35,261,o),
(88,164,o),
(250,164,cs),
(395,164,o),
(462,228,o),
(462,330,cs),
(462,412,o),
(407,468,o),
(340,482,c),
(180,430,l),
(288,428,o),
(310,384,o),
(310,343,cs),
(310,308,o),
(288,284,o),
(249,284,cs),
(206,284,o),
(191,313,o),
(191,343,cs),
(191,388,o),
(221,424,o),
(272,442,c),
(294,450,l),
(315,456,o),
(337,459,o),
(355,459,cs),
(483,459,o),
(527,397,o),
(527,292,cs),
(527,204,l),
(715,204,l),
(715,299,ls),
(715,370,o),
(725,400,o),
(746,423,cs),
(760,438,o),
(781,449,o),
(814,449,cs),
(874,449,o),
(922,408,o),
(922,322,cs),
(922,270,o),
(907,233,o),
(876,208,cs),
(836,176,o),
(781,163,o),
(664,163,cs),
(444,163,ls),
(290,163,o),
(205,149,o),
(134,104,cs),
(74,66,o),
(35,7,o),
(35,-84,cs),
(35,-241,o),
(144,-321,o),
(352,-321,cs)
);
}
);
width = 1153;
},
{
anchors = (
{
name = Anchor10;
pos = (358,-29);
},
{
name = Anchor8;
pos = (358,-29);
}
);
layerId = "960C9600-7588-48B9-A77D-42B729BBBC0C";
shapes = (
{
closed = 1;
nodes = (
(319,-321,o),
(376,-273,o),
(393,-163,c),
(385,-163,l),
(394,-247,o),
(431,-321,o),
(524,-321,cs),
(609,-321,o),
(665,-265,o),
(665,-133,cs),
(665,-60,o),
(650,-5,o),
(632,43,c),
(607,34,l),
(628,-18,o),
(638,-70,o),
(638,-133,cs),
(638,-256,o),
(591,-296,o),
(524,-296,cs),
(472,-296,o),
(442,-268,o),
(425,-233,cs),
(405,-191,o),
(402,-144,o),
(402,-98,cs),
(402,-7,l),
(376,-7,l),
(376,-100,ls),
(376,-171,o),
(366,-208,o),
(343,-241,cs),
(318,-276,o),
(282,-296,o),
(226,-296,cs),
(137,-296,o),
(77,-242,o),
(77,-118,cs),
(77,-46,o),
(95,3,o),
(129,34,cs),
(169,72,o),
(225,85,o),
(335,85,cs),
(377,85,ls),
(474,85,o),
(540,95,o),
(587,129,cs),
(639,166,o),
(666,232,o),
(666,342,cs),
(666,494,o),
(594,558,o),
(519,558,cs),
(456,558,o),
(397,522,o),
(383,401,c),
(394,401,l),
(382,502,o),
(320,558,o),
(233,558,cs),
(132,558,o),
(49,485,o),
(49,341,cs),
(49,248,o),
(90,196,o),
(156,196,cs),
(217,196,o),
(262,241,o),
(262,328,cs),
(262,423,o),
(195,480,o),
(122,496,c),
(105,475,l),
(175,463,o),
(235,412,o),
(235,328,cs),
(235,253,o),
(201,221,o),
(158,221,cs),
(104,221,o),
(76,261,o),
(76,344,cs),
(76,404,o),
(89,450,o),
(119,484,c),
(124,490,l),
(149,519,o),
(192,533,o),
(233,533,cs),
(312,533,o),
(376,479,o),
(376,357,cs),
(376,202,l),
(402,202,l),
(402,353,ls),
(402,415,o),
(413,474,o),
(449,508,cs),
(466,523,o),
(485,533,o),
(518,533,cs),
(581,533,o),
(639,479,o),
(639,342,cs),
(639,241,o),
(617,182,o),
(571,149,cs),
(529,119,o),
(470,110,o),
(379,110,cs),
(333,110,ls),
(227,110,o),
(161,96,o),
(112,53,cs),
(72,18,o),
(50,-36,o),
(50,-118,cs),
(50,-241,o),
(109,-321,o),
(225,-321,cs)
);
}
);
width = 717;
},
{
anchors = (
{
name = Anchor10;
pos = (385,-29);
},
{
name = Anchor8;
pos = (385,-29);
}
);
layerId = "AA356D29-EBA3-4BA7-B11E-09F9C5534C37";
shapes = (
{
closed = 1;
nodes = (
(346,-321,o),
(399,-267,o),
(431,-188,c),
(405,-189,l),
(425,-250,o),
(462,-321,o),
(555,-321,cs),
(658,-321,o),
(724,-246,o),
(724,-126,cs),
(724,-52,o),
(711,2,o),
(694,46,c),
(619,24,l),
(634,-12,o),
(645,-68,o),
(645,-121,cs),
(645,-223,o),
(602,-253,o),
(557,-253,cs),
(517,-253,o),
(492,-231,o),
(478,-202,cs),
(459,-164,o),
(457,-122,o),
(457,-53,cs),
(457,-11,l),
(378,-11,l),
(378,-76,ls),
(378,-144,o),
(373,-178,o),
(354,-207,cs),
(336,-235,o),
(306,-253,o),
(254,-253,cs),
(171,-253,o),
(124,-208,o),
(124,-106,cs),
(124,-41,o),
(139,2,o),
(177,30,cs),
(211,54,o),
(251,67,o),
(365,67,cs),
(398,67,ls),
(512,67,o),
(581,82,o),
(633,119,cs),
(691,161,o),
(724,231,o),
(724,335,cs),
(724,470,o),
(664,566,o),
(549,566,cs),
(474,566,o),
(422,518,o),
(401,428,c),
(423,439,l),
(403,508,o),
(352,566,o),
(249,566,cs),
(124,566,o),
(45,475,o),
(45,352,cs),
(45,251,o),
(95,188,o),
(176,188,cs),
(261,188,o),
(306,239,o),
(306,331,cs),
(306,421,o),
(253,480,o),
(186,500,c),
(128,459,l),
(183,447,o),
(237,403,o),
(237,328,cs),
(237,277,o),
(218,251,o),
(178,251,cs),
(133,251,o),
(117,291,o),
(117,343,cs),
(117,406,o),
(134,445,o),
(168,475,c),
(185,486,l),
(206,497,o),
(226,501,o),
(252,501,cs),
(353,501,o),
(378,423,o),
(378,335,cs),
(378,205,l),
(457,205,l),
(457,349,ls),
(457,411,o),
(463,442,o),
(480,467,cs),
(494,487,o),
(514,498,o),
(544,498,cs),
(599,498,o),
(644,451,o),
(644,339,cs),
(644,263,o),
(626,213,o),
(592,182,cs),
(553,147,o),
(508,134,o),
(406,134,cs),
(360,134,ls),
(235,134,o),
(176,119,o),
(129,85,cs),
(74,46,o),
(45,-16,o),
(45,-103,cs),
(45,-227,o),
(101,-321,o),
(247,-321,cs)
);
}
);
width = 770;
},
{
anchors = (
{
name = Anchor10;
pos = (440,-29);
},
{
name = Anchor8;
pos = (440,-29);
}
);
layerId = "DB7E4487-AAA8-4905-9B27-B72FA6056893";
shapes = (
{
closed = 1;
nodes = (
(393,-321,o),
(459,-262,o),
(501,-191,c),
(439,-177,l),
(481,-281,o),
(544,-321,o),
(647,-321,cs),
(798,-321,o),
(846,-222,o),
(846,-98,cs),
(846,-38,o),
(833,14,o),
(816,57,c),
(664,18,l),
(675,-14,o),
(685,-54,o),
(685,-95,cs),
(685,-148,o),
(673,-195,o),
(622,-195,cs),
(596,-195,o),
(580,-185,o),
(569,-168,cs),
(555,-145,o),
(551,-112,o),
(551,-49,cs),
(551,-12,l),
(394,-12,l),
(394,-48,ls),
(394,-95,o),
(388,-133,o),
(368,-160,cs),
(352,-181,o),
(326,-195,o),
(288,-195,cs),
(218,-195,o),
(192,-151,o),
(192,-90,cs),
(192,-44,o),
(206,-12,o),
(235,8,cs),
(264,28,o),
(298,37,o),
(387,37,cs),
(511,37,ls),
(626,37,o),
(697,54,o),
(761,108,c),
(815,155,o),
(846,220,o),
(846,329,cs),
(846,458,o),
(781,581,o),
(632,581,cs),
(534,581,o),
(472,525,o),
(438,438,c),
(501,433,l),
(460,522,o),
(392,581,o),
(264,581,cs),
(121,581,o),
(31,490,o),
(31,357,cs),
(31,249,o),
(74,164,o),
(199,164,cs),
(309,164,o),
(359,228,o),
(359,325,cs),
(359,412,o),
(316,464,o),
(262,486,c),
(146,435,l),
(211,420,o),
(235,376,o),
(235,331,cs),
(235,295,o),
(221,278,o),
(199,278,cs),
(171,278,o),
(159,304,o),
(159,343,cs),
(159,383,o),
(169,414,o),
(192,444,c),
(216,454,l),
(240,462,o),
(257,466,o),
(281,466,cs),
(358,466,o),
(394,420,o),
(394,314,cs),
(394,204,l),
(552,204,l),
(552,334,ls),
(552,390,o),
(559,418,o),
(575,437,cs),
(585,449,o),
(599,455,o),
(617,455,cs),
(659,455,o),
(685,413,o),
(685,340,cs),
(685,276,o),
(674,231,o),
(644,203,cs),
(611,171,o),
(572,160,o),
(472,160,cs),
(397,160,ls),
(266,160,o),
(196,145,o),
(137,112,cs),
(69,74,o),
(31,10,o),
(31,-84,cs),
(31,-241,o),
(118,-321,o),
(263,-321,cs)
);
}
);
width = 877;
}
);
unicode = 2960;
},
{
glyphname = otamil;
lastChange = "2020-03-17 13:07:53 +0000";
layers = (
{
anchors = (
{
name = Anchor10;
pos = (462,-29);
},
{
name = Anchor8;
pos = (462,-29);
}
);
layerId = UUID0;
shapes = (
{
closed = 1;
nodes = (
(823,86,o),
(869,148,o),
(869,250,cs),
(869,342,o),
(830,415,o),
(767,467,cs),
(694,527,o),
(587,558,o),
(464,558,cs),
(349,558,o),
(253,535,o),
(181,487,cs),
(103,435,o),
(56,361,o),
(56,266,cs),
(56,133,o),
(124,73,o),
(208,73,cs),
(290,73,o),
(353,119,o),
(353,229,cs),
(353,321,o),
(301,378,o),
(215,378,cs),
(152,378,o),
(101,345,o),
(61,300,c),
(74,283,l),
(120,328,o),
(159,353,o),
(216,353,cs),
(276,353,o),
(326,318,o),
(326,228,cs),
(326,133,o),
(275,98,o),
(209,98,cs),
(130,98,o),
(83,156,o),
(83,265,cs),
(83,278,o),
(84,291,o),
(86,303,cs),
(89,324,l),
(125,456,o),
(264,533,o),
(463,533,cs),
(693,533,o),
(842,424,o),
(842,249,cs),
(842,157,o),
(804,111,o),
(734,111,cs),
(657,111,o),
(627,156,o),
(627,212,cs),
(627,257,o),
(637,294,o),
(661,328,c),
(639,345,l),
(547,320,o),
(462,255,o),
(462,128,cs),
(462,32,o),
(510,-69,o),
(684,-80,c),
(696,-82,o),
(712,-83,o),
(727,-83,cs),
(812,-83,l),
(812,-59,l),
(738,-59,ls),
(633,-59,o),
(574,-38,o),
(534,2,cs),
(504,32,o),
(489,73,o),
(489,128,cs),
(489,232,o),
(551,297,o),
(646,322,c),
(633,330,l),
(612,298,o),
(600,255,o),
(600,214,cs),
(600,135,o),
(650,86,o),
(732,86,cs)
);
},
{
closed = 1;
nodes = (
(487,-321,o),
(559,-271,o),
(628,-165,cs),
(668,-104,o),
(695,-81,o),
(727,-67,c),
(690,-62,l),
(664,-77,o),
(641,-99,o),
(610,-144,cs),
(559,-218,o),
(505,-296,o),
(380,-296,cs),
(295,-296,o),
(238,-248,o),
(238,-153,cs),
(238,-106,o),
(253,-57,o),
(300,2,c),
(278,17,l),
(234,-39,o),
(211,-97,o),
(211,-153,cs),
(211,-265,o),
(284,-321,o),
(381,-321,cs)
);
}
);
width = 925;
},
{
anchors = (
{
name = Anchor10;
pos = (493,-29);
},
{
name = Anchor8;
pos = (493,-29);
}
);
layerId = "4900EB3E-CEE9-4F53-85D9-05D95ABCFDBA";
shapes = (
{
closed = 1;
nodes = (
(898,64,o),
(933,167,o),
(933,256,cs),
(933,318,o),
(912,385,o),
(866,435,cs),
(791,517,o),
(671,566,o),
(502,566,cs),
(360,566,o),
(247,543,o),
(158,475,cs),
(95,427,o),
(52,357,o),
(52,269,cs),
(52,135,o),
(139,64,o),
(234,64,cs),
(337,64,o),
(398,126,o),
(398,229,cs),
(398,327,o),
(338,382,o),
(250,382,cs),
(214,382,o),
(174,370,o),
(143,348,c),
(125,262,l),
(156,292,o),
(192,312,o),
(230,312,cs),
(282,312,o),
(316,279,o),
(316,221,cs),
(316,164,o),
(285,132,o),
(239,132,cs),
(177,132,o),
(131,177,o),
(131,268,cs),
(131,280,o),
(133,292,o),
(135,305,c),
(146,347,l),
(193,439,o),
(318,490,o),
(503,490,cs),
(710,490,o),
(848,399,o),
(848,245,cs),
(848,182,o),
(820,135,o),
(765,135,cs),
(700,135,o),
(683,174,o),
(683,221,cs),
(683,258,o),
(692,285,o),
(708,319,c),
(627,358,l),
(528,307,o),
(466,223,o),
(466,126,cs),
(466,32,o),
(514,-55,o),
(656,-94,c),
(685,-102,o),
(720,-108,o),
(790,-108,cs),
(876,-108,l),
(876,-37,l),
(796,-37,ls),
(683,-37,o),
(626,-20,o),
(586,23,cs),
(561,50,o),
(547,86,o),
(547,134,cs),
(547,200,o),
(581,256,o),
(652,295,c),
(640,299,l),
(618,276,o),
(611,234,o),
(611,203,cs),
(611,104,o),
(681,64,o),
(766,64,cs)
);
},
{
closed = 1;
nodes = (
(546,-321,o),
(619,-260,o),
(674,-153,c),
(683,-136,o),
(700,-109,o),
(713,-95,c),
(637,-64,l),
(627,-75,o),
(605,-106,o),
(593,-128,cs),
(551,-197,o),
(505,-248,o),
(416,-248,cs),
(354,-248,o),
(295,-227,o),
(295,-144,cs),
(295,-102,o),
(309,-66,o),
(342,-17,c),
(268,19,l),
(227,-32,o),
(208,-92,o),
(208,-145,cs),
(208,-267,o),
(300,-321,o),
(409,-321,cs)
);
}
);
width = 985;
},
{
anchors = (
{
name = Anchor10;
pos = (563,-29);
},
{
name = Anchor8;
pos = (563,-29);
}
);
layerId = "4BF31C0D-0A66-4B39-96F9-ACB961E601E6";
shapes = (
{
closed = 1;
nodes = (
(1034,47,o),
(1088,153,o),
(1088,246,cs),
(1088,345,o),
(1045,416,o),
(980,465,cs),
(865,552,o),
(711,574,o),
(549,574,cs),
(392,574,o),
(223,545,o),
(117,447,cs),
(68,402,o),
(38,343,o),
(38,267,cs),
(38,136,o),
(126,54,o),
(255,54,cs),
(372,54,o),
(457,105,o),
(457,229,cs),
(457,333,o),
(384,389,o),
(286,389,cs),
(227,389,o),
(184,364,o),
(152,338,c),
(146,245,l),
(178,278,o),
(215,298,o),
(255,298,cs),
(301,298,o),
(328,271,o),
(328,230,cs),
(328,184,o),
(302,157,o),
(254,157,cs),
(198,157,o),
(167,193,o),
(167,262,cs),
(167,280,o),
(167,294,o),
(168,307,c),
(171,336,l),
(217,417,o),
(370,464,o),
(562,464,cs),
(794,464,o),
(944,378,o),
(944,241,cs),
(944,199,o),
(933,150,o),
(875,150,cs),
(817,150,o),
(802,190,o),
(802,233,cs),
(802,268,o),
(811,298,o),
(823,328,c),
(701,378,l),
(569,332,o),
(502,240,o),
(502,131,cs),
(502,20,o),
(563,-75,o),
(711,-111,c),
(753,-121,o),
(786,-127,o),
(858,-127,cs),
(989,-127,l),
(989,-20,l),
(876,-20,ls),
(773,-20,o),
(735,-9,o),
(698,13,cs),
(655,39,o),
(631,80,o),
(631,140,cs),
(631,186,o),
(651,240,o),
(714,272,c),
(698,272,l),
(686,250,o),
(683,220,o),
(683,201,cs),
(683,106,o),
(754,47,o),
(871,47,cs)
);
},
{
closed = 1;
nodes = (
(637,-321,o),
(727,-246,o),
(776,-149,cs),
(783,-136,o),
(799,-110,o),
(816,-91,c),
(674,-67,l),
(656,-80,o),
(641,-101,o),
(631,-117,cs),
(586,-188,o),
(540,-214,o),
(475,-214,cs),
(411,-214,o),
(376,-181,o),
(376,-125,cs),
(376,-94,o),
(388,-58,o),
(410,-28,c),
(288,23,l),
(253,-30,o),
(235,-87,o),
(235,-140,cs),
(235,-262,o),
(333,-321,o),
(472,-321,cs)
);
}
);
width = 1126;
},
{
anchors = (
{
name = Anchor10;
pos = (591,-29);
},
{
name = Anchor8;
pos = (591,-29);
}
);
layerId = "6732FEC1-CFA6-4586-B452-175C4A015291";
shapes = (
{
closed = 1;
nodes = (
(1090,37,o),
(1149,144,o),
(1149,251,cs),
(1149,349,o),
(1104,420,o),
(1035,470,cs),
(925,549,o),
(774,581,o),
(573,581,cs),
(392,581,o),
(254,556,o),
(148,484,cs),
(77,436,o),
(33,367,o),
(33,271,cs),
(33,137,o),
(120,48,o),
(264,48,cs),
(383,48,o),
(482,97,o),
(482,231,cs),
(482,341,o),
(401,398,o),
(306,398,cs),
(249,398,o),
(206,379,o),
(156,344,c),
(162,234,l),
(195,269,o),
(226,289,o),
(264,289,cs),
(299,289,o),
(324,273,o),
(324,234,cs),
(324,193,o),
(301,172,o),
(264,172,cs),
(204,172,o),
(192,227,o),
(192,261,cs),
(192,283,o),
(194,297,o),
(197,309,cs),
(205,346,l),
(299,430,o),
(422,446,o),
(583,446,cs),
(830,446,o),
(961,368,o),
(961,238,cs),
(961,195,o),
(942,161,o),
(905,161,cs),
(858,161,o),
(843,193,o),
(843,241,cs),
(843,267,o),
(848,300,o),
(860,326,c),
(710,394,l),
(579,344,o),
(502,254,o),
(502,125,cs),
(502,34,o),
(557,-76,o),
(719,-118,c),
(763,-130,o),
(807,-138,o),
(888,-138,cs),
(1049,-138,l),
(1049,-9,l),
(930,-9,ls),
(793,-9,o),
(746,5,o),
(707,35,cs),
(673,61,o),
(656,98,o),
(656,144,cs),
(656,174,o),
(665,223,o),
(724,264,c),
(710,266,l),
(701,245,o),
(698,211,o),
(698,200,cs),
(698,107,o),
(760,37,o),
(906,37,cs)
);
},
{
closed = 1;
nodes = (
(646,-321,o),
(734,-266,o),
(814,-154,cs),
(831,-130,o),
(845,-109,o),
(865,-87,c),
(692,-58,l),
(668,-73,o),
(654,-92,o),
(644,-106,cs),
(593,-173,o),
(556,-191,o),
(495,-191,cs),
(433,-191,o),
(408,-159,o),
(408,-118,cs),
(408,-93,o),
(417,-69,o),
(436,-41,c),
(276,29,l),
(242,-24,o),
(225,-69,o),
(225,-125,cs),
(225,-259,o),
(336,-321,o),
(491,-321,cs)
);
}
);
width = 1182;
},
{
anchors = (
{
name = Anchor10;
pos = (354,-29);
},
{
name = Anchor8;
pos = (354,-29);
}
);
layerId = "960C9600-7588-48B9-A77D-42B729BBBC0C";
shapes = (
{
closed = 1;
nodes = (
(624,86,o),
(662,143,o),
(662,246,cs),
(662,354,o),
(623,441,o),
(554,495,cs),
(503,535,o),
(435,558,o),
(355,558,cs),
(267,558,o),
(190,530,o),
(135,480,cs),
(80,430,o),
(47,360,o),
(47,267,cs),
(47,119,o),
(99,73,o),
(163,73,cs),
(222,73,o),
(267,111,o),
(267,229,cs),
(267,329,o),
(221,378,o),
(158,378,cs),
(125,378,o),
(90,357,o),
(60,324,c),
(64,300,l),
(93,333,o),
(124,353,o),
(157,353,cs),
(203,353,o),
(240,321,o),
(240,228,cs),
(240,125,o),
(207,98,o),
(163,98,cs),
(105,98,o),
(74,150,o),
(74,268,cs),
(74,291,o),
(76,313,o),
(81,333,c),
(82,341,l),
(115,467,o),
(224,533,o),
(353,533,cs),
(524,533,o),
(636,424,o),
(636,246,cs),
(636,154,o),
(606,111,o),
(557,111,cs),
(499,111,o),
(485,156,o),
(485,209,cs),
(485,257,o),
(495,288,o),
(513,328,c),
(486,345,l),
(407,316,o),
(336,252,o),
(336,134,cs),
(336,11,o),
(415,-58,o),
(529,-77,c),
(547,-80,o),
(568,-83,o),
(598,-83,cs),
(628,-83,l),
(628,-59,l),
(606,-59,ls),
(517,-59,o),
(458,-40,o),
(416,0,cs),
(383,31,o),
(363,75,o),
(363,134,cs),
(363,236,o),
(418,297,o),
(502,326,c),
(487,330,l),
(467,295,o),
(458,253,o),
(458,208,cs),
(458,130,o),
(492,86,o),
(557,86,cs)
);
},
{
closed = 1;
nodes = (
(379,-321,o),
(440,-266,o),
(495,-164,cs),
(527,-104,o),
(541,-86,o),
(560,-67,c),
(534,-59,l),
(513,-78,o),
(499,-101,o),
(471,-153,cs),
(418,-251,o),
(364,-296,o),
(278,-296,cs),
(203,-296,o),
(165,-245,o),
(165,-168,cs),
(165,-106,o),
(189,-61,o),
(234,2,c),
(213,16,l),
(169,-41,o),
(138,-100,o),
(138,-168,cs),
(138,-266,o),
(195,-321,o),
(278,-321,cs)
);
}
);
width = 709;
},
{
anchors = (
{
name = Anchor10;
pos = (385,-29);
},
{
name = Anchor8;
pos = (385,-29);
}
);
layerId = "AA356D29-EBA3-4BA7-B11E-09F9C5534C37";
shapes = (
{
closed = 1;
nodes = (
(702,64,o),
(728,167,o),
(728,246,cs),
(728,325,o),
(702,400,o),
(657,453,cs),
(595,526,o),
(506,566,o),
(385,566,cs),
(278,566,o),
(204,541,o),
(145,495,cs),
(80,444,o),
(42,368,o),
(42,275,cs),
(42,140,o),
(101,64,o),
(184,64,cs),
(260,64,o),
(312,110,o),
(312,229,cs),
(312,333,o),
(264,391,o),
(197,391,cs),
(158,391,o),
(123,375,o),
(99,350,c),
(99,287,l),
(123,313,o),
(148,326,o),
(177,326,cs),
(214,326,o),
(237,291,o),
(237,224,cs),
(237,156,o),
(217,128,o),
(185,128,cs),
(141,128,o),
(113,175,o),
(113,272,cs),
(113,294,o),
(115,315,o),
(120,333,c),
(124,355,l),
(168,456,o),
(267,495,o),
(385,495,cs),
(547,495,o),
(650,408,o),
(650,240,cs),
(650,176,o),
(634,131,o),
(592,131,cs),
(550,131,o),
(538,170,o),
(538,211,cs),
(538,254,o),
(548,288,o),
(564,326,c),
(489,363,l),
(402,313,o),
(350,226,o),
(350,131,cs),
(350,24,o),
(404,-70,o),
(537,-94,cs),
(561,-98,o),
(595,-103,o),
(629,-103,cs),
(684,-103,l),
(684,-37,l),
(647,-37,ls),
(549,-37,o),
(500,-22,o),
(464,13,cs),
(436,41,o),
(421,81,o),
(421,134,cs),
(421,198,o),
(447,260,o),
(494,297,c),
(496,304,l),
(482,275,o),
(471,245,o),
(471,195,cs),
(471,106,o),
(523,64,o),
(593,64,cs)
);
},
{
closed = 1;
nodes = (
(428,-321,o),
(492,-262,o),
(544,-165,cs),
(562,-132,o),
(582,-100,o),
(600,-78,c),
(520,-61,l),
(507,-75,o),
(488,-105,o),
(477,-125,cs),
(428,-217,o),
(381,-254,o),
(314,-254,cs),
(263,-254,o),
(221,-227,o),
(221,-156,cs),
(221,-104,o),
(242,-63,o),
(275,-17,c),
(208,19,l),
(164,-40,o),
(143,-89,o),
(143,-156,cs),
(143,-254,o),
(202,-321,o),
(308,-321,cs)
);
}
);
width = 770;
},
{
anchors = (
{
name = Anchor10;
pos = (469,-29);
},
{
name = Anchor8;
pos = (469,-29);
}
);
layerId = "DB7E4487-AAA8-4905-9B27-B72FA6056893";
shapes = (
{
closed = 1;
nodes = (
(846,37,o),
(909,124,o),
(909,242,cs),
(909,350,o),
(865,430,o),
(797,485,cs),
(715,551,o),
(599,581,o),
(468,581,cs),
(331,581,o),
(233,556,o),
(151,499,cs),
(79,448,o),
(29,373,o),
(29,265,cs),
(29,133,o),
(90,48,o),
(209,48,cs),
(310,48,o),
(377,97,o),
(377,230,cs),
(377,337,o),
(313,393,o),
(243,393,cs),
(207,393,o),
(167,383,o),
(120,351,c),
(133,251,l),
(160,282,o),
(179,294,o),
(205,294,cs),
(231,294,o),
(246,273,o),
(246,228,cs),
(246,183,o),
(234,166,o),
(207,166,cs),
(172,166,o),
(161,208,o),
(161,254,cs),
(161,283,o),
(164,298,o),
(168,313,c),
(175,343,l),
(252,428,o),
(360,452,o),
(467,452,cs),
(656,452,o),
(750,365,o),
(750,231,cs),
(750,167,o),
(732,156,o),
(711,156,cs),
(682,156,o),
(670,183,o),
(670,233,cs),
(670,262,o),
(675,291,o),
(686,326,c),
(556,394,l),
(456,336,o),
(385,257,o),
(385,130,cs),
(385,28,o),
(437,-66,o),
(563,-107,c),
(596,-119,o),
(645,-135,o),
(748,-135,cs),
(831,-135,l),
(831,-12,l),
(754,-12,ls),
(659,-12,o),
(615,1,o),
(579,24,cs),
(537,52,o),
(518,94,o),
(518,147,cs),
(518,192,o),
(530,233,o),
(571,274,c),
(566,277,l),
(554,247,o),
(548,224,o),
(548,190,cs),
(548,107,o),
(589,37,o),
(725,37,cs)
);
},
{
closed = 1;
nodes = (
(510,-321,o),
(590,-282,o),
(668,-154,cs),
(683,-129,o),
(702,-106,o),
(718,-88,c),
(563,-53,l),
(546,-69,o),
(526,-94,o),
(510,-118,cs),
(471,-177,o),
(442,-197,o),
(400,-197,cs),
(356,-197,o),
(330,-172,o),
(330,-126,cs),
(330,-97,o),
(340,-69,o),
(359,-41,c),
(223,29,l),
(190,-21,o),
(174,-69,o),
(174,-125,cs),
(174,-259,o),
(273,-321,o),
(391,-321,cs)
);
}
);
width = 938;
}
);
unicode = 2962;
},
{
glyphname = ootamil;
lastChange = "2020-03-17 13:07:53 +0000";
layers = (
{
anchors = (
{
name = Anchor10;
pos = (462,-29);
},
{
name = Anchor8;
pos = (462,-29);
}
);
layerId = UUID0;
shapes = (
{
closed = 1;
nodes = (
(823,86,o),
(869,148,o),
(869,250,cs),
(869,342,o),
(830,415,o),
(767,467,cs),
(694,527,o),
(587,558,o),
(464,558,cs),
(349,558,o),
(253,535,o),
(181,487,cs),
(103,435,o),
(56,361,o),
(56,266,cs),
(56,133,o),
(124,73,o),
(208,73,cs),
(290,73,o),
(353,119,o),
(353,229,cs),
(353,321,o),
(301,378,o),
(215,378,cs),
(152,378,o),
(101,345,o),
(61,300,c),
(74,283,l),
(120,328,o),
(159,353,o),
(216,353,cs),
(276,353,o),
(326,318,o),
(326,228,cs),
(326,133,o),
(275,98,o),
(209,98,cs),
(130,98,o),
(83,156,o),
(83,265,cs),
(83,278,o),
(84,291,o),
(86,303,cs),
(89,324,l),
(125,456,o),
(264,533,o),
(463,533,cs),
(693,533,o),
(842,424,o),
(842,249,cs),
(842,157,o),
(804,111,o),
(734,111,cs),
(657,111,o),
(627,156,o),
(627,212,cs),
(627,257,o),
(637,294,o),
(661,328,c),
(639,345,l),
(547,320,o),
(462,255,o),
(462,128,cs),
(462,32,o),
(510,-69,o),
(684,-80,c),
(696,-82,o),
(712,-83,o),
(727,-83,cs),
(812,-83,l),
(812,-59,l),
(738,-59,ls),
(633,-59,o),
(574,-38,o),
(534,2,cs),
(504,32,o),
(489,73,o),
(489,128,cs),
(489,232,o),
(551,297,o),
(646,322,c),
(633,330,l),
(612,298,o),
(600,255,o),
(600,214,cs),
(600,135,o),
(650,86,o),
(732,86,cs)
);
},
{
closed = 1;
nodes = (
(228,-25,o),
(161,-67,o),
(161,-158,cs),
(161,-207,o),
(181,-250,o),
(217,-279,cs),
(251,-306,o),
(297,-321,o),
(368,-321,cs),
(371,-321,ls),
(487,-321,o),
(559,-271,o),
(628,-165,cs),
(668,-104,o),
(695,-81,o),
(727,-67,c),
(690,-62,l),
(664,-77,o),
(641,-99,o),
(610,-144,cs),
(559,-218,o),
(505,-296,o),
(377,-296,cs),
(356,-296,ls),
(247,-296,o),
(188,-241,o),
(188,-159,cs),
(188,-88,o),
(235,-50,o),
(295,-50,cs),
(377,-50,o),
(407,-106,o),
(407,-162,cs),
(407,-210,o),
(384,-263,o),
(340,-298,c),
(368,-305,l),
(412,-264,o),
(434,-219,o),
(434,-160,cs),
(434,-91,o),
(390,-25,o),
(296,-25,cs)
);
}
);
width = 925;
},
{
anchors = (
{
name = Anchor10;
pos = (493,-29);
},
{
name = Anchor8;
pos = (493,-29);
}
);
layerId = "4900EB3E-CEE9-4F53-85D9-05D95ABCFDBA";
shapes = (
{
closed = 1;
nodes = (
(898,64,o),
(933,167,o),
(933,256,cs),
(933,318,o),
(912,385,o),
(866,435,cs),
(791,517,o),
(671,566,o),
(502,566,cs),
(360,566,o),
(247,543,o),
(158,475,cs),
(95,427,o),
(52,357,o),
(52,269,cs),
(52,135,o),
(139,64,o),
(234,64,cs),
(337,64,o),
(398,126,o),
(398,229,cs),
(398,327,o),
(338,382,o),
(250,382,cs),
(214,382,o),
(174,370,o),
(143,348,c),
(125,262,l),
(156,292,o),
(192,312,o),
(230,312,cs),
(282,312,o),
(316,279,o),
(316,221,cs),
(316,164,o),
(285,132,o),
(239,132,cs),
(177,132,o),
(131,177,o),
(131,268,cs),
(131,280,o),
(133,292,o),
(135,305,c),
(146,347,l),
(193,439,o),
(318,490,o),
(503,490,cs),
(710,490,o),
(848,399,o),
(848,245,cs),
(848,182,o),
(820,135,o),
(765,135,cs),
(700,135,o),
(683,174,o),
(683,221,cs),
(683,258,o),
(692,285,o),
(708,319,c),
(627,358,l),
(528,307,o),
(466,223,o),
(466,126,cs),
(466,32,o),
(514,-55,o),
(656,-94,cs),
(685,-102,o),
(720,-108,o),
(790,-108,cs),
(876,-108,l),
(876,-37,l),
(796,-37,ls),
(683,-37,o),
(626,-20,o),
(586,23,cs),
(561,50,o),
(547,86,o),
(547,134,cs),
(547,200,o),
(581,256,o),
(652,295,c),
(640,299,l),
(618,276,o),
(611,234,o),
(611,203,cs),
(611,104,o),
(681,64,o),
(766,64,cs)
);
},
{
closed = 1;
nodes = (
(224,-7,o),
(157,-65,o),
(157,-152,cs),
(157,-205,o),
(178,-244,o),
(213,-272,cs),
(255,-305,o),
(317,-321,o),
(388,-321,cs),
(409,-321,ls),
(546,-321,o),
(619,-260,o),
(674,-153,cs),
(684,-134,o),
(693,-117,o),
(706,-103,c),
(625,-80,l),
(615,-91,o),
(606,-106,o),
(593,-128,cs),
(551,-200,o),
(512,-238,o),
(434,-249,c),
(365,-251,l),
(308,-250,o),
(238,-232,o),
(238,-155,cs),
(238,-95,o),
(280,-76,o),
(314,-76,cs),
(375,-76,o),
(396,-115,o),
(396,-161,cs),
(396,-196,o),
(382,-228,o),
(351,-257,c),
(439,-253,l),
(464,-224,o),
(479,-191,o),
(479,-148,cs),
(479,-80,o),
(430,-7,o),
(317,-7,cs)
);
}
);
width = 985;
},
{
anchors = (
{
name = Anchor10;
pos = (563,-29);
},
{
name = Anchor8;
pos = (563,-29);
}
);
layerId = "4BF31C0D-0A66-4B39-96F9-ACB961E601E6";
shapes = (
{
closed = 1;
nodes = (
(1034,47,o),
(1088,153,o),
(1088,246,cs),
(1088,345,o),
(1045,416,o),
(980,465,cs),
(865,552,o),
(711,574,o),
(549,574,cs),
(392,574,o),
(223,545,o),
(117,447,cs),
(68,402,o),
(38,343,o),
(38,267,cs),
(38,136,o),
(126,54,o),
(255,54,cs),
(372,54,o),
(457,105,o),
(457,229,cs),
(457,333,o),
(384,389,o),
(286,389,cs),
(227,389,o),
(184,364,o),
(152,338,c),
(146,245,l),
(178,278,o),
(215,298,o),
(255,298,cs),
(301,298,o),
(328,271,o),
(328,230,cs),
(328,184,o),
(302,157,o),
(254,157,cs),
(198,157,o),
(167,193,o),
(167,262,cs),
(167,280,o),
(167,294,o),
(168,307,cs),
(171,336,l),
(217,417,o),
(370,464,o),
(562,464,cs),
(794,464,o),
(944,378,o),
(944,241,cs),
(944,199,o),
(933,150,o),
(875,150,cs),
(817,150,o),
(802,190,o),
(802,233,cs),
(802,268,o),
(811,298,o),
(823,328,c),
(701,378,l),
(569,332,o),
(502,240,o),
(502,131,cs),
(502,20,o),
(563,-75,o),
(711,-111,cs),
(753,-121,o),
(786,-127,o),
(858,-127,cs),
(989,-127,l),
(989,-20,l),
(876,-20,ls),
(773,-20,o),
(735,-9,o),
(698,13,cs),
(655,39,o),
(631,80,o),
(631,140,cs),
(631,186,o),
(651,240,o),
(714,272,c),
(698,272,l),
(686,250,o),
(683,220,o),
(683,201,cs),
(683,106,o),
(754,47,o),
(871,47,cs)
);
},
{
closed = 1;
nodes = (
(211,18,o),
(145,-51,o),
(145,-145,cs),
(145,-202,o),
(174,-248,o),
(226,-279,cs),
(270,-306,o),
(329,-321,o),
(436,-321,cs),
(450,-321,ls),
(628,-321,o),
(720,-254,o),
(774,-149,cs),
(781,-136,o),
(797,-110,o),
(814,-91,c),
(679,-67,l),
(661,-80,o),
(646,-102,o),
(636,-118,cs),
(591,-192,o),
(544,-220,o),
(480,-220,cs),
(397,-220,ls),
(357,-220,o),
(274,-216,o),
(274,-144,cs),
(274,-110,o),
(294,-85,o),
(337,-85,cs),
(377,-85,o),
(405,-105,o),
(405,-150,cs),
(405,-175,o),
(395,-206,o),
(377,-229,c),
(495,-249,l),
(512,-227,o),
(530,-184,o),
(530,-132,cs),
(530,-52,o),
(473,18,o),
(340,18,cs)
);
}
);
width = 1126;
},
{
anchors = (
{
name = Anchor10;
pos = (591,-29);
},
{
name = Anchor8;
pos = (591,-29);
}
);
layerId = "6732FEC1-CFA6-4586-B452-175C4A015291";
shapes = (
{
closed = 1;
nodes = (
(1090,37,o),
(1149,144,o),
(1149,251,cs),
(1149,349,o),
(1104,420,o),
(1035,470,cs),
(925,549,o),
(774,581,o),
(573,581,cs),
(392,581,o),
(254,556,o),
(148,484,cs),
(77,436,o),
(33,367,o),
(33,271,cs),
(33,137,o),
(120,48,o),
(264,48,cs),
(383,48,o),
(482,97,o),
(482,231,cs),
(482,341,o),
(401,398,o),
(306,398,cs),
(249,398,o),
(206,379,o),
(156,344,c),
(162,234,l),
(195,269,o),
(226,289,o),
(264,289,cs),
(299,289,o),
(324,273,o),
(324,234,cs),
(324,193,o),
(301,172,o),
(264,172,cs),
(204,172,o),
(192,227,o),
(192,261,cs),
(192,283,o),
(194,297,o),
(197,309,cs),
(205,346,l),
(299,430,o),
(422,446,o),
(583,446,cs),
(830,446,o),
(961,368,o),
(961,238,cs),
(961,195,o),
(942,161,o),
(905,161,cs),
(858,161,o),
(843,193,o),
(843,241,cs),
(843,267,o),
(848,300,o),
(860,326,c),
(710,394,l),
(579,344,o),
(502,254,o),
(502,125,cs),
(502,34,o),
(557,-76,o),
(719,-118,cs),
(763,-130,o),
(807,-138,o),
(888,-138,cs),
(1049,-138,l),
(1049,-9,l),
(930,-9,ls),
(793,-9,o),
(746,5,o),
(707,35,cs),
(673,61,o),
(656,98,o),
(656,144,cs),
(656,174,o),
(665,223,o),
(724,264,c),
(710,266,l),
(701,245,o),
(698,211,o),
(698,200,cs),
(698,107,o),
(760,37,o),
(906,37,cs)
);
},
{
closed = 1;
nodes = (
(206,33,o),
(139,-41,o),
(139,-131,cs),
(139,-200,o),
(174,-252,o),
(237,-285,cs),
(283,-308,o),
(339,-321,o),
(456,-321,cs),
(476,-321,ls),
(658,-321,o),
(739,-259,o),
(814,-154,cs),
(831,-130,o),
(845,-109,o),
(865,-87,c),
(692,-58,l),
(668,-73,o),
(654,-92,o),
(644,-106,cs),
(593,-173,o),
(563,-201,o),
(490,-201,cs),
(406,-201,ls),
(338,-201,o),
(298,-190,o),
(298,-140,cs),
(298,-114,o),
(316,-91,o),
(349,-91,cs),
(375,-91,o),
(402,-104,o),
(402,-143,cs),
(402,-165,o),
(394,-190,o),
(379,-209,c),
(511,-243,l),
(531,-222,o),
(552,-179,o),
(552,-121,cs),
(552,-41,o),
(497,33,o),
(352,33,cs)
);
}
);
width = 1182;
},
{
anchors = (
{
name = Anchor10;
pos = (354,-29);
},
{
name = Anchor8;
pos = (354,-29);
}
);
layerId = "960C9600-7588-48B9-A77D-42B729BBBC0C";
shapes = (
{
closed = 1;
nodes = (
(624,86,o),
(662,143,o),
(662,246,cs),
(662,354,o),
(623,441,o),
(554,495,cs),
(503,535,o),
(435,558,o),
(355,558,cs),
(267,558,o),
(190,530,o),
(135,480,cs),
(80,430,o),
(47,360,o),
(47,267,cs),
(47,119,o),
(99,73,o),
(163,73,cs),
(222,73,o),
(267,111,o),
(267,229,cs),
(267,329,o),
(221,378,o),
(158,378,cs),
(125,378,o),
(90,357,o),
(60,324,c),
(64,300,l),
(93,333,o),
(124,353,o),
(157,353,cs),
(203,353,o),
(240,321,o),
(240,228,cs),
(240,125,o),
(207,98,o),
(163,98,cs),
(105,98,o),
(74,150,o),
(74,268,cs),
(74,291,o),
(76,313,o),
(81,333,c),
(82,341,l),
(115,467,o),
(224,533,o),
(353,533,cs),
(524,533,o),
(636,424,o),
(636,246,cs),
(636,154,o),
(606,111,o),
(557,111,cs),
(499,111,o),
(485,156,o),
(485,209,cs),
(485,257,o),
(495,288,o),
(513,328,c),
(486,345,l),
(407,316,o),
(336,252,o),
(336,134,cs),
(336,11,o),
(415,-58,o),
(529,-77,cs),
(547,-80,o),
(568,-83,o),
(598,-83,cs),
(628,-83,l),
(628,-59,l),
(606,-59,ls),
(517,-59,o),
(458,-40,o),
(416,0,cs),
(383,31,o),
(363,75,o),
(363,134,cs),
(363,236,o),
(418,297,o),
(502,326,c),
(487,330,l),
(467,295,o),
(458,253,o),
(458,208,cs),
(458,130,o),
(492,86,o),
(557,86,cs)
);
},
{
closed = 1;
nodes = (
(165,-25,o),
(118,-70,o),
(118,-158,cs),
(118,-217,o),
(138,-260,o),
(173,-288,cs),
(200,-309,o),
(234,-321,o),
(280,-321,cs),
(282,-321,ls),
(376,-321,o),
(439,-268,o),
(495,-164,cs),
(527,-104,o),
(541,-86,o),
(560,-67,c),
(534,-59,l),
(513,-78,o),
(499,-101,o),
(471,-153,cs),
(416,-254,o),
(362,-296,o),
(282,-296,cs),
(273,-296,ls),
(192,-296,o),
(145,-241,o),
(145,-158,cs),
(145,-88,o),
(177,-50,o),
(220,-50,cs),
(276,-50,o),
(293,-103,o),
(293,-150,cs),
(293,-212,o),
(270,-267,o),
(243,-299,c),
(270,-307,l),
(297,-268,o),
(320,-219,o),
(320,-148,cs),
(320,-85,o),
(290,-25,o),
(220,-25,cs)
);
}
);
width = 709;
},
{
anchors = (
{
name = Anchor10;
pos = (385,-29);
},
{
name = Anchor8;
pos = (385,-29);
}
);
layerId = "AA356D29-EBA3-4BA7-B11E-09F9C5534C37";
shapes = (
{
closed = 1;
nodes = (
(702,64,o),
(728,167,o),
(728,246,cs),
(728,325,o),
(702,400,o),
(657,453,cs),
(595,526,o),
(506,566,o),
(385,566,cs),
(278,566,o),
(204,541,o),
(145,495,cs),
(80,444,o),
(42,368,o),
(42,275,cs),
(42,140,o),
(101,64,o),
(184,64,cs),
(260,64,o),
(312,110,o),
(312,229,cs),
(312,333,o),
(264,391,o),
(197,391,cs),
(158,391,o),
(123,375,o),
(99,350,c),
(99,287,l),
(123,313,o),
(148,326,o),
(177,326,cs),
(214,326,o),
(237,291,o),
(237,224,cs),
(237,156,o),
(217,128,o),
(185,128,cs),
(141,128,o),
(113,175,o),
(113,272,cs),
(113,294,o),
(115,315,o),
(120,333,c),
(124,355,l),
(168,456,o),
(267,495,o),
(385,495,cs),
(547,495,o),
(650,408,o),
(650,240,cs),
(650,176,o),
(634,131,o),
(592,131,cs),
(550,131,o),
(538,170,o),
(538,211,cs),
(538,254,o),
(548,288,o),
(564,326,c),
(489,363,l),
(402,313,o),
(350,226,o),
(350,131,cs),
(350,24,o),
(404,-70,o),
(537,-94,cs),
(561,-98,o),
(595,-103,o),
(629,-103,cs),
(684,-103,l),
(684,-37,l),
(647,-37,ls),
(549,-37,o),
(500,-22,o),
(464,13,cs),
(436,41,o),
(421,81,o),
(421,134,cs),
(421,198,o),
(447,260,o),
(494,297,c),
(496,304,l),
(482,275,o),
(471,245,o),
(471,195,cs),
(471,106,o),
(523,64,o),
(593,64,cs)
);
},
{
closed = 1;
nodes = (
(162,-7,o),
(117,-67,o),
(117,-148,cs),
(117,-201,o),
(134,-244,o),
(166,-274,cs),
(197,-304,o),
(241,-321,o),
(302,-321,cs),
(312,-321,ls),
(428,-321,o),
(492,-262,o),
(544,-165,cs),
(562,-132,o),
(582,-100,o),
(600,-78,c),
(520,-61,l),
(507,-75,o),
(488,-104,o),
(477,-125,cs),
(435,-207,o),
(387,-254,o),
(330,-257,c),
(279,-257,l),
(244,-256,o),
(190,-228,o),
(190,-152,cs),
(190,-98,o),
(212,-71,o),
(243,-71,cs),
(276,-71,o),
(292,-99,o),
(292,-148,cs),
(292,-193,o),
(280,-233,o),
(258,-269,c),
(331,-277,l),
(351,-242,o),
(367,-196,o),
(367,-142,cs),
(367,-70,o),
(329,-7,o),
(242,-7,cs)
);
}
);
width = 770;
},
{
anchors = (
{
name = Anchor10;
pos = (469,-29);
},
{
name = Anchor8;
pos = (469,-29);
}
);
layerId = "DB7E4487-AAA8-4905-9B27-B72FA6056893";
shapes = (
{
closed = 1;
nodes = (
(846,37,o),
(909,124,o),
(909,242,cs),
(909,350,o),
(865,430,o),
(797,485,cs),
(715,551,o),
(599,581,o),
(468,581,cs),
(331,581,o),
(233,556,o),
(151,499,cs),
(79,448,o),
(29,373,o),
(29,265,cs),
(29,133,o),
(90,48,o),
(209,48,cs),
(310,48,o),
(377,97,o),
(377,230,cs),
(377,337,o),
(313,393,o),
(243,393,cs),
(207,393,o),
(167,383,o),
(120,351,c),
(133,251,l),
(160,282,o),
(179,294,o),
(205,294,cs),
(231,294,o),
(246,273,o),
(246,228,cs),
(246,183,o),
(234,166,o),
(207,166,cs),
(172,166,o),
(161,208,o),
(161,254,cs),
(161,283,o),
(164,298,o),
(168,313,cs),
(175,343,l),
(252,428,o),
(360,452,o),
(467,452,cs),
(656,452,o),
(750,365,o),
(750,231,cs),
(750,167,o),
(732,156,o),
(711,156,cs),
(682,156,o),
(670,183,o),
(670,233,cs),
(670,262,o),
(675,291,o),
(686,326,c),
(556,394,l),
(456,336,o),
(385,257,o),
(385,130,cs),
(385,28,o),
(437,-66,o),
(563,-107,c),
(596,-119,o),
(645,-135,o),
(748,-135,cs),
(831,-135,l),
(831,-12,l),
(754,-12,ls),
(659,-12,o),
(615,1,o),
(579,24,cs),
(537,52,o),
(518,94,o),
(518,147,cs),
(518,192,o),
(530,233,o),
(571,274,c),
(566,277,l),
(554,247,o),
(548,224,o),
(548,190,cs),
(548,107,o),
(589,37,o),
(725,37,cs)
);
},
{
closed = 1;
nodes = (
(159,33,o),
(104,-41,o),
(104,-131,cs),
(104,-205,o),
(133,-249,o),
(176,-279,cs),
(218,-308,o),
(270,-321,o),
(359,-321,cs),
(377,-321,ls),
(515,-321,o),
(592,-280,o),
(668,-154,cs),
(683,-129,o),
(702,-106,o),
(718,-88,c),
(563,-53,l),
(546,-69,o),
(526,-94,o),
(510,-118,cs),
(471,-177,o),
(441,-207,o),
(356,-207,cs),
(326,-207,ls),
(244,-207,o),
(235,-172,o),
(235,-135,cs),
(235,-103,o),
(247,-85,o),
(267,-85,cs),
(285,-85,o),
(297,-101,o),
(297,-136,cs),
(297,-165,o),
(291,-187,o),
(277,-211,c),
(380,-241,l),
(402,-213,o),
(420,-182,o),
(420,-115,cs),
(420,-41,o),
(377,33,o),
(269,33,cs)
);
}
);
width = 938;
}
);
unicode = 2963;
},
{
glyphname = katamil;
lastChange = "2020-03-17 13:07:53 +0000";
layers = (
{
anchors = (
{
name = Anchor10;
pos = (377,-29);
},
{
name = Anchor12;
pos = (377,-78);
},
{
name = Anchor8;
pos = (377,-29);
}
);
layerId = UUID0;
shapes = (
{
closed = 1;
nodes = (
(302,-12,o),
(357,10,o),
(388,51,cs),
(415,86,o),
(428,130,o),
(428,194,cs),
(428,521,l),
(632,521,l),
(632,546,l),
(158,546,l),
(158,276,l),
(184,284,l),
(184,521,l),
(402,521,l),
(402,196,ls),
(402,62,o),
(334,13,o),
(235,13,cs),
(132,13,o),
(80,67,o),
(80,146,cs),
(80,190,o),
(96,221,o),
(123,243,cs),
(160,275,o),
(219,287,o),
(290,287,cs),
(474,287,ls),
(569,287,o),
(674,266,o),
(674,149,cs),
(674,63,o),
(630,15,o),
(551,15,cs),
(521,15,o),
(492,19,o),
(465,28,c),
(458,4,l),
(486,-5,o),
(519,-10,o),
(552,-10,cs),
(639,-10,o),
(701,43,o),
(701,149,cs),
(701,202,o),
(683,238,o),
(651,265,cs),
(612,299,o),
(554,312,o),
(468,312,cs),
(299,312,ls),
(135,312,o),
(53,252,o),
(53,145,cs),
(53,49,o),
(124,-12,o),
(234,-12,cs)
);
}
);
width = 754;
},
{
anchors = (
{
name = Anchor10;
pos = (412,-29);
},
{
name = Anchor12;
pos = (412,-78);
},
{
name = Anchor8;
pos = (412,-29);
}
);
layerId = "4900EB3E-CEE9-4F53-85D9-05D95ABCFDBA";
shapes = (
{
closed = 1;
nodes = (
(345,-12,o),
(411,6,o),
(452,57,cs),
(480,91,o),
(496,136,o),
(496,226,cs),
(496,482,l),
(683,482,l),
(683,554,l),
(160,554,l),
(160,286,l),
(239,302,l),
(239,482,l),
(411,482,l),
(411,213,ls),
(411,93,o),
(356,60,o),
(269,60,cs),
(192,60,o),
(135,91,o),
(135,153,cs),
(135,191,o),
(149,215,o),
(178,232,cs),
(211,251,o),
(257,258,o),
(325,258,cs),
(519,258,ls),
(602,258,o),
(690,247,o),
(690,156,cs),
(690,92,o),
(657,62,o),
(594,62,cs),
(568,62,o),
(541,66,o),
(521,72,c),
(502,5,l),
(533,-4,o),
(571,-8,o),
(602,-8,cs),
(713,-8,o),
(776,50,o),
(776,152,cs),
(776,208,o),
(755,252,o),
(720,279,cs),
(674,314,o),
(616,328,o),
(512,328,cs),
(332,328,ls),
(129,328,o),
(49,260,o),
(49,152,cs),
(49,47,o),
(140,-12,o),
(261,-12,cs)
);
}
);
width = 825;
},
{
anchors = (
{
name = Anchor10;
pos = (457,-29);
},
{
name = Anchor12;
pos = (457,-78);
},
{
name = Anchor8;
pos = (457,-29);
}
);
layerId = "4BF31C0D-0A66-4B39-96F9-ACB961E601E6";
shapes = (
{
closed = 1;
nodes = (
(394,-12,o),
(472,7,o),
(521,61,cs),
(554,98,o),
(573,146,o),
(573,240,cs),
(573,455,l),
(761,455,l),
(761,562,l),
(143,562,l),
(143,286,l),
(277,302,l),
(277,455,l),
(428,455,l),
(428,238,ls),
(428,125,o),
(381,94,o),
(304,94,cs),
(233,94,o),
(188,117,o),
(188,168,cs),
(188,195,o),
(200,215,o),
(225,228,cs),
(254,243,o),
(298,246,o),
(345,246,cs),
(566,246,ls),
(652,246,o),
(732,238,o),
(732,168,cs),
(732,119,o),
(702,96,o),
(646,96,cs),
(625,96,o),
(607,98,o),
(588,103,c),
(564,0,l),
(598,-9,o),
(643,-12,o),
(675,-12,cs),
(803,-12,o),
(874,53,o),
(874,161,cs),
(874,220,o),
(849,267,o),
(809,295,cs),
(757,333,o),
(702,347,o),
(575,347,cs),
(363,347,ls),
(133,347,o),
(41,274,o),
(41,165,cs),
(41,51,o),
(144,-12,o),
(294,-12,cs)
);
}
);
width = 915;
},
{
anchors = (
{
name = Anchor10;
pos = (483,-29);
},
{
name = Anchor12;
pos = (483,-78);
},
{
name = Anchor8;
pos = (483,-29);
}
);
layerId = "6732FEC1-CFA6-4586-B452-175C4A015291";
shapes = (
{
closed = 1;
nodes = (
(424,-12,o),
(498,8,o),
(549,55,cs),
(595,98,o),
(619,162,o),
(619,252,cs),
(619,439,l),
(808,439,l),
(808,569,l),
(129,569,l),
(129,286,l),
(300,302,l),
(300,439,l),
(434,439,l),
(434,240,ls),
(434,144,o),
(389,118,o),
(315,118,cs),
(253,118,o),
(217,133,o),
(217,176,cs),
(217,196,o),
(227,211,o),
(247,221,cs),
(269,231,o),
(296,234,o),
(353,234,cs),
(622,234,ls),
(688,234,o),
(755,227,o),
(755,174,cs),
(755,136,o),
(727,120,o),
(684,120,cs),
(659,120,o),
(642,123,o),
(624,127,c),
(596,1,l),
(632,-8,o),
(683,-12,o),
(720,-12,cs),
(858,-12,o),
(934,54,o),
(934,167,cs),
(934,238,o),
(902,284,o),
(850,313,cs),
(792,344,o),
(725,355,o),
(621,355,cs),
(379,355,ls),
(126,355,o),
(33,280,o),
(33,168,cs),
(33,50,o),
(132,-12,o),
(313,-12,cs)
);
}
);
width = 967;
},
{
anchors = (
{
name = Anchor10;
pos = (280,-29);
},
{
name = Anchor12;
pos = (280,-78);
},
{
name = Anchor8;
pos = (280,-29);
}
);
layerId = "960C9600-7588-48B9-A77D-42B729BBBC0C";
shapes = (
{
closed = 1;
nodes = (
(228,-12,o),
(263,6,o),
(286,36,cs),
(312,71,o),
(321,115,o),
(321,180,cs),
(321,521,l),
(463,521,l),
(463,546,l),
(119,546,l),
(119,276,l),
(145,284,l),
(145,521,l),
(295,521,l),
(295,181,ls),
(295,56,o),
(252,13,o),
(176,13,cs),
(107,13,o),
(71,61,o),
(71,146,cs),
(71,193,o),
(86,229,o),
(113,252,cs),
(140,275,o),
(176,287,o),
(242,287,cs),
(328,287,ls),
(427,287,o),
(489,257,o),
(489,143,cs),
(489,63,o),
(458,15,o),
(390,15,cs),
(368,15,o),
(354,17,o),
(336,22,c),
(332,-3,l),
(350,-8,o),
(373,-10,o),
(390,-10,cs),
(468,-10,o),
(516,43,o),
(516,143,cs),
(516,199,o),
(502,241,o),
(473,269,cs),
(442,298,o),
(398,312,o),
(330,312,cs),
(241,312,ls),
(103,312,o),
(44,246,o),
(44,145,cs),
(44,49,o),
(90,-12,o),
(177,-12,cs)
);
}
);
width = 560;
},
{
anchors = (
{
name = Anchor10;
pos = (315,-29);
},
{
name = Anchor12;
pos = (315,-78);
},
{
name = Anchor8;
pos = (315,-29);
}
);
layerId = "AA356D29-EBA3-4BA7-B11E-09F9C5534C37";
shapes = (
{
closed = 1;
nodes = (
(269,-12,o),
(320,6,o),
(351,57,cs),
(372,92,o),
(384,137,o),
(384,227,cs),
(384,487,l),
(519,487,l),
(519,554,l),
(117,554,l),
(117,286,l),
(189,302,l),
(189,487,l),
(307,487,l),
(307,204,ls),
(307,88,o),
(269,55,o),
(210,55,cs),
(152,55,o),
(118,87,o),
(118,153,cs),
(118,193,o),
(129,220,o),
(149,237,cs),
(172,256,o),
(206,262,o),
(257,262,cs),
(369,262,ls),
(463,262,o),
(515,238,o),
(515,155,cs),
(515,79,o),
(485,58,o),
(436,58,cs),
(421,58,o),
(405,61,o),
(391,65,c),
(380,2,l),
(401,-4,o),
(425,-8,o),
(447,-8,cs),
(541,-8,o),
(591,57,o),
(591,152,cs),
(591,217,o),
(571,264,o),
(527,293,cs),
(483,322,o),
(432,328,o),
(358,328,cs),
(265,328,ls),
(113,328,o),
(39,265,o),
(39,152,cs),
(39,47,o),
(108,-12,o),
(203,-12,cs)
);
}
);
width = 631;
},
{
anchors = (
{
name = Anchor10;
pos = (381,-29);
},
{
name = Anchor12;
pos = (381,-78);
},
{
name = Anchor8;
pos = (381,-29);
}
);
layerId = "DB7E4487-AAA8-4905-9B27-B72FA6056893";
shapes = (
{
closed = 1;
nodes = (
(335,-12,o),
(396,10,o),
(433,52,cs),
(473,96,o),
(488,151,o),
(488,253,cs),
(488,445,l),
(626,445,l),
(626,569,l),
(95,569,l),
(95,286,l),
(240,302,l),
(240,445,l),
(331,445,l),
(331,218,ls),
(331,139,o),
(298,112,o),
(246,112,cs),
(210,112,o),
(183,129,o),
(183,170,cs),
(183,191,o),
(189,206,o),
(201,217,cs),
(217,232,o),
(240,237,o),
(291,237,cs),
(461,237,ls),
(539,237,o),
(582,229,o),
(582,167,cs),
(582,131,o),
(561,113,o),
(528,113,cs),
(517,113,o),
(506,114,o),
(493,117,c),
(471,-1,l),
(495,-8,o),
(527,-12,o),
(562,-12,cs),
(675,-12,o),
(734,53,o),
(734,163,cs),
(734,224,o),
(714,268,o),
(680,298,cs),
(636,337,o),
(584,352,o),
(485,352,cs),
(313,352,ls),
(121,352,o),
(28,278,o),
(28,167,cs),
(28,52,o),
(102,-12,o),
(248,-12,cs)
);
}
);
width = 762;
}
);
unicode = 2965;
},
{
glyphname = ngatamil;
lastChange = "2020-03-17 13:07:53 +0000";
layers = (
{
anchors = (
{
name = Anchor10;
pos = (492,-29);
},
{
name = Anchor12;
pos = (492,-78);
},
{
name = Anchor8;
pos = (492,-29);
}
);
layerId = UUID0;
shapes = (
{
closed = 1;
nodes = (
(120,0,l),
(120,521,l),
(343,521,l),
(343,128,l),
(369,128,l),
(369,273,l),
(410,307,o),
(454,331,o),
(509,331,cs),
(584,331,o),
(629,277,o),
(629,199,cs),
(629,132,o),
(608,79,o),
(568,25,c),
(343,25,l),
(343,0,l),
(755,0,l),
(754,25,l),
(597,25,l),
(629,67,o),
(656,125,o),
(656,200,cs),
(656,303,o),
(587,356,o),
(510,356,cs),
(456,356,o),
(409,334,o),
(369,304,c),
(369,521,l),
(572,521,l),
(572,546,l),
(94,546,l),
(94,0,l)
);
},
{
closed = 1;
nodes = (
(891,0,l),
(891,546,l),
(865,546,l),
(865,25,l),
(695,25,l),
(694,0,l)
);
}
);
width = 985;
},
{
anchors = (
{
name = Anchor10;
pos = (522,-29);
},
{
name = Anchor12;
pos = (522,-78);
},
{
name = Anchor8;
pos = (522,-29);
}
);
layerId = "4900EB3E-CEE9-4F53-85D9-05D95ABCFDBA";
shapes = (
{
closed = 1;
nodes = (
(174,0,l),
(174,482,l),
(344,482,l),
(344,144,l),
(430,144,l),
(430,246,l),
(459,269,o),
(500,289,o),
(543,289,cs),
(595,289,o),
(632,263,o),
(632,192,cs),
(632,146,o),
(617,105,o),
(595,72,c),
(344,72,l),
(344,0,l),
(804,0,l),
(804,72,l),
(682,72,l),
(703,108,o),
(718,153,o),
(718,201,cs),
(718,302,o),
(658,362,o),
(558,362,cs),
(499,362,o),
(456,340,o),
(430,324,c),
(430,482,l),
(604,482,l),
(604,554,l),
(88,554,l),
(88,0,l)
);
},
{
closed = 1;
nodes = (
(956,0,l),
(956,554,l),
(870,554,l),
(870,72,l),
(733,72,l),
(733,0,l)
);
}
);
width = 1044;
},
{
anchors = (
{
name = Anchor10;
pos = (591,-29);
},
{
name = Anchor12;
pos = (591,-78);
},
{
name = Anchor8;
pos = (591,-29);
}
);
layerId = "4BF31C0D-0A66-4B39-96F9-ACB961E601E6";
shapes = (
{
closed = 1;
nodes = (
(228,0,l),
(228,455,l),
(373,455,l),
(373,160,l),
(522,160,l),
(522,223,l),
(550,243,o),
(580,255,o),
(610,255,cs),
(652,255,o),
(682,237,o),
(682,183,cs),
(682,150,o),
(667,121,o),
(654,107,c),
(373,107,l),
(373,0,l),
(1068,0,l),
(1068,107,l),
(800,107,l),
(816,131,o),
(830,164,o),
(830,208,cs),
(830,282,o),
(783,362,o),
(653,362,cs),
(599,362,o),
(558,349,o),
(522,326,c),
(522,455,l),
(732,455,l),
(732,562,l),
(79,562,l),
(79,0,l)
);
},
{
closed = 1;
nodes = (
(1103,0,l),
(1103,562,l),
(954,562,l),
(954,107,l),
(849,107,l),
(881,0,l)
);
}
);
width = 1183;
},
{
anchors = (
{
name = Anchor10;
pos = (622,-29);
},
{
name = Anchor12;
pos = (622,-78);
},
{
name = Anchor8;
pos = (622,-29);
}
);
layerId = "6732FEC1-CFA6-4586-B452-175C4A015291";
shapes = (
{
closed = 1;
nodes = (
(258,0,l),
(258,439,l),
(378,439,l),
(378,172,l),
(568,172,l),
(568,214,l),
(595,232,o),
(618,240,o),
(643,240,cs),
(676,240,o),
(698,221,o),
(698,185,cs),
(698,159,o),
(691,144,o),
(682,130,c),
(378,130,l),
(378,0,l),
(972,0,l),
(974,130,l),
(867,130,l),
(878,149,o),
(887,174,o),
(887,217,cs),
(887,289,o),
(832,370,o),
(697,370,cs),
(647,370,o),
(608,361,o),
(568,338,c),
(568,439,l),
(763,439,l),
(763,569,l),
(68,569,l),
(68,0,l)
);
},
{
closed = 1;
nodes = (
(1176,0,l),
(1176,569,l),
(986,569,l),
(986,130,l),
(913,130,l),
(916,0,l)
);
}
);
width = 1244;
},
{
anchors = (
{
name = Anchor10;
pos = (365,-29);
},
{
name = Anchor12;
pos = (365,-78);
},
{
name = Anchor8;
pos = (365,-29);
}
);
layerId = "960C9600-7588-48B9-A77D-42B729BBBC0C";
shapes = (
{
closed = 1;
nodes = (
(99,0,l),
(99,521,l),
(252,521,l),
(252,128,l),
(278,128,l),
(278,294,l),
(308,316,o),
(337,331,o),
(373,331,cs),
(437,331,o),
(463,279,o),
(463,213,cs),
(463,143,o),
(434,84,o),
(394,25,c),
(252,25,l),
(252,0,l),
(570,0,l),
(569,25,l),
(424,25,l),
(459,76,o),
(490,133,o),
(490,214,cs),
(490,299,o),
(447,356,o),
(374,356,cs),
(335,356,o),
(302,338,o),
(278,322,c),
(278,521,l),
(420,521,l),
(420,546,l),
(73,546,l),
(73,0,l)
);
},
{
closed = 1;
nodes = (
(657,0,l),
(657,546,l),
(631,546,l),
(631,25,l),
(519,25,l),
(523,0,l)
);
}
);
width = 730;
},
{
anchors = (
{
name = Anchor10;
pos = (403,-29);
},
{
name = Anchor12;
pos = (403,-78);
},
{
name = Anchor8;
pos = (403,-29);
}
);
layerId = "AA356D29-EBA3-4BA7-B11E-09F9C5534C37";
shapes = (
{
closed = 1;
nodes = (
(146,0,l),
(146,487,l),
(263,487,l),
(263,144,l),
(342,144,l),
(342,266,l),
(361,281,o),
(385,294,o),
(415,294,cs),
(456,294,o),
(480,267,o),
(480,210,cs),
(480,153,o),
(454,98,o),
(424,67,c),
(263,67,l),
(263,0,l),
(664,0,l),
(664,67,l),
(515,67,l),
(536,100,o),
(559,150,o),
(559,217,cs),
(559,302,o),
(516,362,o),
(431,362,cs),
(395,362,o),
(365,349,o),
(342,334,c),
(342,487,l),
(464,487,l),
(464,554,l),
(67,554,l),
(67,0,l)
);
},
{
closed = 1;
nodes = (
(739,0,l),
(739,554,l),
(660,554,l),
(660,67,l),
(569,67,l),
(579,0,l)
);
}
);
width = 807;
},
{
anchors = (
{
name = Anchor10;
pos = (484,-29);
},
{
name = Anchor12;
pos = (484,-78);
},
{
name = Anchor8;
pos = (484,-29);
}
);
layerId = "DB7E4487-AAA8-4905-9B27-B72FA6056893";
shapes = (
{
closed = 1;
nodes = (
(214,0,l),
(214,445,l),
(292,445,l),
(292,172,l),
(453,172,l),
(453,232,l),
(465,240,o),
(477,246,o),
(493,246,cs),
(519,246,o),
(531,227,o),
(531,203,cs),
(531,166,o),
(519,143,o),
(506,124,c),
(292,124,l),
(292,0,l),
(719,0,l),
(725,124,l),
(668,124,l),
(681,146,o),
(691,183,o),
(691,223,cs),
(691,294,o),
(646,370,o),
(537,370,cs),
(504,370,o),
(473,361,o),
(453,350,c),
(453,445,l),
(586,445,l),
(586,569,l),
(53,569,l),
(53,0,l)
);
},
{
closed = 1;
nodes = (
(916,0,l),
(916,569,l),
(755,569,l),
(755,124,l),
(716,124,l),
(703,0,l)
);
}
);
width = 969;
}
);
unicode = 2969;
},
{
glyphname = catamil;
lastChange = "2020-03-17 13:07:53 +0000";
layers = (
{
anchors = (
{
name = Anchor10;
pos = (336,-29);
},
{
name = Anchor12;
pos = (336,-78);
},
{
name = Anchor8;
pos = (336,-29);
}
);
layerId = UUID0;
shapes = (
{
closed = 1;
nodes = (
(302,-12,o),
(357,10,o),
(388,51,cs),
(415,86,o),
(428,130,o),
(428,194,cs),
(428,521,l),
(632,521,l),
(632,546,l),
(158,546,l),
(158,276,l),
(184,284,l),
(184,521,l),
(402,521,l),
(402,196,ls),
(402,62,o),
(334,13,o),
(235,13,cs),
(132,13,o),
(80,67,o),
(80,146,cs),
(80,190,o),
(96,221,o),
(123,243,cs),
(160,275,o),
(219,287,o),
(290,287,cs),
(632,287,l),
(632,312,l),
(299,312,ls),
(135,312,o),
(53,252,o),
(53,145,cs),
(53,49,o),
(124,-12,o),
(234,-12,cs)
);
}
);
width = 672;
},
{
anchors = (
{
name = Anchor10;
pos = (361,-29);
},
{
name = Anchor12;
pos = (361,-78);
},
{
name = Anchor8;
pos = (361,-29);
}
);
layerId = "4900EB3E-CEE9-4F53-85D9-05D95ABCFDBA";
shapes = (
{
closed = 1;
nodes = (
(345,-12,o),
(411,6,o),
(452,57,cs),
(480,91,o),
(496,136,o),
(496,226,cs),
(496,482,l),
(683,482,l),
(683,554,l),
(160,554,l),
(160,286,l),
(239,302,l),
(239,482,l),
(411,482,l),
(411,213,ls),
(411,94,o),
(356,60,o),
(269,60,cs),
(192,60,o),
(135,91,o),
(135,153,cs),
(135,191,o),
(149,215,o),
(178,232,cs),
(211,251,o),
(257,258,o),
(325,258,cs),
(683,258,l),
(683,328,l),
(332,328,ls),
(129,328,o),
(49,259,o),
(49,152,cs),
(49,47,o),
(140,-12,o),
(261,-12,cs)
);
}
);
width = 723;
},
{
anchors = (
{
name = Anchor10;
pos = (404,-29);
},
{
name = Anchor12;
pos = (404,-78);
},
{
name = Anchor8;
pos = (404,-29);
}
);
layerId = "4BF31C0D-0A66-4B39-96F9-ACB961E601E6";
shapes = (
{
closed = 1;
nodes = (
(393,-12,o),
(471,7,o),
(520,61,cs),
(553,98,o),
(571,146,o),
(571,240,cs),
(571,455,l),
(762,455,l),
(762,562,l),
(143,562,l),
(143,286,l),
(277,302,l),
(277,455,l),
(428,455,l),
(428,238,ls),
(428,125,o),
(381,95,o),
(304,95,cs),
(233,95,o),
(188,117,o),
(188,168,cs),
(188,195,o),
(200,215,o),
(225,228,cs),
(254,243,o),
(298,246,o),
(345,246,cs),
(762,246,l),
(762,347,l),
(363,347,ls),
(133,347,o),
(41,274,o),
(41,165,cs),
(41,51,o),
(144,-12,o),
(294,-12,cs)
);
}
);
width = 808;
},
{
anchors = (
{
name = Anchor10;
pos = (432,-29);
},
{
name = Anchor12;
pos = (432,-78);
},
{
name = Anchor8;
pos = (432,-29);
}
);
layerId = "6732FEC1-CFA6-4586-B452-175C4A015291";
shapes = (
{
closed = 1;
nodes = (
(424,-12,o),
(498,8,o),
(549,55,cs),
(595,98,o),
(619,162,o),
(619,252,cs),
(619,439,l),
(810,439,l),
(810,569,l),
(129,569,l),
(129,286,l),
(300,302,l),
(300,439,l),
(434,439,l),
(434,240,ls),
(434,144,o),
(389,118,o),
(315,118,cs),
(253,118,o),
(217,133,o),
(217,176,cs),
(217,196,o),
(227,211,o),
(247,221,cs),
(269,231,o),
(296,234,o),
(353,234,cs),
(810,234,l),
(810,355,l),
(379,355,ls),
(126,355,o),
(33,280,o),
(33,168,cs),
(33,50,o),
(131,-12,o),
(313,-12,cs)
);
}
);
width = 864;
},
{
anchors = (
{
name = Anchor10;
pos = (249,-29);
},
{
name = Anchor12;
pos = (249,-78);
},
{
name = Anchor8;
pos = (249,-29);
}
);
layerId = "960C9600-7588-48B9-A77D-42B729BBBC0C";
shapes = (
{
closed = 1;
nodes = (
(228,-12,o),
(263,6,o),
(286,36,cs),
(312,71,o),
(321,115,o),
(321,180,cs),
(321,521,l),
(463,521,l),
(463,546,l),
(119,546,l),
(119,276,l),
(145,284,l),
(145,521,l),
(295,521,l),
(295,181,ls),
(295,56,o),
(252,13,o),
(176,13,cs),
(107,13,o),
(71,61,o),
(71,146,cs),
(71,193,o),
(86,229,o),
(113,252,cs),
(140,275,o),
(176,287,o),
(242,287,cs),
(463,287,l),
(463,312,l),
(241,312,ls),
(103,312,o),
(44,246,o),
(44,145,cs),
(44,49,o),
(90,-12,o),
(177,-12,cs)
);
}
);
width = 499;
},
{
anchors = (
{
name = Anchor10;
pos = (277,-29);
},
{
name = Anchor12;
pos = (277,-78);
},
{
name = Anchor8;
pos = (277,-29);
}
);
layerId = "AA356D29-EBA3-4BA7-B11E-09F9C5534C37";
shapes = (
{
closed = 1;
nodes = (
(269,-12,o),
(320,6,o),
(351,57,cs),
(373,92,o),
(384,137,o),
(384,227,cs),
(384,487,l),
(519,487,l),
(519,554,l),
(117,554,l),
(117,286,l),
(189,302,l),
(189,487,l),
(307,487,l),
(307,204,ls),
(307,88,o),
(269,55,o),
(210,55,cs),
(152,55,o),
(118,87,o),
(118,153,cs),
(118,193,o),
(129,220,o),
(149,237,cs),
(172,256,o),
(206,262,o),
(257,262,cs),
(519,262,l),
(519,328,l),
(265,328,ls),
(113,328,o),
(39,265,o),
(39,152,cs),
(39,47,o),
(108,-12,o),
(203,-12,cs)
);
}
);
width = 554;
},
{
anchors = (
{
name = Anchor10;
pos = (337,-29);
},
{
name = Anchor12;
pos = (337,-78);
},
{
name = Anchor8;
pos = (337,-29);
}
);
layerId = "DB7E4487-AAA8-4905-9B27-B72FA6056893";
shapes = (
{
closed = 1;
nodes = (
(335,-12,o),
(396,10,o),
(433,52,cs),
(473,96,o),
(488,151,o),
(488,253,cs),
(488,445,l),
(630,445,l),
(630,569,l),
(95,569,l),
(95,286,l),
(240,302,l),
(240,445,l),
(331,445,l),
(331,218,ls),
(331,139,o),
(298,112,o),
(246,112,cs),
(210,112,o),
(183,129,o),
(183,170,cs),
(183,191,o),
(189,206,o),
(201,217,cs),
(217,232,o),
(240,237,o),
(291,237,cs),
(630,237,l),
(630,352,l),
(313,352,ls),
(121,352,o),
(28,278,o),
(28,167,cs),
(28,52,o),
(102,-12,o),
(248,-12,cs)
);
}
);
width = 674;
}
);
unicode = 2970;
},
{
glyphname = jatamil;
lastChange = "2020-03-17 13:07:53 +0000";
layers = (
{
anchors = (
{
name = Anchor10;
pos = (479,-29);
},
{
name = Anchor12;
pos = (477,-288);
},
{
name = Anchor8;
pos = (479,-29);
}
);
layerId = UUID0;
shapes = (
{
closed = 1;
nodes = (
(176,558,o),
(68,485,o),
(68,344,cs),
(68,248,o),
(118,196,o),
(207,196,cs),
(294,196,o),
(353,249,o),
(353,339,cs),
(353,430,o),
(286,491,o),
(167,496,c),
(137,473,l),
(265,473,o),
(326,421,o),
(326,338,cs),
(326,258,o),
(276,221,o),
(207,221,cs),
(136,221,o),
(95,261,o),
(95,344,cs),
(95,404,o),
(114,450,o),
(153,484,c),
(160,490,l),
(196,519,o),
(244,533,o),
(309,533,cs),
(404,533,o),
(509,491,o),
(509,299,cs),
(509,202,l),
(535,202,l),
(535,328,ls),
(535,413,o),
(555,461,o),
(587,493,cs),
(613,519,o),
(647,533,o),
(693,533,cs),
(788,533,o),
(863,474,o),
(863,342,cs),
(863,253,o),
(837,197,o),
(788,163,cs),
(725,119,o),
(640,110,o),
(492,110,cs),
(385,110,ls),
(279,110,o),
(200,97,o),
(139,50,cs),
(96,17,o),
(68,-33,o),
(68,-108,cs),
(68,-250,o),
(153,-311,o),
(262,-311,cs),
(360,-311,o),
(406,-267,o),
(490,-171,cs),
(554,-98,o),
(609,-42,o),
(687,-40,c),
(691,-40,o),
(695,-40,o),
(707,-40,cs),
(760,-40,o),
(850,-68,o),
(850,-175,cs),
(850,-259,o),
(801,-286,o),
(749,-286,cs),
(677,-286,o),
(641,-238,o),
(641,-176,cs),
(641,-115,o),
(673,-73,o),
(727,-31,c),
(698,-27,l),
(643,-66,o),
(614,-119,o),
(614,-176,cs),
(614,-262,o),
(672,-311,o),
(750,-311,cs),
(808,-311,o),
(877,-278,o),
(877,-175,cs),
(877,-50,o),
(770,-16,o),
(708,-16,cs),
(591,-16,o),
(536,-80,o),
(469,-157,cs),
(389,-247,o),
(353,-286,o),
(259,-286,cs),
(174,-286,o),
(95,-242,o),
(95,-109,cs),
(95,-43,o),
(119,2,o),
(156,31,cs),
(214,76,o),
(291,85,o),
(394,85,cs),
(507,85,ls),
(629,85,o),
(734,91,o),
(808,146,cs),
(859,184,o),
(890,244,o),
(890,342,cs),
(890,478,o),
(811,558,o),
(694,558,cs),
(587,558,o),
(525,494,o),
(513,376,c),
(524,369,l),
(515,468,o),
(459,558,o),
(309,558,cs)
);
}
);
width = 958;
},
{
anchors = (
{
name = Anchor10;
pos = (511,-29);
},
{
name = Anchor12;
pos = (511,-308);
},
{
name = Anchor8;
pos = (511,-29);
}
);
layerId = "4900EB3E-CEE9-4F53-85D9-05D95ABCFDBA";
shapes = (
{
closed = 1;
nodes = (
(188,566,o),
(63,485,o),
(63,345,cs),
(63,254,o),
(122,184,o),
(235,184,cs),
(336,184,o),
(404,246,o),
(404,342,cs),
(404,430,o),
(334,486,o),
(242,494,c),
(178,448,l),
(261,448,o),
(322,405,o),
(322,335,cs),
(322,283,o),
(286,252,o),
(234,252,cs),
(168,252,o),
(142,291,o),
(142,348,cs),
(142,396,o),
(162,441,o),
(217,470,c),
(252,484,l),
(279,493,o),
(296,496,o),
(337,496,cs),
(466,496,o),
(513,422,o),
(513,293,cs),
(513,205,l),
(600,205,l),
(600,319,ls),
(600,391,o),
(609,426,o),
(635,457,cs),
(657,482,o),
(687,493,o),
(726,493,cs),
(808,493,o),
(871,439,o),
(871,334,cs),
(871,271,o),
(856,227,o),
(823,196,cs),
(771,147,o),
(672,135,o),
(521,135,cs),
(432,135,ls),
(312,135,o),
(200,123,o),
(131,65,cs),
(89,30,o),
(63,-22,o),
(63,-95,cs),
(63,-214,o),
(132,-321,o),
(297,-321,cs),
(413,-321,o),
(482,-266,o),
(549,-184,cs),
(588,-136,o),
(629,-97,o),
(675,-83,c),
(693,-79,o),
(713,-77,o),
(733,-77,cs),
(792,-77,o),
(865,-94,o),
(865,-173,cs),
(865,-233,o),
(824,-252,o),
(789,-252,cs),
(729,-252,o),
(707,-213,o),
(707,-168,cs),
(707,-125,o),
(727,-88,o),
(772,-55,c),
(705,-41,l),
(659,-80,o),
(625,-119,o),
(625,-181,cs),
(625,-249,o),
(673,-321,o),
(787,-321,cs),
(879,-321,o),
(946,-263,o),
(946,-174,cs),
(946,-57,o),
(846,-7,o),
(751,-7,cs),
(622,-7,o),
(562,-55,o),
(478,-148,cs),
(425,-207,o),
(380,-248,o),
(292,-248,cs),
(228,-248,o),
(151,-210,o),
(151,-93,cs),
(151,-51,o),
(161,-18,o),
(187,8,cs),
(233,54,o),
(315,63,o),
(448,63,cs),
(542,63,ls),
(680,63,o),
(807,77,o),
(883,143,cs),
(931,184,o),
(959,245,o),
(959,335,cs),
(959,470,o),
(878,566,o),
(729,566,cs),
(633,566,o),
(570,516,o),
(541,430,c),
(559,439,l),
(532,500,o),
(477,566,o),
(331,566,cs)
);
}
);
width = 1022;
},
{
anchors = (
{
name = Anchor10;
pos = (561,-29);
},
{
name = Anchor12;
pos = (561,-308);
},
{
name = Anchor8;
pos = (561,-29);
}
);
layerId = "4BF31C0D-0A66-4B39-96F9-ACB961E601E6";
shapes = (
{
closed = 1;
nodes = (
(178,574,o),
(46,492,o),
(46,352,cs),
(46,243,o),
(114,171,o),
(242,171,cs),
(370,171,o),
(442,235,o),
(442,335,cs),
(442,423,o),
(377,476,o),
(305,486,c),
(184,437,l),
(282,436,o),
(315,390,o),
(315,337,cs),
(315,298,o),
(292,272,o),
(246,272,cs),
(194,272,o),
(175,306,o),
(175,349,cs),
(175,394,o),
(199,448,o),
(285,466,c),
(317,472,l),
(322,473,o),
(339,474,o),
(344,474,c),
(490,474,o),
(532,398,o),
(532,278,cs),
(532,211,l),
(681,211,l),
(681,294,ls),
(681,376,o),
(691,409,o),
(713,434,cs),
(732,455,o),
(758,466,o),
(794,466,cs),
(865,466,o),
(922,421,o),
(922,322,cs),
(922,262,o),
(901,224,o),
(865,198,cs),
(806,156,o),
(716,152,o),
(610,152,cs),
(408,152,ls),
(283,152,o),
(188,135,o),
(120,77,cs),
(75,40,o),
(46,-15,o),
(46,-91,cs),
(46,-215,o),
(122,-321,o),
(321,-321,cs),
(464,-321,o),
(544,-270,o),
(630,-180,cs),
(683,-124,o),
(706,-108,o),
(740,-94,c),
(766,-81,o),
(792,-77,o),
(825,-77,cs),
(896,-77,o),
(930,-105,o),
(930,-151,cs),
(930,-189,o),
(907,-218,o),
(857,-218,cs),
(811,-218,o),
(786,-193,o),
(786,-151,cs),
(786,-120,o),
(805,-81,o),
(854,-40,c),
(740,-32,l),
(701,-62,o),
(668,-119,o),
(668,-168,cs),
(668,-238,o),
(708,-321,o),
(862,-321,cs),
(994,-321,o),
(1059,-251,o),
(1059,-159,cs),
(1059,-55,o),
(976,26,o),
(835,26,cs),
(709,26,o),
(640,-4,o),
(536,-106,cs),
(458,-183,o),
(408,-214,o),
(329,-214,cs),
(248,-214,o),
(195,-168,o),
(195,-88,cs),
(195,-44,o),
(210,-12,o),
(242,10,cs),
(277,34,o),
(321,45,o),
(413,45,cs),
(646,45,ls),
(780,45,o),
(881,59,o),
(958,105,cs),
(1027,147,o),
(1071,217,o),
(1071,329,cs),
(1071,463,o),
(983,574,o),
(804,574,cs),
(697,574,o),
(619,526,o),
(579,437,c),
(621,451,l),
(582,511,o),
(511,574,o),
(350,574,cs)
);
}
);
width = 1123;
},
{
anchors = (
{
name = Anchor10;
pos = (576,-29);
},
{
name = Anchor12;
pos = (575,-308);
},
{
name = Anchor8;
pos = (576,-29);
}
);
layerId = "6732FEC1-CFA6-4586-B452-175C4A015291";
shapes = (
{
closed = 1;
nodes = (
(174,581,o),
(35,496,o),
(35,350,cs),
(35,261,o),
(88,164,o),
(250,164,cs),
(395,164,o),
(462,228,o),
(462,330,cs),
(462,412,o),
(407,468,o),
(340,482,c),
(180,430,l),
(288,428,o),
(310,384,o),
(310,343,cs),
(310,308,o),
(288,284,o),
(249,284,cs),
(206,284,o),
(191,313,o),
(191,343,cs),
(191,388,o),
(221,424,o),
(272,442,c),
(294,450,l),
(315,456,o),
(337,459,o),
(355,459,cs),
(483,459,o),
(527,397,o),
(527,292,cs),
(527,204,l),
(715,204,l),
(715,299,ls),
(715,370,o),
(725,400,o),
(746,423,cs),
(760,438,o),
(781,449,o),
(814,449,cs),
(874,449,o),
(922,408,o),
(922,322,cs),
(922,270,o),
(907,233,o),
(876,208,cs),
(836,176,o),
(781,163,o),
(664,163,cs),
(444,163,ls),
(290,163,o),
(205,149,o),
(134,104,cs),
(74,66,o),
(35,7,o),
(35,-85,cs),
(35,-216,o),
(118,-321,o),
(328,-321,cs),
(485,-321,o),
(567,-275,o),
(676,-166,cs),
(723,-119,o),
(746,-103,o),
(775,-90,cs),
(795,-81,o),
(818,-77,o),
(843,-77,cs),
(918,-77,o),
(936,-113,o),
(936,-141,cs),
(936,-171,o),
(919,-197,o),
(879,-197,cs),
(837,-197,o),
(818,-176,o),
(818,-140,cs),
(818,-104,o),
(841,-70,o),
(891,-36,c),
(745,-20,l),
(705,-57,o),
(673,-106,o),
(673,-165,cs),
(673,-229,o),
(717,-321,o),
(882,-321,cs),
(1037,-321,o),
(1099,-245,o),
(1099,-149,cs),
(1099,-47,o),
(1024,45,o),
(857,45,cs),
(740,45,o),
(668,25,o),
(542,-88,cs),
(449,-171,o),
(404,-191,o),
(339,-191,cs),
(258,-191,o),
(225,-142,o),
(225,-82,cs),
(225,-42,o),
(244,-11,o),
(273,7,cs),
(310,30,o),
(351,35,o),
(423,35,cs),
(666,35,ls),
(814,35,o),
(923,48,o),
(1008,106,cs),
(1073,150,o),
(1112,220,o),
(1112,329,cs),
(1112,458,o),
(1024,581,o),
(829,581,cs),
(708,581,o),
(633,529,o),
(585,439,c),
(645,453,l),
(583,527,o),
(519,581,o),
(343,581,cs)
);
}
);
width = 1153;
},
{
anchors = (
{
name = Anchor10;
pos = (358,-29);
},
{
name = Anchor12;
pos = (353,-288);
},
{
name = Anchor8;
pos = (358,-29);
}
);
layerId = "960C9600-7588-48B9-A77D-42B729BBBC0C";
shapes = (
{
closed = 1;
nodes = (
(132,558,o),
(49,485,o),
(49,341,cs),
(49,248,o),
(90,196,o),
(156,196,cs),
(217,196,o),
(262,241,o),
(262,328,cs),
(262,423,o),
(195,480,o),
(122,496,c),
(105,475,l),
(175,463,o),
(235,412,o),
(235,328,cs),
(235,253,o),
(201,221,o),
(158,221,cs),
(104,221,o),
(76,261,o),
(76,344,cs),
(76,404,o),
(89,450,o),
(119,484,cs),
(124,490,ls),
(149,519,o),
(192,533,o),
(233,533,cs),
(312,533,o),
(376,479,o),
(376,357,cs),
(376,202,l),
(402,202,l),
(402,353,ls),
(402,415,o),
(413,474,o),
(449,508,cs),
(466,523,o),
(485,533,o),
(518,533,cs),
(581,533,o),
(639,479,o),
(639,342,cs),
(639,241,o),
(617,182,o),
(571,149,cs),
(529,119,o),
(470,110,o),
(379,110,cs),
(333,110,ls),
(227,110,o),
(161,96,o),
(112,53,cs),
(72,18,o),
(50,-36,o),
(50,-118,cs),
(50,-260,o),
(113,-311,o),
(194,-311,cs),
(278,-311,o),
(321,-267,o),
(380,-166,cs),
(429,-82,o),
(471,-40,o),
(522,-40,c),
(526,-40,o),
(531,-40,o),
(536,-40,cs),
(574,-40,o),
(635,-74,o),
(635,-179,cs),
(635,-264,o),
(599,-286,o),
(561,-286,cs),
(513,-286,o),
(488,-248,o),
(488,-184,cs),
(488,-124,o),
(514,-76,o),
(556,-29,c),
(529,-25,l),
(491,-63,o),
(461,-123,o),
(461,-185,cs),
(461,-264,o),
(499,-311,o),
(561,-311,cs),
(616,-311,o),
(662,-275,o),
(662,-179,cs),
(662,-54,o),
(586,-16,o),
(529,-16,cs),
(453,-16,o),
(406,-71,o),
(357,-154,cs),
(298,-254,o),
(263,-286,o),
(194,-286,cs),
(133,-286,o),
(77,-251,o),
(77,-119,cs),
(77,-46,o),
(95,3,o),
(129,34,cs),
(169,72,o),
(225,85,o),
(335,85,cs),
(377,85,ls),
(474,85,o),
(540,95,o),
(587,129,cs),
(639,166,o),
(666,232,o),
(666,342,cs),
(666,494,o),
(594,558,o),
(519,558,cs),
(456,558,o),
(397,522,o),
(383,401,c),
(394,401,l),
(382,502,o),
(320,558,o),
(233,558,cs)
);
}
);
width = 717;
},
{
anchors = (
{
name = Anchor10;
pos = (385,-29);
},
{
name = Anchor12;
pos = (385,-308);
},
{
name = Anchor8;
pos = (385,-29);
}
);
layerId = "AA356D29-EBA3-4BA7-B11E-09F9C5534C37";
shapes = (
{
closed = 1;
nodes = (
(124,566,o),
(45,475,o),
(45,352,cs),
(45,251,o),
(95,188,o),
(176,188,cs),
(261,188,o),
(306,239,o),
(306,331,cs),
(306,421,o),
(253,480,o),
(186,500,c),
(128,459,l),
(183,447,o),
(237,403,o),
(237,328,cs),
(237,277,o),
(218,251,o),
(178,251,cs),
(133,251,o),
(117,291,o),
(117,343,cs),
(117,406,o),
(134,445,o),
(168,475,c),
(185,486,l),
(206,497,o),
(226,501,o),
(252,501,cs),
(353,501,o),
(378,423,o),
(378,335,cs),
(378,205,l),
(457,205,l),
(457,349,ls),
(457,411,o),
(463,442,o),
(480,467,cs),
(494,487,o),
(514,498,o),
(544,498,cs),
(599,498,o),
(644,451,o),
(644,339,cs),
(644,263,o),
(626,213,o),
(592,182,cs),
(553,147,o),
(508,134,o),
(406,134,cs),
(360,134,ls),
(235,134,o),
(176,119,o),
(129,85,cs),
(74,46,o),
(45,-16,o),
(45,-109,cs),
(45,-227,o),
(107,-321,o),
(224,-321,cs),
(314,-321,o),
(374,-275,o),
(428,-170,cs),
(455,-117,o),
(478,-79,o),
(514,-73,c),
(523,-70,o),
(535,-69,o),
(547,-69,cs),
(603,-69,o),
(644,-111,o),
(644,-178,cs),
(644,-234,o),
(623,-257,o),
(592,-257,cs),
(555,-257,o),
(534,-227,o),
(534,-182,cs),
(534,-134,o),
(550,-99,o),
(586,-56,c),
(528,-43,l),
(495,-81,o),
(465,-123,o),
(465,-182,cs),
(465,-249,o),
(498,-321,o),
(591,-321,cs),
(669,-321,o),
(715,-263,o),
(715,-178,cs),
(715,-72,o),
(645,-7,o),
(551,-7,cs),
(474,-7,o),
(423,-35,o),
(360,-148,cs),
(314,-230,o),
(282,-253,o),
(228,-253,cs),
(170,-253,o),
(124,-213,o),
(124,-108,cs),
(124,-41,o),
(139,2,o),
(177,30,cs),
(211,54,o),
(251,67,o),
(365,67,cs),
(398,67,ls),
(512,67,o),
(581,82,o),
(633,119,cs),
(691,161,o),
(724,231,o),
(724,335,cs),
(724,470,o),
(664,566,o),
(549,566,cs),
(474,566,o),
(422,518,o),
(401,428,c),
(423,439,l),
(403,508,o),
(352,566,o),
(249,566,cs)
);
}
);
width = 770;
},
{
anchors = (
{
name = Anchor10;
pos = (440,-29);
},
{
name = Anchor12;
pos = (438,-308);
},
{
name = Anchor8;
pos = (440,-29);
}
);
layerId = "DB7E4487-AAA8-4905-9B27-B72FA6056893";
shapes = (
{
closed = 1;
nodes = (
(121,581,o),
(31,490,o),
(31,357,cs),
(31,249,o),
(74,164,o),
(199,164,cs),
(309,164,o),
(359,228,o),
(359,325,cs),
(359,412,o),
(316,464,o),
(262,486,c),
(146,435,l),
(211,420,o),
(235,377,o),
(235,331,cs),
(235,295,o),
(221,278,o),
(199,278,cs),
(171,278,o),
(159,304,o),
(159,343,cs),
(159,383,o),
(169,414,o),
(192,444,c),
(216,454,l),
(240,462,o),
(257,466,o),
(281,466,cs),
(358,466,o),
(394,420,o),
(394,314,cs),
(394,204,l),
(552,204,l),
(552,334,ls),
(552,390,o),
(559,418,o),
(575,437,cs),
(585,449,o),
(599,455,o),
(617,455,cs),
(659,455,o),
(685,413,o),
(685,340,cs),
(685,276,o),
(674,231,o),
(644,203,cs),
(611,171,o),
(572,160,o),
(472,160,cs),
(397,160,ls),
(266,160,o),
(196,145,o),
(137,112,cs),
(69,74,o),
(31,10,o),
(31,-92,cs),
(31,-215,o),
(94,-321,o),
(255,-321,cs),
(376,-321,o),
(441,-281,o),
(504,-186,cs),
(547,-121,o),
(558,-108,o),
(589,-86,c),
(603,-77,o),
(622,-73,o),
(638,-73,cs),
(676,-73,o),
(697,-109,o),
(697,-150,cs),
(697,-181,o),
(688,-203,o),
(662,-203,cs),
(635,-203,o),
(624,-181,o),
(624,-151,cs),
(624,-114,o),
(642,-78,o),
(685,-40,c),
(563,-21,l),
(533,-58,o),
(505,-106,o),
(505,-165,cs),
(505,-229,o),
(539,-321,o),
(669,-321,cs),
(793,-321,o),
(835,-245,o),
(835,-149,cs),
(835,-50,o),
(778,43,o),
(638,43,cs),
(568,43,o),
(487,30,o),
(406,-95,cs),
(351,-178,o),
(318,-197,o),
(269,-197,cs),
(215,-197,o),
(192,-155,o),
(192,-94,cs),
(192,-44,o),
(206,-12,o),
(235,8,cs),
(264,28,o),
(298,37,o),
(387,37,cs),
(511,37,ls),
(626,37,o),
(697,54,o),
(761,108,cs),
(815,155,o),
(846,220,o),
(846,329,cs),
(846,458,o),
(781,581,o),
(632,581,cs),
(534,581,o),
(472,525,o),
(438,438,c),
(501,433,l),
(460,522,o),
(392,581,o),
(264,581,cs)
);
}
);
width = 877;
}
);
unicode = 2972;
},
{
glyphname = nyatamil;
lastChange = "2020-03-17 13:07:53 +0000";
layers = (
{
anchors = (
{
name = Anchor10;
pos = (557,-29);
},
{
name = Anchor12;
pos = (601,-74);
},
{
name = Anchor8;
pos = (557,-29);
}
);
layerId = UUID0;
shapes = (
{
closed = 1;
nodes = (
(842,299,o),
(797,274,o),
(760,244,c),
(764,217,l),
(802,250,o),
(844,274,o),
(894,274,cs),
(971,274,o),
(1033,217,o),
(1033,81,cs),
(1033,-185,o),
(830,-296,o),
(579,-296,cs),
(568,-296,ls),
(235,-296,o),
(97,-106,o),
(97,137,cs),
(97,147,ls),
(97,297,o),
(146,403,o),
(230,531,c),
(209,546,l),
(137,441,o),
(71,314,o),
(71,149,cs),
(71,130,ls),
(71,-121,o),
(221,-321,o),
(563,-321,cs),
(580,-321,ls),
(838,-321,o),
(1060,-205,o),
(1060,82,cs),
(1060,235,o),
(982,299,o),
(896,299,cs)
);
},
{
closed = 1;
nodes = (
(548,-12,o),
(619,22,o),
(619,152,cs),
(619,259,o),
(554,312,o),
(474,312,cs),
(404,312,o),
(347,273,o),
(315,235,c),
(328,214,l),
(368,260,o),
(414,287,o),
(474,287,cs),
(549,287,o),
(592,236,o),
(592,153,cs),
(592,42,o),
(540,13,o),
(474,13,cs),
(392,13,o),
(332,70,o),
(332,235,cs),
(332,326,o),
(362,400,o),
(422,450,cs),
(477,496,o),
(557,521,o),
(678,521,cs),
(755,521,l),
(748,546,l),
(683,546,ls),
(542,546,o),
(456,516,o),
(395,461,cs),
(337,408,o),
(306,332,o),
(306,238,cs),
(306,50,o),
(380,-12,o),
(472,-12,cs)
);
},
{
closed = 1;
nodes = (
(778,0,l),
(778,521,l),
(973,521,l),
(973,546,l),
(732,546,l),
(734,521,l),
(752,521,l),
(752,0,l)
);
}
);
width = 1115;
},
{
anchors = (
{
name = Anchor10;
pos = (605,-29);
},
{
name = Anchor12;
pos = (630,-59);
},
{
name = Anchor8;
pos = (605,-29);
}
);
layerId = "4900EB3E-CEE9-4F53-85D9-05D95ABCFDBA";
shapes = (
{
closed = 1;
nodes = (
(928,319,o),
(888,299,o),
(863,281,c),
(862,207,l),
(890,227,o),
(924,247,o),
(964,247,cs),
(1034,247,o),
(1074,191,o),
(1074,84,cs),
(1074,-142,o),
(891,-244,o),
(635,-244,cs),
(622,-244,ls),
(292,-244,o),
(154,-73,o),
(154,150,cs),
(154,163,ls),
(154,279,o),
(197,396,o),
(273,510,c),
(199,554,l),
(131,454,o),
(68,308,o),
(68,170,cs),
(68,149,ls),
(68,-84,o),
(200,-321,o),
(613,-321,cs),
(640,-321,ls),
(909,-321,o),
(1162,-214,o),
(1162,83,cs),
(1162,234,o),
(1088,319,o),
(980,319,cs)
);
},
{
closed = 1;
nodes = (
(610,-12,o),
(676,54,o),
(676,165,cs),
(676,265,o),
(611,328,o),
(514,328,cs),
(449,328,o),
(387,295,o),
(347,248,c),
(362,184,l),
(400,227,o),
(448,258,o),
(500,258,cs),
(555,258,o),
(594,221,o),
(594,155,cs),
(594,91,o),
(559,56,o),
(508,56,cs),
(439,56,o),
(390,107,o),
(390,232,cs),
(390,313,o),
(417,378,o),
(468,423,cs),
(508,458,o),
(564,482,o),
(693,482,cs),
(762,482,l),
(762,554,l),
(705,554,ls),
(555,554,o),
(467,525,o),
(404,468,cs),
(347,417,o),
(311,341,o),
(311,239,cs),
(311,63,o),
(397,-12,o),
(503,-12,cs)
);
},
{
closed = 1;
nodes = (
(868,0,l),
(868,482,l),
(1038,482,l),
(1038,554,l),
(748,554,l),
(746,482,l),
(782,482,l),
(782,0,l)
);
}
);
width = 1210;
},
{
anchors = (
{
name = Anchor10;
pos = (680,-29);
},
{
name = Anchor12;
pos = (687,-44);
},
{
name = Anchor8;
pos = (680,-29);
}
);
layerId = "4BF31C0D-0A66-4B39-96F9-ACB961E601E6";
shapes = (
{
closed = 1;
nodes = (
(1061,335,o),
(1022,324,o),
(991,309,c),
(990,201,l),
(1014,218,o),
(1038,228,o),
(1069,228,cs),
(1140,228,o),
(1168,170,o),
(1168,89,cs),
(1168,-121,o),
(973,-210,o),
(715,-210,cs),
(675,-210,ls),
(326,-210,o),
(197,-60,o),
(197,155,cs),
(197,167,ls),
(197,272,o),
(234,396,o),
(311,503,c),
(193,573,l),
(121,466,o),
(55,320,o),
(55,166,cs),
(55,148,ls),
(55,-100,o),
(214,-321,o),
(671,-321,cs),
(725,-321,ls),
(1010,-321,o),
(1317,-217,o),
(1317,93,cs),
(1317,245,o),
(1241,335,o),
(1105,335,cs)
);
},
{
closed = 1;
nodes = (
(695,-12,o),
(764,59,o),
(764,174,cs),
(764,285,o),
(692,347,o),
(584,347,cs),
(500,347,o),
(439,311,o),
(390,264,c),
(412,168,l),
(448,207,o),
(491,246,o),
(547,246,cs),
(595,246,o),
(624,216,o),
(624,167,cs),
(624,118,o),
(598,91,o),
(553,91,cs),
(495,91,o),
(461,129,o),
(461,224,cs),
(461,317,o),
(493,377,o),
(548,414,cs),
(589,441,o),
(636,455,o),
(732,455,cs),
(826,455,l),
(822,562,l),
(793,562,ls),
(624,562,o),
(537,546,o),
(463,500,cs),
(376,446,o),
(329,358,o),
(329,235,cs),
(329,72,o),
(421,-12,o),
(559,-12,cs)
);
},
{
closed = 1;
nodes = (
(1002,0,l),
(1002,455,l),
(1145,455,l),
(1145,562,l),
(808,562,l),
(804,455,l),
(853,455,l),
(853,0,l)
);
}
);
width = 1358;
},
{
anchors = (
{
name = Anchor10;
pos = (712,-29);
},
{
name = Anchor12;
pos = (721,-33);
},
{
name = Anchor8;
pos = (712,-29);
}
);
layerId = "6732FEC1-CFA6-4586-B452-175C4A015291";
shapes = (
{
closed = 1;
nodes = (
(1120,346,o),
(1070,336,o),
(1033,315,c),
(1044,190,l),
(1065,207,o),
(1088,216,o),
(1113,216,cs),
(1171,216,o),
(1201,170,o),
(1201,102,cs),
(1201,-104,o),
(1018,-186,o),
(747,-186,cs),
(705,-186,ls),
(345,-186,o),
(225,-51,o),
(225,167,cs),
(225,183,ls),
(225,277,o),
(258,388,o),
(332,498,c),
(184,582,l),
(109,470,o),
(47,328,o),
(47,163,cs),
(47,152,ls),
(47,-111,o),
(207,-321,o),
(699,-321,cs),
(768,-321,ls),
(1075,-321,o),
(1391,-219,o),
(1391,99,cs),
(1391,252,o),
(1309,346,o),
(1162,346,cs)
);
},
{
closed = 1;
nodes = (
(736,-12,o),
(808,61,o),
(808,177,cs),
(808,294,o),
(734,355,o),
(622,355,cs),
(535,355,o),
(471,311,o),
(411,261,c),
(443,162,l),
(480,204,o),
(517,234,o),
(565,234,cs),
(602,234,o),
(627,217,o),
(627,174,cs),
(627,135,o),
(608,114,o),
(570,114,cs),
(518,114,o),
(496,158,o),
(496,226,cs),
(496,314,o),
(527,366,o),
(574,398,cs),
(616,427,o),
(681,439,o),
(772,439,cs),
(861,439,l),
(861,569,l),
(817,569,ls),
(627,569,o),
(521,550,o),
(433,482,cs),
(367,431,o),
(324,355,o),
(324,239,cs),
(324,79,o),
(414,-12,o),
(572,-12,cs)
);
},
{
closed = 1;
nodes = (
(1068,0,l),
(1068,439,l),
(1200,439,l),
(1200,569,l),
(838,569,l),
(822,439,l),
(878,439,l),
(878,0,l)
);
}
);
width = 1424;
},
{
anchors = (
{
name = Anchor10;
pos = (417,-29);
},
{
name = Anchor12;
pos = (444,-74);
},
{
name = Anchor8;
pos = (417,-29);
}
);
layerId = "960C9600-7588-48B9-A77D-42B729BBBC0C";
shapes = (
{
closed = 1;
nodes = (
(626,299,o),
(596,286,o),
(565,262,c),
(567,235,l),
(593,260,o),
(623,274,o),
(656,274,cs),
(722,274,o),
(763,217,o),
(763,77,cs),
(763,-187,o),
(629,-296,o),
(440,-296,cs),
(433,-296,ls),
(191,-296,o),
(78,-114,o),
(78,143,cs),
(78,151,ls),
(78,303,o),
(121,411,o),
(187,534,c),
(163,546,l),
(99,426,o),
(52,320,o),
(52,149,cs),
(52,142,ls),
(52,-120,o),
(171,-321,o),
(431,-321,cs),
(441,-321,ls),
(637,-321,o),
(790,-206,o),
(790,78,cs),
(790,235,o),
(734,299,o),
(660,299,cs)
);
},
{
closed = 1;
nodes = (
(411,-12,o),
(461,22,o),
(461,154,cs),
(461,259,o),
(414,312,o),
(349,312,cs),
(305,312,o),
(267,285,o),
(237,247,c),
(241,220,l),
(270,259,o),
(307,287,o),
(347,287,cs),
(405,287,o),
(434,236,o),
(434,153,cs),
(434,42,o),
(400,13,o),
(354,13,cs),
(297,13,o),
(256,61,o),
(256,233,cs),
(256,335,o),
(279,414,o),
(334,463,cs),
(376,501,o),
(435,521,o),
(522,521,cs),
(550,521,l),
(551,546,l),
(536,546,ls),
(425,546,o),
(358,522,o),
(312,477,cs),
(256,423,o),
(230,339,o),
(230,234,cs),
(230,40,o),
(285,-12,o),
(352,-12,cs)
);
},
{
closed = 1;
nodes = (
(577,0,l),
(577,521,l),
(714,521,l),
(714,546,l),
(547,546,l),
(546,521,l),
(551,521,l),
(551,0,l)
);
}
);
width = 834;
},
{
anchors = (
{
name = Anchor10;
pos = (461,-29);
},
{
name = Anchor12;
pos = (488,-59);
},
{
name = Anchor8;
pos = (461,-29);
}
);
layerId = "AA356D29-EBA3-4BA7-B11E-09F9C5534C37";
shapes = (
{
closed = 1;
nodes = (
(696,319,o),
(665,305,o),
(643,289,c),
(647,221,l),
(664,238,o),
(688,251,o),
(715,251,cs),
(765,251,o),
(803,210,o),
(803,72,cs),
(803,-153,o),
(673,-250,o),
(490,-250,cs),
(478,-250,ls),
(230,-250,o),
(128,-79,o),
(128,141,cs),
(128,155,ls),
(128,284,o),
(164,403,o),
(231,517,c),
(160,554,l),
(97,441,o),
(49,311,o),
(49,160,cs),
(49,142,ls),
(49,-108,o),
(172,-321,o),
(474,-321,cs),
(490,-321,ls),
(694,-321,o),
(883,-213,o),
(883,75,cs),
(883,247,o),
(818,319,o),
(733,319,cs)
);
},
{
closed = 1;
nodes = (
(470,-12,o),
(518,46,o),
(518,160,cs),
(518,265,o),
(469,328,o),
(391,328,cs),
(337,328,o),
(294,295,o),
(263,257,c),
(278,202,l),
(298,231,o),
(335,262,o),
(375,262,cs),
(416,262,o),
(441,226,o),
(441,154,cs),
(441,84,o),
(419,52,o),
(384,52,cs),
(339,52,o),
(306,94,o),
(306,228,cs),
(306,319,o),
(328,383,o),
(376,430,cs),
(412,466,o),
(469,487,o),
(551,487,cs),
(574,487,l),
(589,554,l),
(571,554,ls),
(443,554,o),
(371,524,o),
(318,472,cs),
(262,416,o),
(234,335,o),
(234,235,cs),
(234,54,o),
(298,-12,o),
(384,-12,cs)
);
},
{
closed = 1;
nodes = (
(667,0,l),
(667,487,l),
(781,487,l),
(781,554,l),
(581,554,l),
(568,487,l),
(588,487,l),
(588,0,l)
);
}
);
width = 922;
},
{
anchors = (
{
name = Anchor10;
pos = (552,-29);
},
{
name = Anchor12;
pos = (566,-33);
},
{
name = Anchor8;
pos = (552,-29);
}
);
layerId = "DB7E4487-AAA8-4905-9B27-B72FA6056893";
shapes = (
{
closed = 1;
nodes = (
(870,346,o),
(833,336,o),
(803,315,c),
(815,206,l),
(829,216,o),
(843,222,o),
(861,222,cs),
(893,222,o),
(916,190,o),
(916,96,cs),
(916,-106,o),
(788,-192,o),
(571,-192,cs),
(559,-192,ls),
(286,-192,o),
(189,-51,o),
(189,162,cs),
(189,172,ls),
(189,277,o),
(222,400,o),
(288,515,c),
(152,582,l),
(87,466,o),
(39,331,o),
(39,175,cs),
(39,165,ls),
(39,-106,o),
(176,-321,o),
(554,-321,cs),
(573,-321,ls),
(844,-321,o),
(1076,-215,o),
(1076,102,cs),
(1076,255,o),
(1015,346,o),
(907,346,cs)
);
},
{
closed = 1;
nodes = (
(577,-12,o),
(632,60,o),
(632,175,cs),
(632,290,o),
(576,352,o),
(478,352,cs),
(417,352,o),
(376,319,o),
(331,272,c),
(357,179,l),
(388,218,o),
(414,237,o),
(437,237,cs),
(464,237,o),
(483,221,o),
(483,172,cs),
(483,124,o),
(471,107,o),
(444,107,cs),
(412,107,o),
(397,142,o),
(397,216,cs),
(397,320,o),
(425,373,o),
(474,408,cs),
(509,433,o),
(555,445,o),
(637,445,cs),
(666,445,l),
(687,569,l),
(671,569,ls),
(503,569,o),
(422,540,o),
(359,488,cs),
(294,434,o),
(255,355,o),
(255,245,cs),
(255,77,o),
(324,-12,o),
(448,-12,cs)
);
},
{
closed = 1;
nodes = (
(837,0,l),
(837,445,l),
(928,445,l),
(928,569,l),
(678,569,l),
(650,445,l),
(676,445,l),
(676,0,l)
);
}
);
width = 1104;
}
);
unicode = 2974;
},
{
glyphname = ttatamil;
lastChange = "2020-03-17 13:07:53 +0000";
layers = (
{
anchors = (
{
name = Anchor10;
pos = (334,-29);
},
{
name = Anchor12;
pos = (334,-78);
},
{
name = Anchor8;
pos = (334,-29);
}
);
layerId = UUID0;
shapes = (
{
closed = 1;
nodes = (
(651,0,l),
(651,25,l),
(120,25,l),
(120,546,l),
(94,546,l),
(94,0,l)
);
}
);
width = 668;
},
{
anchors = (
{
name = Anchor10;
pos = (346,-29);
},
{
name = Anchor12;
pos = (346,-78);
},
{
name = Anchor8;
pos = (346,-29);
}
);
layerId = "4900EB3E-CEE9-4F53-85D9-05D95ABCFDBA";
shapes = (
{
closed = 1;
nodes = (
(676,0,l),
(676,72,l),
(174,72,l),
(174,554,l),
(88,554,l),
(88,0,l)
);
}
);
width = 693;
},
{
anchors = (
{
name = Anchor10;
pos = (371,-29);
},
{
name = Anchor12;
pos = (371,-78);
},
{
name = Anchor8;
pos = (371,-29);
}
);
layerId = "4BF31C0D-0A66-4B39-96F9-ACB961E601E6";
shapes = (
{
closed = 1;
nodes = (
(726,0,l),
(726,107,l),
(228,107,l),
(228,562,l),
(79,562,l),
(79,0,l)
);
}
);
width = 743;
},
{
anchors = (
{
name = Anchor10;
pos = (380,-29);
},
{
name = Anchor12;
pos = (380,-78);
},
{
name = Anchor8;
pos = (380,-29);
}
);
layerId = "6732FEC1-CFA6-4586-B452-175C4A015291";
shapes = (
{
closed = 1;
nodes = (
(743,0,l),
(743,130,l),
(258,130,l),
(258,569,l),
(68,569,l),
(68,0,l)
);
}
);
width = 760;
},
{
anchors = (
{
name = Anchor10;
pos = (250,-29);
},
{
name = Anchor12;
pos = (250,-78);
},
{
name = Anchor8;
pos = (250,-29);
}
);
layerId = "960C9600-7588-48B9-A77D-42B729BBBC0C";
shapes = (
{
closed = 1;
nodes = (
(485,0,l),
(485,25,l),
(99,25,l),
(99,546,l),
(73,546,l),
(73,0,l)
);
}
);
width = 501;
},
{
anchors = (
{
name = Anchor10;
pos = (260,-29);
},
{
name = Anchor12;
pos = (260,-78);
},
{
name = Anchor8;
pos = (260,-29);
}
);
layerId = "AA356D29-EBA3-4BA7-B11E-09F9C5534C37";
shapes = (
{
closed = 1;
nodes = (
(505,0,l),
(505,67,l),
(146,67,l),
(146,554,l),
(67,554,l),
(67,0,l)
);
}
);
width = 521;
},
{
anchors = (
{
name = Anchor10;
pos = (288,-29);
},
{
name = Anchor12;
pos = (288,-78);
},
{
name = Anchor8;
pos = (288,-29);
}
);
layerId = "DB7E4487-AAA8-4905-9B27-B72FA6056893";
shapes = (
{
closed = 1;
nodes = (
(560,0,l),
(560,124,l),
(214,124,l),
(214,569,l),
(53,569,l),
(53,0,l)
);
}
);
width = 576;
}
);
unicode = 2975;
},
{
glyphname = nnatamil;
lastChange = "2020-03-17 13:07:53 +0000";
layers = (
{
anchors = (
{
name = Anchor10;
pos = (763,-29);
},
{
name = Anchor12;
pos = (763,-78);
},
{
name = Anchor8;
pos = (763,-29);
}
);
layerId = UUID0;
shapes = (
{
closed = 1;
nodes = (
(303,-12,o),
(374,22,o),
(374,152,cs),
(374,259,o),
(310,312,o),
(229,312,cs),
(159,312,o),
(102,272,o),
(70,235,c),
(83,214,l),
(123,260,o),
(169,287,o),
(229,287,cs),
(304,287,o),
(347,236,o),
(347,153,cs),
(347,42,o),
(295,13,o),
(229,13,cs),
(147,13,o),
(87,70,o),
(87,235,cs),
(87,238,o),
(87,240,o),
(87,244,c),
(90,417,o),
(202,533,o),
(371,533,cs),
(464,533,o),
(537,498,o),
(593,450,c),
(674,380,o),
(716,278,o),
(716,174,cs),
(716,67,o),
(684,13,o),
(607,13,cs),
(542,13,o),
(499,57,o),
(499,183,cs),
(499,295,o),
(537,393,o),
(603,457,c),
(653,505,o),
(719,533,o),
(798,533,cs),
(874,533,o),
(936,505,o),
(984,460,c),
(1058,390,o),
(1097,281,o),
(1097,180,cs),
(1097,67,o),
(1065,13,o),
(988,13,cs),
(923,13,o),
(880,57,o),
(880,178,cs),
(880,287,o),
(915,391,o),
(1001,456,c),
(1052,494,o),
(1119,521,o),
(1243,521,cs),
(1289,521,l),
(1289,0,l),
(1315,0,l),
(1315,521,l),
(1510,521,l),
(1510,546,l),
(1249,546,ls),
(1121,546,o),
(1046,517,o),
(990,478,c),
(978,469,l),
(883,392,o),
(853,283,o),
(853,178,cs),
(853,50,o),
(900,-12,o),
(990,-12,cs),
(1073,-12,o),
(1124,43,o),
(1124,180,cs),
(1124,284,o),
(1084,397,o),
(1007,472,c),
(1001,478,l),
(949,527,o),
(881,558,o),
(798,558,cs),
(715,558,o),
(643,528,o),
(589,477,c),
(581,469,l),
(512,401,o),
(472,299,o),
(472,182,cs),
(472,50,o),
(519,-12,o),
(608,-12,cs),
(692,-12,o),
(743,43,o),
(743,175,cs),
(743,282,o),
(703,385,o),
(608,471,c),
(598,479,l),
(540,525,o),
(462,558,o),
(373,558,cs),
(185,558,o),
(61,429,o),
(61,240,cs),
(61,50,o),
(135,-12,o),
(227,-12,cs)
);
}
);
width = 1527;
},
{
anchors = (
{
name = Anchor10;
pos = (824,-29);
},
{
name = Anchor12;
pos = (824,-78);
},
{
name = Anchor8;
pos = (824,-29);
}
);
layerId = "4900EB3E-CEE9-4F53-85D9-05D95ABCFDBA";
shapes = (
{
closed = 1;
nodes = (
(356,-12,o),
(422,54,o),
(422,165,cs),
(422,265,o),
(357,328,o),
(261,328,cs),
(195,328,o),
(133,295,o),
(93,248,c),
(108,184,l),
(147,227,o),
(194,258,o),
(247,258,cs),
(302,258,o),
(340,221,o),
(340,155,cs),
(340,91,o),
(307,56,o),
(253,56,cs),
(187,56,o),
(136,103,o),
(136,233,cs),
(136,244,o),
(137,263,o),
(139,283,c),
(158,405,o),
(249,492,o),
(398,492,cs),
(483,492,o),
(558,477,o),
(621,433,c),
(698,373,o),
(740,289,o),
(740,182,cs),
(740,121,o),
(722,56,o),
(660,56,cs),
(611,56,o),
(581,97,o),
(581,189,cs),
(581,277,o),
(605,372,o),
(672,429,c),
(732,477,o),
(793,493,o),
(868,493,cs),
(929,493,o),
(991,477,o),
(1047,432,c),
(1104,390,o),
(1155,296,o),
(1155,182,cs),
(1155,121,o),
(1137,56,o),
(1074,56,cs),
(1026,56,o),
(996,97,o),
(996,189,cs),
(996,291,o),
(1030,388,o),
(1096,430,c),
(1162,474,o),
(1222,482,o),
(1310,482,cs),
(1375,482,l),
(1375,0,l),
(1461,0,l),
(1461,482,l),
(1631,482,l),
(1631,554,l),
(1333,554,ls),
(1187,554,o),
(1124,530,o),
(1065,495,c),
(1020,458,l),
(941,375,o),
(912,287,o),
(912,186,cs),
(912,72,o),
(962,-12,o),
(1077,-12,cs),
(1178,-12,o),
(1240,56,o),
(1240,189,cs),
(1240,298,o),
(1198,391,o),
(1130,457,c),
(1084,497,l),
(1022,543,o),
(955,566,o),
(866,566,cs),
(779,566,o),
(706,542,o),
(644,495,c),
(596,454,l),
(529,384,o),
(497,291,o),
(497,186,cs),
(497,72,o),
(547,-12,o),
(663,-12,cs),
(763,-12,o),
(825,56,o),
(825,189,cs),
(825,299,o),
(779,390,o),
(703,459,c),
(662,495,l),
(584,545,o),
(504,566,o),
(408,566,cs),
(195,566,o),
(57,440,o),
(57,243,cs),
(57,63,o),
(142,-12,o),
(249,-12,cs)
);
}
);
width = 1648;
},
{
anchors = (
{
name = Anchor10;
pos = (917,-29);
},
{
name = Anchor12;
pos = (917,-78);
},
{
name = Anchor8;
pos = (917,-29);
}
);
layerId = "4BF31C0D-0A66-4B39-96F9-ACB961E601E6";
shapes = (
{
closed = 1;
nodes = (
(411,-12,o),
(480,59,o),
(480,174,cs),
(480,285,o),
(408,347,o),
(300,347,cs),
(216,347,o),
(155,311,o),
(106,264,c),
(128,168,l),
(166,206,o),
(207,246,o),
(263,246,cs),
(311,246,o),
(340,216,o),
(340,167,cs),
(340,118,o),
(314,91,o),
(269,91,cs),
(210,91,o),
(177,129,o),
(177,227,cs),
(177,254,o),
(179,265,o),
(181,280,c),
(198,379,o),
(293,465,o),
(463,465,cs),
(548,465,o),
(620,448,o),
(683,406,c),
(760,362,o),
(802,280,o),
(802,197,cs),
(802,138,o),
(788,90,o),
(741,90,cs),
(705,90,o),
(681,124,o),
(681,198,cs),
(681,293,o),
(719,368,o),
(792,414,c),
(830,441,o),
(887,465,o),
(977,465,cs),
(1039,465,o),
(1101,457,o),
(1161,413,c),
(1238,369,o),
(1276,276,o),
(1276,197,cs),
(1276,138,o),
(1262,90,o),
(1214,90,cs),
(1180,90,o),
(1155,121,o),
(1155,198,cs),
(1155,279,o),
(1186,358,o),
(1249,398,c),
(1308,442,o),
(1339,455,o),
(1480,455,cs),
(1524,455,l),
(1524,0,l),
(1673,0,l),
(1673,455,l),
(1816,455,l),
(1816,562,l),
(1498,562,ls),
(1330,562,o),
(1265,540,o),
(1189,493,c),
(1152,467,l),
(1069,397,o),
(1016,295,o),
(1016,187,cs),
(1016,78,o),
(1074,-12,o),
(1218,-12,cs),
(1344,-12,o),
(1417,64,o),
(1417,187,cs),
(1417,311,o),
(1359,408,o),
(1263,483,c),
(1241,500,l),
(1158,557,o),
(1086,574,o),
(978,574,cs),
(862,574,o),
(784,548,o),
(707,494,c),
(685,475,l),
(590,393,o),
(542,295,o),
(542,187,cs),
(542,78,o),
(600,-12,o),
(744,-12,cs),
(870,-12,o),
(943,64,o),
(943,187,cs),
(943,312,o),
(878,406,o),
(786,477,c),
(761,493,l),
(667,553,o),
(585,574,o),
(461,574,cs),
(201,574,o),
(45,440,o),
(45,240,cs),
(45,72,o),
(137,-12,o),
(275,-12,cs)
);
}
);
width = 1833;
},
{
anchors = (
{
name = Anchor10;
pos = (955,-29);
},
{
name = Anchor12;
pos = (955,-78);
},
{
name = Anchor8;
pos = (955,-29);
}
);
layerId = "6732FEC1-CFA6-4586-B452-175C4A015291";
shapes = (
{
closed = 1;
nodes = (
(449,-12,o),
(521,61,o),
(521,177,cs),
(521,294,o),
(447,355,o),
(335,355,cs),
(248,355,o),
(184,311,o),
(124,261,c),
(156,162,l),
(193,204,o),
(230,234,o),
(278,234,cs),
(315,234,o),
(340,217,o),
(340,174,cs),
(340,133,o),
(320,113,o),
(287,113,cs),
(218,113,o),
(209,187,o),
(209,230,cs),
(209,240,o),
(209,261,o),
(212,271,c),
(231,371,o),
(328,451,o),
(489,451,cs),
(586,451,o),
(650,433,o),
(706,392,c),
(790,342,o),
(832,272,o),
(832,196,cs),
(832,148,o),
(820,114,o),
(781,114,cs),
(750,114,o),
(730,138,o),
(730,200,cs),
(730,277,o),
(768,343,o),
(828,388,c),
(881,428,o),
(938,451,o),
(1024,451,cs),
(1105,451,o),
(1161,429,o),
(1213,392,c),
(1278,346,o),
(1321,276,o),
(1321,196,cs),
(1321,148,o),
(1309,114,o),
(1270,114,cs),
(1239,114,o),
(1219,138,o),
(1219,197,cs),
(1219,271,o),
(1250,336,o),
(1319,382,c),
(1365,414,o),
(1417,439,o),
(1543,439,cs),
(1572,439,l),
(1572,0,l),
(1762,0,l),
(1762,439,l),
(1894,439,l),
(1894,569,l),
(1572,569,ls),
(1395,569,o),
(1313,544,o),
(1232,491,c),
(1207,468,l),
(1120,413,o),
(1048,311,o),
(1048,202,cs),
(1048,66,o),
(1126,-12,o),
(1275,-12,cs),
(1415,-12,o),
(1492,52,o),
(1492,196,cs),
(1492,300,o),
(1441,392,o),
(1353,460,c),
(1326,489,l),
(1229,555,o),
(1153,581,o),
(1024,581,cs),
(904,581,o),
(801,553,o),
(713,486,c),
(685,458,l),
(611,395,o),
(559,311,o),
(559,202,cs),
(559,66,o),
(637,-12,o),
(786,-12,cs),
(926,-12,o),
(1003,52,o),
(1003,196,cs),
(1003,317,o),
(934,402,o),
(829,478,c),
(805,496,l),
(711,556,o),
(616,581,o),
(484,581,cs),
(212,581,o),
(37,451,o),
(37,244,cs),
(37,79,o),
(127,-12,o),
(285,-12,cs)
);
}
);
width = 1911;
},
{
anchors = (
{
name = Anchor10;
pos = (558,-29);
},
{
name = Anchor12;
pos = (558,-78);
},
{
name = Anchor8;
pos = (558,-29);
}
);
layerId = "960C9600-7588-48B9-A77D-42B729BBBC0C";
shapes = (
{
closed = 1;
nodes = (
(232,-12,o),
(282,22,o),
(282,154,cs),
(282,259,o),
(235,312,o),
(170,312,cs),
(126,312,o),
(88,285,o),
(58,247,c),
(62,220,l),
(91,259,o),
(128,287,o),
(168,287,cs),
(226,287,o),
(255,236,o),
(255,153,cs),
(255,42,o),
(221,13,o),
(175,13,cs),
(118,13,o),
(77,61,o),
(77,229,cs),
(77,232,o),
(77,240,o),
(77,244,c),
(77,412,o),
(162,533,o),
(280,533,cs),
(352,533,o),
(404,500,o),
(440,452,c),
(496,376,o),
(521,274,o),
(521,170,cs),
(521,58,o),
(501,13,o),
(449,13,cs),
(402,13,o),
(375,52,o),
(375,172,cs),
(375,272,o),
(395,387,o),
(448,460,c),
(481,505,o),
(525,533,o),
(586,533,cs),
(648,533,o),
(693,503,o),
(726,457,c),
(778,384,o),
(798,270,o),
(798,170,cs),
(798,58,o),
(778,13,o),
(726,13,cs),
(680,13,o),
(652,52,o),
(652,172,cs),
(652,282,o),
(674,386,o),
(739,452,c),
(780,494,o),
(841,521,o),
(929,521,cs),
(939,521,l),
(939,0,l),
(965,0,l),
(965,521,l),
(1101,521,l),
(1101,546,l),
(947,546,ls),
(836,546,o),
(770,518,o),
(728,476,c),
(720,468,l),
(648,394,o),
(625,290,o),
(625,172,cs),
(625,47,o),
(659,-12,o),
(725,-12,cs),
(785,-12,o),
(825,30,o),
(825,170,cs),
(825,271,o),
(804,390,o),
(746,471,c),
(740,478,l),
(704,528,o),
(654,558,o),
(587,558,cs),
(521,558,o),
(468,528,o),
(433,481,c),
(428,475,l),
(369,396,o),
(348,275,o),
(348,172,cs),
(348,47,o),
(382,-12,o),
(448,-12,cs),
(508,-12,o),
(548,30,o),
(548,170,cs),
(548,280,o),
(520,389,o),
(457,469,c),
(448,480,l),
(413,521,o),
(362,558,o),
(282,558,cs),
(146,558,o),
(51,432,o),
(51,234,cs),
(51,40,o),
(106,-12,o),
(173,-12,cs)
);
}
);
width = 1117;
},
{
anchors = (
{
name = Anchor10;
pos = (624,-29);
},
{
name = Anchor12;
pos = (624,-78);
},
{
name = Anchor8;
pos = (624,-29);
}
);
layerId = "AA356D29-EBA3-4BA7-B11E-09F9C5534C37";
shapes = (
{
closed = 1;
nodes = (
(282,-12,o),
(330,46,o),
(330,160,cs),
(330,265,o),
(281,328,o),
(203,328,cs),
(149,328,o),
(106,295,o),
(75,257,c),
(90,202,l),
(110,231,o),
(147,262,o),
(187,262,cs),
(228,262,o),
(253,226,o),
(253,154,cs),
(253,84,o),
(232,52,o),
(196,52,cs),
(151,52,o),
(118,94,o),
(118,232,cs),
(118,244,o),
(119,263,o),
(120,283,c),
(134,407,o),
(199,497,o),
(317,497,cs),
(375,497,o),
(426,483,o),
(472,439,c),
(529,378,o),
(559,290,o),
(559,181,cs),
(559,104,o),
(549,53,o),
(507,53,cs),
(476,53,o),
(454,84,o),
(454,188,cs),
(454,286,o),
(473,375,o),
(518,432,c),
(551,474,o),
(600,498,o),
(664,498,cs),
(721,498,o),
(768,474,o),
(801,433,c),
(851,371,o),
(875,272,o),
(875,181,cs),
(875,104,o),
(863,53,o),
(823,53,cs),
(792,53,o),
(770,84,o),
(770,188,cs),
(770,290,o),
(794,392,o),
(841,434,c),
(886,473,o),
(918,487,o),
(1019,487,cs),
(1039,487,l),
(1039,0,l),
(1118,0,l),
(1118,487,l),
(1233,487,l),
(1233,554,l),
(1049,554,ls),
(901,554,o),
(857,527,o),
(810,492,c),
(779,454,l),
(722,382,o),
(695,291,o),
(695,182,cs),
(695,58,o),
(732,-12,o),
(824,-12,cs),
(904,-12,o),
(951,44,o),
(951,183,cs),
(951,284,o),
(924,385,o),
(856,468,c),
(834,494,l),
(785,543,o),
(732,566,o),
(664,566,cs),
(590,566,o),
(531,539,o),
(486,494,c),
(466,471,l),
(408,398,o),
(379,291,o),
(379,182,cs),
(379,58,o),
(416,-12,o),
(510,-12,cs),
(588,-12,o),
(635,44,o),
(635,183,cs),
(635,298,o),
(598,394,o),
(541,457,c),
(510,493,l),
(449,546,o),
(392,566,o),
(322,566,cs),
(150,566,o),
(46,435,o),
(46,240,cs),
(46,54,o),
(110,-12,o),
(195,-12,cs)
);
}
);
width = 1249;
},
{
anchors = (
{
name = Anchor10;
pos = (738,-29);
},
{
name = Anchor12;
pos = (738,-78);
},
{
name = Anchor8;
pos = (738,-29);
}
);
layerId = "DB7E4487-AAA8-4905-9B27-B72FA6056893";
shapes = (
{
closed = 1;
nodes = (
(352,-12,o),
(407,60,o),
(407,175,cs),
(407,290,o),
(351,352,o),
(253,352,cs),
(192,352,o),
(151,319,o),
(106,272,c),
(132,179,l),
(163,218,o),
(189,237,o),
(212,237,cs),
(239,237,o),
(258,221,o),
(258,172,cs),
(258,124,o),
(246,107,o),
(219,107,cs),
(187,107,o),
(172,141,o),
(172,221,cs),
(172,238,o),
(173,259,o),
(175,270,c),
(188,377,o),
(267,457,o),
(380,457,cs),
(458,457,o),
(515,432,o),
(562,389,c),
(615,343,o),
(638,273,o),
(638,185,cs),
(638,124,o),
(628,108,o),
(604,108,cs),
(585,108,o),
(572,126,o),
(572,187,cs),
(572,272,o),
(593,345,o),
(636,394,c),
(677,434,o),
(717,457,o),
(786,457,cs),
(861,457,o),
(910,434,o),
(948,396,c),
(998,341,o),
(1017,281,o),
(1017,190,cs),
(1017,124,o),
(1007,108,o),
(983,108,cs),
(964,108,o),
(951,126,o),
(951,187,cs),
(951,271,o),
(971,358,o),
(1025,384,c),
(1066,422,o),
(1123,445,o),
(1204,445,cs),
(1208,445,l),
(1208,0,l),
(1369,0,l),
(1369,445,l),
(1460,445,l),
(1460,569,l),
(1257,569,ls),
(1093,569,o),
(1025,542,o),
(962,498,c),
(926,457,l),
(849,386,o),
(808,311,o),
(808,197,cs),
(808,58,o),
(879,-12,o),
(981,-12,cs),
(1097,-12,o),
(1158,49,o),
(1158,191,cs),
(1158,307,o),
(1121,393,o),
(1050,467,c),
(1019,500,l),
(952,559,o),
(880,581,o),
(791,581,cs),
(704,581,o),
(626,560,o),
(564,507,c),
(527,462,l),
(467,391,o),
(429,311,o),
(429,197,cs),
(429,58,o),
(500,-12,o),
(602,-12,cs),
(714,-12,o),
(779,49,o),
(779,191,cs),
(779,303,o),
(739,393,o),
(661,458,c),
(630,502,l),
(543,563,o),
(481,581,o),
(383,581,cs),
(167,581,o),
(30,451,o),
(30,249,cs),
(30,77,o),
(99,-12,o),
(223,-12,cs)
);
}
);
width = 1476;
}
);
unicode = 2979;
},
{
glyphname = tatamil;
lastChange = "2020-03-17 13:07:53 +0000";
layers = (
{
anchors = (
{
name = Anchor10;
pos = (377,-29);
},
{
name = Anchor12;
pos = (377,-190);
},
{
name = Anchor8;
pos = (377,-29);
}
);
layerId = UUID0;
shapes = (
{
closed = 1;
nodes = (
(302,-12,o),
(357,10,o),
(388,51,cs),
(415,86,o),
(428,130,o),
(428,194,cs),
(428,521,l),
(632,521,l),
(632,546,l),
(158,546,l),
(158,276,l),
(184,284,l),
(184,521,l),
(402,521,l),
(402,196,ls),
(402,62,o),
(334,13,o),
(235,13,cs),
(132,13,o),
(80,67,o),
(80,146,cs),
(80,190,o),
(96,221,o),
(123,243,cs),
(160,275,o),
(219,287,o),
(290,287,cs),
(426,287,ls),
(550,287,o),
(674,248,o),
(674,103,cs),
(674,49,o),
(660,7,o),
(636,-23,cs),
(580,-93,o),
(469,-106,o),
(331,-106,cs),
(235,-106,ls),
(169,-106,o),
(126,-118,o),
(96,-142,cs),
(67,-166,o),
(51,-202,o),
(51,-251,cs),
(51,-277,o),
(55,-301,o),
(59,-321,c),
(84,-320,l),
(80,-299,o),
(77,-279,o),
(77,-251,cs),
(77,-209,o),
(88,-180,o),
(115,-160,cs),
(139,-142,o),
(170,-131,o),
(243,-131,cs),
(337,-131,ls),
(473,-131,o),
(598,-117,o),
(660,-35,cs),
(685,-2,o),
(701,42,o),
(701,101,cs),
(701,249,o),
(586,312,o),
(427,312,cs),
(299,312,ls),
(135,312,o),
(53,252,o),
(53,145,cs),
(53,49,o),
(124,-12,o),
(234,-12,cs)
);
}
);
width = 754;
},
{
anchors = (
{
name = Anchor10;
pos = (412,-29);
},
{
name = Anchor12;
pos = (412,-200);
},
{
name = Anchor8;
pos = (412,-29);
}
);
layerId = "4900EB3E-CEE9-4F53-85D9-05D95ABCFDBA";
shapes = (
{
closed = 1;
nodes = (
(345,-12,o),
(411,6,o),
(452,57,cs),
(480,91,o),
(496,136,o),
(496,226,cs),
(496,482,l),
(683,482,l),
(683,554,l),
(160,554,l),
(160,286,l),
(239,302,l),
(239,482,l),
(411,482,l),
(411,213,ls),
(411,94,o),
(356,60,o),
(269,60,cs),
(192,60,o),
(135,91,o),
(135,153,cs),
(135,191,o),
(149,215,o),
(178,232,cs),
(211,251,o),
(257,258,o),
(325,258,cs),
(467,258,ls),
(575,258,o),
(691,235,o),
(691,105,cs),
(691,55,o),
(677,16,o),
(650,-13,cs),
(604,-63,o),
(532,-84,o),
(354,-84,cs),
(245,-84,ls),
(178,-84,o),
(139,-94,o),
(104,-119,cs),
(70,-144,o),
(47,-184,o),
(47,-243,cs),
(47,-266,o),
(50,-297,o),
(54,-321,c),
(136,-317,l),
(134,-301,o),
(133,-283,o),
(133,-263,cs),
(133,-219,o),
(145,-194,o),
(167,-179,cs),
(189,-164,o),
(216,-156,o),
(272,-156,cs),
(385,-156,ls),
(529,-156,o),
(615,-141,o),
(681,-94,cs),
(742,-49,o),
(777,9,o),
(777,98,cs),
(777,271,o),
(651,328,o),
(477,328,cs),
(332,328,ls),
(129,328,o),
(49,260,o),
(49,152,cs),
(49,47,o),
(140,-12,o),
(261,-12,cs)
);
}
);
width = 825;
},
{
anchors = (
{
name = Anchor10;
pos = (457,-29);
},
{
name = Anchor12;
pos = (457,-210);
},
{
name = Anchor8;
pos = (457,-29);
}
);
layerId = "4BF31C0D-0A66-4B39-96F9-ACB961E601E6";
shapes = (
{
closed = 1;
nodes = (
(394,-12,o),
(473,7,o),
(521,61,cs),
(554,98,o),
(573,146,o),
(573,240,cs),
(573,455,l),
(762,455,l),
(762,562,l),
(143,562,l),
(143,286,l),
(277,302,l),
(277,455,l),
(428,455,l),
(428,238,ls),
(428,125,o),
(381,95,o),
(304,95,cs),
(233,95,o),
(188,118,o),
(188,168,cs),
(188,195,o),
(200,215,o),
(225,228,cs),
(254,243,o),
(298,246,o),
(345,246,cs),
(520,246,ls),
(616,246,o),
(727,226,o),
(727,109,cs),
(727,64,o),
(713,28,o),
(687,2,cs),
(642,-44,o),
(571,-62,o),
(397,-62,cs),
(307,-62,ls),
(196,-62,o),
(148,-74,o),
(108,-102,cs),
(68,-130,o),
(42,-175,o),
(42,-235,cs),
(42,-267,o),
(44,-293,o),
(48,-321,c),
(194,-314,l),
(192,-300,o),
(191,-287,o),
(191,-272,cs),
(191,-230,o),
(204,-207,o),
(225,-191,cs),
(246,-176,o),
(271,-169,o),
(353,-169,cs),
(431,-169,ls),
(594,-169,o),
(698,-146,o),
(764,-101,cs),
(834,-54,o),
(874,6,o),
(874,97,cs),
(874,283,o),
(730,347,o),
(531,347,cs),
(364,347,ls),
(133,347,o),
(41,274,o),
(41,165,cs),
(41,50,o),
(143,-12,o),
(294,-12,cs)
);
}
);
width = 912;
},
{
anchors = (
{
name = Anchor10;
pos = (485,-29);
},
{
name = Anchor12;
pos = (485,-217);
},
{
name = Anchor8;
pos = (485,-29);
}
);
layerId = "6732FEC1-CFA6-4586-B452-175C4A015291";
shapes = (
{
closed = 1;
nodes = (
(424,-12,o),
(498,8,o),
(549,55,cs),
(595,98,o),
(619,162,o),
(619,252,cs),
(619,439,l),
(808,439,l),
(808,569,l),
(129,569,l),
(129,286,l),
(300,302,l),
(300,439,l),
(434,439,l),
(434,239,ls),
(434,143,o),
(389,118,o),
(315,118,cs),
(253,118,o),
(217,133,o),
(217,176,cs),
(217,196,o),
(227,211,o),
(247,221,cs),
(269,231,o),
(296,234,o),
(353,234,cs),
(576,234,ls),
(679,234,o),
(753,204,o),
(753,108,cs),
(753,60,o),
(737,26,o),
(710,2,cs),
(657,-44,o),
(561,-50,o),
(441,-50,cs),
(303,-50,ls),
(195,-50,o),
(149,-62,o),
(105,-91,cs),
(61,-120,o),
(33,-169,o),
(33,-230,cs),
(33,-262,o),
(35,-291,o),
(39,-322,c),
(226,-312,l),
(224,-299,o),
(223,-286,o),
(223,-269,cs),
(223,-235,o),
(234,-214,o),
(253,-200,cs),
(276,-184,o),
(303,-180,o),
(364,-180,cs),
(479,-180,ls),
(629,-180,o),
(740,-164,o),
(821,-117,cs),
(892,-75,o),
(938,-10,o),
(938,96,cs),
(938,290,o),
(797,355,o),
(573,355,cs),
(379,355,ls),
(126,355,o),
(33,280,o),
(33,168,cs),
(33,50,o),
(132,-12,o),
(313,-12,cs)
);
}
);
width = 971;
},
{
anchors = (
{
name = Anchor10;
pos = (279,-29);
},
{
name = Anchor12;
pos = (279,-190);
},
{
name = Anchor8;
pos = (279,-29);
}
);
layerId = "960C9600-7588-48B9-A77D-42B729BBBC0C";
shapes = (
{
closed = 1;
nodes = (
(228,-12,o),
(263,6,o),
(286,36,cs),
(312,71,o),
(321,115,o),
(321,180,cs),
(321,521,l),
(463,521,l),
(463,546,l),
(119,546,l),
(119,276,l),
(145,284,l),
(145,521,l),
(295,521,l),
(295,181,ls),
(295,56,o),
(252,13,o),
(176,13,cs),
(107,13,o),
(71,61,o),
(71,146,cs),
(71,193,o),
(86,229,o),
(113,252,cs),
(140,275,o),
(176,287,o),
(242,287,cs),
(294,287,ls),
(403,287,o),
(488,243,o),
(488,103,cs),
(488,42,o),
(474,-17,o),
(433,-54,cs),
(390,-92,o),
(345,-106,o),
(243,-106,cs),
(229,-106,ls),
(153,-106,o),
(117,-115,o),
(86,-140,cs),
(58,-162,o),
(42,-198,o),
(42,-251,cs),
(42,-277,o),
(44,-299,o),
(48,-321,c),
(74,-319,l),
(70,-297,o),
(68,-279,o),
(68,-251,cs),
(68,-204,o),
(81,-176,o),
(104,-158,cs),
(130,-137,o),
(158,-131,o),
(229,-131,cs),
(251,-131,ls),
(355,-131,o),
(411,-111,o),
(456,-67,cs),
(494,-29,o),
(515,27,o),
(515,106,cs),
(515,249,o),
(428,312,o),
(287,312,cs),
(241,312,ls),
(103,312,o),
(44,246,o),
(44,145,cs),
(44,49,o),
(90,-12,o),
(177,-12,cs)
);
}
);
width = 558;
},
{
anchors = (
{
name = Anchor10;
pos = (315,-29);
},
{
name = Anchor12;
pos = (315,-200);
},
{
name = Anchor8;
pos = (315,-29);
}
);
layerId = "AA356D29-EBA3-4BA7-B11E-09F9C5534C37";
shapes = (
{
closed = 1;
nodes = (
(268,-12,o),
(320,6,o),
(351,57,cs),
(373,92,o),
(384,137,o),
(384,227,cs),
(384,487,l),
(519,487,l),
(519,554,l),
(117,554,l),
(117,286,l),
(189,302,l),
(189,487,l),
(307,487,l),
(307,204,ls),
(307,88,o),
(269,55,o),
(210,55,cs),
(152,55,o),
(118,87,o),
(118,153,cs),
(118,193,o),
(129,220,o),
(149,237,cs),
(172,256,o),
(206,262,o),
(257,262,cs),
(349,262,ls),
(434,262,o),
(512,228,o),
(512,106,cs),
(512,49,o),
(502,6,o),
(476,-24,cs),
(440,-67,o),
(389,-85,o),
(286,-85,c),
(238,-85,ls),
(167,-85,o),
(125,-95,o),
(91,-121,cs),
(58,-146,o),
(37,-185,o),
(37,-243,cs),
(37,-266,o),
(40,-297,o),
(44,-321,c),
(120,-317,l),
(118,-301,o),
(117,-277,o),
(117,-261,cs),
(117,-224,o),
(126,-197,o),
(146,-179,cs),
(167,-160,o),
(191,-152,o),
(250,-152,cs),
(290,-152,ls),
(396,-152,o),
(470,-137,o),
(518,-92,cs),
(565,-47,o),
(590,11,o),
(590,98,cs),
(590,262,o),
(495,328,o),
(347,328,cs),
(265,328,ls),
(113,328,o),
(39,265,o),
(39,152,cs),
(39,47,o),
(108,-12,o),
(203,-12,cs)
);
}
);
width = 630;
},
{
anchors = (
{
name = Anchor10;
pos = (379,-29);
},
{
name = Anchor12;
pos = (379,-217);
},
{
name = Anchor8;
pos = (379,-29);
}
);
layerId = "DB7E4487-AAA8-4905-9B27-B72FA6056893";
shapes = (
{
closed = 1;
nodes = (
(335,-12,o),
(396,10,o),
(433,52,cs),
(473,96,o),
(488,151,o),
(488,253,cs),
(488,445,l),
(626,445,l),
(626,569,l),
(95,569,l),
(95,286,l),
(240,302,l),
(240,445,l),
(331,445,l),
(331,218,ls),
(331,139,o),
(298,112,o),
(246,112,cs),
(210,112,o),
(183,129,o),
(183,170,cs),
(183,191,o),
(189,206,o),
(201,217,cs),
(217,232,o),
(240,237,o),
(291,237,cs),
(422,237,ls),
(534,237,o),
(575,183,o),
(575,105,cs),
(575,51,o),
(561,15,o),
(535,-9,cs),
(501,-40,o),
(462,-50,o),
(369,-50,cs),
(286,-50,ls),
(180,-50,o),
(133,-61,o),
(95,-85,cs),
(50,-114,o),
(28,-161,o),
(28,-233,cs),
(28,-262,o),
(31,-291,o),
(35,-322,c),
(193,-313,l),
(191,-300,o),
(189,-278,o),
(189,-263,cs),
(189,-230,o),
(198,-208,o),
(216,-194,cs),
(234,-180,o),
(254,-174,o),
(316,-174,cs),
(392,-174,ls),
(505,-174,o),
(577,-156,o),
(637,-113,cs),
(696,-71,o),
(733,-2,o),
(733,101,cs),
(733,265,o),
(632,352,o),
(424,352,cs),
(313,352,ls),
(121,352,o),
(28,278,o),
(28,167,cs),
(28,52,o),
(102,-12,o),
(248,-12,cs)
);
}
);
width = 759;
}
);
unicode = 2980;
},
{
glyphname = natamil;
lastChange = "2020-03-17 13:07:53 +0000";
layers = (
{
anchors = (
{
name = Anchor10;
pos = (362,-29);
},
{
name = Anchor12;
pos = (362,-190);
},
{
name = Anchor8;
pos = (362,-29);
}
);
layerId = UUID0;
shapes = (
{
closed = 1;
nodes = (
(452,356,o),
(406,330,o),
(365,300,c),
(367,270,l),
(412,309,o),
(457,331,o),
(506,331,cs),
(601,331,o),
(643,250,o),
(643,141,cs),
(643,58,o),
(621,1,o),
(580,-37,cs),
(523,-89,o),
(437,-106,o),
(295,-106,cs),
(235,-106,ls),
(169,-106,o),
(126,-118,o),
(96,-142,cs),
(67,-166,o),
(51,-202,o),
(51,-251,cs),
(51,-277,o),
(55,-301,o),
(59,-321,c),
(84,-320,l),
(80,-299,o),
(77,-278,o),
(77,-251,cs),
(77,-209,o),
(88,-180,o),
(115,-160,cs),
(139,-142,o),
(170,-131,o),
(243,-131,cs),
(308,-131,ls),
(424,-131,o),
(528,-118,o),
(596,-57,cs),
(642,-16,o),
(670,47,o),
(670,143,cs),
(670,284,o),
(601,356,o),
(508,356,cs)
);
},
{
closed = 1;
nodes = (
(120,0,l),
(120,521,l),
(347,521,l),
(347,0,l),
(373,0,l),
(373,521,l),
(568,521,l),
(568,546,l),
(94,546,l),
(94,0,l)
);
}
);
width = 724;
},
{
anchors = (
{
name = Anchor10;
pos = (395,-29);
},
{
name = Anchor12;
pos = (395,-200);
},
{
name = Anchor8;
pos = (395,-29);
}
);
layerId = "4900EB3E-CEE9-4F53-85D9-05D95ABCFDBA";
shapes = (
{
closed = 1;
nodes = (
(504,362,o),
(462,343,o),
(427,322,c),
(430,247,l),
(458,270,o),
(498,289,o),
(536,289,cs),
(613,289,o),
(655,234,o),
(655,131,cs),
(655,61,o),
(637,15,o),
(610,-14,cs),
(564,-64,o),
(501,-84,o),
(338,-84,cs),
(245,-84,ls),
(178,-84,o),
(139,-94,o),
(104,-119,cs),
(70,-144,o),
(47,-184,o),
(47,-243,cs),
(47,-266,o),
(50,-297,o),
(54,-321,c),
(136,-317,l),
(134,-301,o),
(133,-283,o),
(133,-263,cs),
(133,-219,o),
(145,-194,o),
(167,-179,cs),
(189,-164,o),
(216,-156,o),
(272,-156,cs),
(347,-156,ls),
(491,-156,o),
(577,-141,o),
(642,-94,cs),
(704,-49,o),
(741,14,o),
(741,134,cs),
(741,282,o),
(658,362,o),
(557,362,cs)
);
},
{
closed = 1;
nodes = (
(174,0,l),
(174,482,l),
(348,482,l),
(348,0,l),
(434,0,l),
(434,482,l),
(609,482,l),
(609,554,l),
(88,554,l),
(88,0,l)
);
}
);
width = 789;
},
{
anchors = (
{
name = Anchor10;
pos = (445,-29);
},
{
name = Anchor12;
pos = (445,-210);
},
{
name = Anchor8;
pos = (445,-29);
}
);
layerId = "4BF31C0D-0A66-4B39-96F9-ACB961E601E6";
shapes = (
{
closed = 1;
nodes = (
(586,362,o),
(545,348,o),
(512,329,c),
(514,223,l),
(541,243,o),
(566,255,o),
(603,255,cs),
(666,255,o),
(703,210,o),
(703,125,cs),
(703,64,o),
(685,20,o),
(661,-4,cs),
(618,-47,o),
(565,-62,o),
(420,-62,cs),
(305,-62,ls),
(194,-62,o),
(146,-74,o),
(106,-102,cs),
(66,-130,o),
(40,-175,o),
(40,-235,cs),
(40,-267,o),
(42,-293,o),
(46,-321,c),
(192,-314,l),
(190,-300,o),
(189,-287,o),
(189,-272,cs),
(189,-230,o),
(202,-207,o),
(223,-191,cs),
(244,-176,o),
(269,-169,o),
(350,-169,cs),
(439,-169,ls),
(580,-169,o),
(675,-152,o),
(743,-105,cs),
(806,-62,o),
(849,11,o),
(849,128,cs),
(849,282,o),
(764,362,o),
(637,362,cs)
);
},
{
closed = 1;
nodes = (
(228,0,l),
(228,455,l),
(377,455,l),
(377,0,l),
(526,0,l),
(526,455,l),
(670,455,l),
(670,562,l),
(79,562,l),
(79,0,l)
);
}
);
width = 890;
},
{
anchors = (
{
name = Anchor10;
pos = (468,-29);
},
{
name = Anchor12;
pos = (468,-217);
},
{
name = Anchor8;
pos = (468,-29);
}
);
layerId = "6732FEC1-CFA6-4586-B452-175C4A015291";
shapes = (
{
closed = 1;
nodes = (
(620,370,o),
(576,356,o),
(533,333,c),
(548,210,l),
(568,226,o),
(600,240,o),
(630,240,cs),
(686,240,o),
(716,200,o),
(716,123,cs),
(716,64,o),
(703,27,o),
(677,1,cs),
(639,-37,o),
(585,-50,o),
(463,-50,cs),
(300,-50,ls),
(192,-50,o),
(146,-62,o),
(102,-91,cs),
(58,-120,o),
(30,-169,o),
(30,-231,cs),
(30,-262,o),
(32,-291,o),
(36,-322,c),
(223,-312,l),
(221,-299,o),
(220,-286,o),
(220,-269,cs),
(220,-235,o),
(231,-214,o),
(250,-200,cs),
(273,-184,o),
(300,-180,o),
(361,-180,cs),
(494,-180,ls),
(625,-180,o),
(714,-164,o),
(787,-115,cs),
(857,-68,o),
(902,8,o),
(902,130,cs),
(902,269,o),
(832,370,o),
(684,370,cs)
);
},
{
closed = 1;
nodes = (
(258,0,l),
(258,439,l),
(382,439,l),
(382,0,l),
(572,0,l),
(572,439,l),
(704,439,l),
(704,569,l),
(68,569,l),
(68,0,l)
);
}
);
width = 937;
},
{
anchors = (
{
name = Anchor10;
pos = (276,-29);
},
{
name = Anchor12;
pos = (276,-190);
},
{
name = Anchor8;
pos = (276,-29);
}
);
layerId = "960C9600-7588-48B9-A77D-42B729BBBC0C";
shapes = (
{
closed = 1;
nodes = (
(336,356,o),
(306,340,o),
(277,319,c),
(277,290,l),
(312,319,o),
(343,331,o),
(374,331,cs),
(442,331,o),
(480,269,o),
(480,138,cs),
(480,36,o),
(463,-25,o),
(426,-61,cs),
(391,-95,o),
(347,-106,o),
(258,-106,cs),
(229,-106,ls),
(153,-106,o),
(117,-115,o),
(86,-140,cs),
(58,-162,o),
(42,-198,o),
(42,-251,cs),
(42,-277,o),
(44,-299,o),
(48,-321,c),
(74,-319,l),
(70,-297,o),
(68,-279,o),
(68,-251,cs),
(68,-204,o),
(81,-176,o),
(104,-158,cs),
(130,-137,o),
(158,-131,o),
(229,-131,cs),
(254,-131,ls),
(350,-131,o),
(401,-120,o),
(444,-79,cs),
(486,-39,o),
(507,29,o),
(507,138,cs),
(507,282,o),
(457,356,o),
(377,356,cs)
);
},
{
closed = 1;
nodes = (
(99,0,l),
(99,521,l),
(255,521,l),
(255,0,l),
(281,0,l),
(281,521,l),
(416,521,l),
(416,546,l),
(73,546,l),
(73,0,l)
);
}
);
width = 553;
},
{
anchors = (
{
name = Anchor10;
pos = (306,-29);
},
{
name = Anchor12;
pos = (306,-200);
},
{
name = Anchor8;
pos = (306,-29);
}
);
layerId = "AA356D29-EBA3-4BA7-B11E-09F9C5534C37";
shapes = (
{
closed = 1;
nodes = (
(386,362,o),
(357,350,o),
(322,327,c),
(325,260,l),
(350,281,o),
(376,294,o),
(406,294,cs),
(465,294,o),
(493,237,o),
(493,132,cs),
(493,53,o),
(488,-11,o),
(446,-49,cs),
(418,-74,o),
(381,-85,o),
(302,-85,cs),
(238,-85,ls),
(167,-85,o),
(125,-95,o),
(91,-121,cs),
(58,-146,o),
(37,-185,o),
(37,-243,cs),
(37,-266,o),
(40,-297,o),
(44,-321,c),
(120,-317,l),
(118,-301,o),
(117,-277,o),
(117,-261,cs),
(117,-224,o),
(126,-197,o),
(146,-179,cs),
(167,-160,o),
(191,-152,o),
(250,-152,cs),
(309,-152,ls),
(403,-152,o),
(454,-139,o),
(497,-103,cs),
(553,-56,o),
(572,18,o),
(572,135,cs),
(572,284,o),
(518,362,o),
(422,362,cs)
);
},
{
closed = 1;
nodes = (
(146,0,l),
(146,487,l),
(264,487,l),
(264,0,l),
(343,0,l),
(343,487,l),
(458,487,l),
(458,554,l),
(67,554,l),
(67,0,l)
);
}
);
width = 613;
},
{
anchors = (
{
name = Anchor10;
pos = (365,-29);
},
{
name = Anchor12;
pos = (365,-217);
},
{
name = Anchor8;
pos = (365,-29);
}
);
layerId = "DB7E4487-AAA8-4905-9B27-B72FA6056893";
shapes = (
{
closed = 1;
nodes = (
(494,370,o),
(456,361,o),
(419,338,c),
(434,227,l),
(450,238,o),
(467,246,o),
(483,246,cs),
(520,246,o),
(543,213,o),
(543,127,cs),
(543,56,o),
(533,9,o),
(506,-18,cs),
(483,-40,o),
(455,-50,o),
(377,-50,cs),
(287,-50,ls),
(181,-50,o),
(134,-61,o),
(96,-85,cs),
(51,-114,o),
(29,-161,o),
(29,-233,cs),
(29,-262,o),
(32,-291,o),
(36,-322,c),
(194,-313,l),
(192,-300,o),
(190,-279,o),
(190,-264,cs),
(190,-231,o),
(199,-208,o),
(217,-194,cs),
(235,-180,o),
(254,-174,o),
(316,-174,cs),
(360,-174,ls),
(494,-174,o),
(558,-162,o),
(615,-114,cs),
(671,-67,o),
(701,10,o),
(701,133,cs),
(701,261,o),
(650,370,o),
(531,370,cs)
);
},
{
closed = 1;
nodes = (
(214,0,l),
(214,445,l),
(293,445,l),
(293,0,l),
(454,0,l),
(454,445,l),
(544,445,l),
(544,569,l),
(53,569,l),
(53,0,l)
);
}
);
width = 731;
}
);
unicode = 2984;
},
